<?xml version="1.0" encoding="UTF-8" standalone="no"?>
<!DOCTYPE svg PUBLIC "-//W3C//DTD SVG 1.1//EN" "http://www.w3.org/Graphics/SVG/1.1/DTD/svg11.dtd">
<svg width="100%" height="100%" viewBox="0 0 540 530" version="1.1" xmlns="http://www.w3.org/2000/svg" xmlns:xlink="http://www.w3.org/1999/xlink" xml:space="preserve" xmlns:serif="http://www.serif.com/" style="fill-rule:evenodd;clip-rule:evenodd;stroke-linecap:round;stroke-miterlimit:1.5;">
    <g transform="matrix(1,0,0,1,-200,-100)">
        <g id="blog-icon" transform="matrix(1,0,0,1,70,2.84217e-14)">
            <g transform="matrix(1.25581,0,0,1.10417,-108.605,-43.5417)">
                <path d="M620,167.737C620,146.909 605.132,130 586.82,130L223.18,130C204.868,130 190,146.909 190,167.737L190,572.263C190,593.091 204.868,610 223.18,610L586.82,610C605.132,610 620,593.091 620,572.263L620,167.737Z" style="fill:rgb(191,191,191);fill-opacity:0.51;"/>
            </g>
            <g transform="matrix(1.025,0,0,0.988164,-5,-3.13525)">
                <g transform="matrix(0.788534,0,0,0.809524,42.2931,30.4762)">
                    <path d="M605.816,166.694C605.816,163 602.847,160 599.191,160L206.625,160C202.969,160 200,163 200,166.694L200,573.306C200,577 202.969,580 206.625,580L599.191,580C602.847,580 605.816,577 605.816,573.306L605.816,166.694Z"/>
                </g>
                <g transform="matrix(0.208365,0,0,0.559464,473.769,150.486)">
                    <path d="M605.816,162.559C605.816,161.147 602.847,160 599.191,160L206.625,160C202.969,160 200,161.147 200,162.559L200,577.441C200,578.853 202.969,580 206.625,580L599.191,580C602.847,580 605.816,578.853 605.816,577.441L605.816,162.559Z"/>
                </g>
                <g transform="matrix(1.23031,0,0,2.22104,-46.0612,-690.521)">
                    <path d="M525.122,522.489C525.122,510.077 507.585,500 485.983,500L239.139,500C217.538,500 200,510.077 200,522.489L200,549.549C200,561.961 217.538,572.038 239.139,572.038L485.983,572.038C507.585,572.038 525.122,561.961 525.122,549.549L525.122,522.489Z"/>
                </g>
            </g>
            <g transform="matrix(1.025,0,0,1.05404,-5,-40.0267)">
                <path d="M520,269.375L520,527.188C520,545.297 536.683,567.5 556,567.5C575.317,567.5 590,545.297 590,527.188L590,269.375" style="fill:white;"/>
            </g>
            <g transform="matrix(0.957143,0,0,0.988164,19.4286,-3.13525)">
                <path d="M360,204.267C360,201.912 358.026,200 355.594,200L224.406,200C221.974,200 220,201.912 220,204.267L220,365.733C220,368.088 221.974,370 224.406,370L355.594,370C358.026,370 360,368.088 360,365.733L360,204.267Z" style="fill:none;stroke:white;stroke-width:11.31px;"/>
            </g>
            <g>
                <g transform="matrix(1.025,0,0,1.70858,-5,-152.16)">
                    <path d="M493.607,202.892C493.607,201.296 491.447,200 488.787,200L384.82,200C382.16,200 380,201.296 380,202.892C380,204.488 382.16,205.784 384.82,205.784L488.787,205.784C491.447,205.784 493.607,204.488 493.607,202.892Z" style="fill:white;"/>
                </g>
                <g transform="matrix(1.025,0,0,1.70858,-5,-97.8105)">
                    <path d="M493.607,202.892C493.607,201.296 491.447,200 488.787,200L384.82,200C382.16,200 380,201.296 380,202.892C380,204.488 382.16,205.784 384.82,205.784L488.787,205.784C491.447,205.784 493.607,204.488 493.607,202.892Z" style="fill:white;"/>
                </g>
                <g transform="matrix(1.025,0,0,1.70858,-5,-48.4023)">
                    <path d="M493.607,202.892C493.607,201.296 491.447,200 488.787,200L384.82,200C382.16,200 380,201.296 380,202.892C380,204.488 382.16,205.784 384.82,205.784L488.787,205.784C491.447,205.784 493.607,204.488 493.607,202.892Z" style="fill:white;"/>
                </g>
                <g transform="matrix(1.025,0,0,1.70858,-5,10.8875)">
                    <path d="M493.607,202.892C493.607,201.296 491.447,200 488.787,200L384.82,200C382.16,200 380,201.296 380,202.892C380,204.488 382.16,205.784 384.82,205.784L488.787,205.784C491.447,205.784 493.607,204.488 493.607,202.892Z" style="fill:white;"/>
                </g>
                <g transform="matrix(2.38495,0,0,1.70858,-676.28,60.2957)">
                    <path d="M493.607,202.892C493.607,201.296 492.679,200 491.536,200L382.072,200C380.928,200 380,201.296 380,202.892C380,204.488 380.928,205.784 382.072,205.784L491.536,205.784C492.679,205.784 493.607,204.488 493.607,202.892Z" style="fill:white;"/>
                </g>
                <g transform="matrix(2.38495,0,0,1.70858,-676.28,114.645)">
                    <path d="M493.607,202.892C493.607,201.296 492.679,200 491.536,200L382.072,200C380.928,200 380,201.296 380,202.892C380,204.488 380.928,205.784 382.072,205.784L491.536,205.784C492.679,205.784 493.607,204.488 493.607,202.892Z" style="fill:white;"/>
                </g>
                <g transform="matrix(2.38495,0,0,1.70858,-676.28,173.935)">
                    <path d="M493.607,202.892C493.607,201.296 492.679,200 491.536,200L382.072,200C380.928,200 380,201.296 380,202.892C380,204.488 380.928,205.784 382.072,205.784L491.536,205.784C492.679,205.784 493.607,204.488 493.607,202.892Z" style="fill:white;"/>
                </g>
            </g>
        </g>
    </g>
</svg>
