<?xml version="1.0" encoding="UTF-8" standalone="no"?>
<!DOCTYPE svg PUBLIC "-//W3C//DTD SVG 1.1//EN" "http://www.w3.org/Graphics/SVG/1.1/DTD/svg11.dtd">
<svg width="100%" height="100%" viewBox="0 0 540 530" version="1.1" xmlns="http://www.w3.org/2000/svg" xmlns:xlink="http://www.w3.org/1999/xlink" xml:space="preserve" xmlns:serif="http://www.serif.com/" style="fill-rule:evenodd;clip-rule:evenodd;stroke-linejoin:round;stroke-miterlimit:2;">
    <g transform="matrix(1,0,0,1,-2000,-100)">
        <g id="join-icon" transform="matrix(1,0,0,1,1839.47,-11.0688)">
            <g transform="matrix(1.25581,0,0,1.10417,-78.0731,-32.4729)">
                <path d="M620,167.737C620,146.909 605.132,130 586.82,130L223.18,130C204.868,130 190,146.909 190,167.737L190,572.263C190,593.091 204.868,610 223.18,610L586.82,610C605.132,610 620,593.091 620,572.263L620,167.737Z" style="fill:rgb(191,191,191);fill-opacity:0.51;"/>
            </g>
            <g transform="matrix(0.900493,0,0,0.905906,42.742,27.498)">
                <g transform="matrix(0.970896,0,0,0.947614,-3.26843,-5.58682)">
                    <circle cx="448" cy="325.129" r="150.619"/>
                </g>
                <g transform="matrix(2.39496,0,0,0.982998,-1585.06,189.939)">
                    <path d="M925.107,428.414C925.107,332.156 902.988,233.315 853.523,239.737L829.765,239.737C780.593,232.602 758.181,332.156 758.181,428.414L925.107,428.414Z"/>
                </g>
            </g>
            <g transform="matrix(0.837834,0,0,0.84287,70.3792,35.7768)">
                <g transform="matrix(0.618182,0,0,0.933131,-19.6256,110.592)">
                    <path d="M747.66,103.748C747.66,96.738 739.018,91.047 728.373,91.047C717.727,91.047 709.085,96.738 709.085,103.748L709.085,309.096C709.085,316.106 717.727,321.797 728.373,321.797C739.018,321.797 747.66,316.106 747.66,309.096L747.66,103.748Z" style="fill:white;"/>
                </g>
                <g transform="matrix(2.77556e-17,-0.618182,0.933131,1.11022e-16,238.373,750.321)">
                    <path d="M747.66,103.901C747.66,96.806 739.018,91.047 728.373,91.047C717.727,91.047 709.085,96.806 709.085,103.901L709.085,308.943C709.085,316.037 717.727,321.797 728.373,321.797C739.018,321.797 747.66,316.037 747.66,308.943L747.66,103.901Z" style="fill:white;"/>
                </g>
            </g>
        </g>
    </g>
</svg>
