<?xml version="1.0" encoding="UTF-8" standalone="no"?>
<svg
   xmlns:dc="http://purl.org/dc/elements/1.1/"
   xmlns:cc="http://creativecommons.org/ns#"
   xmlns:rdf="http://www.w3.org/1999/02/22-rdf-syntax-ns#"
   xmlns:svg="http://www.w3.org/2000/svg"
   xmlns="http://www.w3.org/2000/svg"
   xmlns:sodipodi="http://sodipodi.sourceforge.net/DTD/sodipodi-0.dtd"
   xmlns:inkscape="http://www.inkscape.org/namespaces/inkscape"
   enable-background="new 0 0 91 91"
   height="91px"
   id="Layer_1"
   version="1.1"
   viewBox="0 0 91 91"
   width="91px"
   xml:space="preserve"
   sodipodi:docname="join.svg"
   inkscape:version="0.92.4 (5da689c313, 2019-01-14)"><metadata
     id="metadata15"><rdf:RDF><cc:Work
         rdf:about=""><dc:format>image/svg+xml</dc:format><dc:type
           rdf:resource="http://purl.org/dc/dcmitype/StillImage" /></cc:Work></rdf:RDF></metadata><defs
     id="defs13" /><sodipodi:namedview
     pagecolor="#ffffff"
     bordercolor="#666666"
     borderopacity="1"
     objecttolerance="10"
     gridtolerance="10"
     guidetolerance="10"
     inkscape:pageopacity="0"
     inkscape:pageshadow="2"
     inkscape:window-width="2498"
     inkscape:window-height="1417"
     id="namedview11"
     showgrid="false"
     inkscape:zoom="7.3352615"
     inkscape:cx="96.824841"
     inkscape:cy="35.511953"
     inkscape:window-x="54"
     inkscape:window-y="-8"
     inkscape:window-maximized="1"
     inkscape:current-layer="layer5" /><g
     inkscape:groupmode="layer"
     id="layer2"
     inkscape:label="Background"
     style="display:inline"><rect
       style="display:inline;fill:#eff2f5;fill-opacity:0.29411766;stroke:none;stroke-width:3.83391452;stroke-miterlimit:4;stroke-dasharray:none;stroke-opacity:1"
       id="rect4561"
       width="91.363281"
       height="91.226944"
       x="0"
       y="-0.11293762" /></g><g
     inkscape:groupmode="layer"
     id="layer4"
     inkscape:label="Icon"
     style="display:inline"><g
       id="g8"
       style="stroke:none;stroke-opacity:1"
       transform="translate(0,-8)"><path
         d="m 19.684,55.978 c 0,-2.58 1.712,-5.039 4.554,-6.746 1.972,1.869 4.426,3.225 7.158,3.85 l -3.174,15.473 6.705,5.365 6.707,-5.367 -3.229,-15.514 c 2.705,-0.65 5.133,-2.012 7.079,-3.885 2.923,1.709 4.687,4.197 4.687,6.824 v 10.904 h 3.4 V 55.978 c 0,-3.699 -2.209,-7.123 -5.887,-9.451 1.631,-2.463 2.586,-5.416 2.586,-8.59 0,-8.57 -6.934,-15.543 -15.455,-15.543 -8.518,0 -15.447,6.973 -15.447,15.543 0,3.215 0.977,6.207 2.646,8.689 -3.581,2.326 -5.73,5.715 -5.73,9.352 v 10.904 h 3.399 V 55.978 Z M 34.927,69.565 31.971,67.2 34.546,54.641 h 0.721 L 37.88,67.202 Z M 34.815,25.794 c 6.646,0 12.055,5.447 12.055,12.143 0,6.696 -5.408,12.143 -12.055,12.143 -6.643,0 -12.047,-5.447 -12.047,-12.143 0,-6.696 5.405,-12.143 12.047,-12.143 z"
         id="path2"
         inkscape:connector-curvature="0"
         style="fill:#ffffff;fill-opacity:1;stroke:none;stroke-opacity:1" /><polygon
         points="68.461,34.929 73.63,34.929 73.63,31.528 68.461,31.528 68.461,26.358 65.061,26.358 65.061,31.528 59.892,31.528 59.892,34.929 65.061,34.929 65.061,40.097 68.461,40.097 "
         id="polygon4"
         style="fill:#ffffff;fill-opacity:1;stroke:none;stroke-opacity:1" /><path
         d="m 66.905,19.581 c -7.459,0 -13.525,6.068 -13.525,13.525 0,7.457 6.066,13.525 13.525,13.525 7.458,0 13.525,-6.068 13.525,-13.525 0,-7.457 -6.067,-13.525 -13.525,-13.525 z m 0,23.65 c -5.583,0 -10.125,-4.541 -10.125,-10.125 0,-5.582 4.542,-10.125 10.125,-10.125 5.583,0 10.125,4.543 10.125,10.125 0,5.584 -4.542,10.125 -10.125,10.125 z"
         id="path6"
         inkscape:connector-curvature="0"
         style="fill:#ffffff;fill-opacity:1;stroke:none;stroke-opacity:1" /></g></g><g
     inkscape:groupmode="layer"
     id="layer5"
     inkscape:label="Text"><text
       xml:space="preserve"
       style="font-style:normal;font-weight:normal;font-size:32.05409241px;line-height:1.25;font-family:sans-serif;letter-spacing:0px;word-spacing:0px;fill:#ffffff;fill-opacity:1;stroke:none;stroke-width:0.80135232"
       x="3.5828869"
       y="84.389343"
       id="text4583"><tspan
         sodipodi:role="line"
         id="tspan4581"
         x="3.5828869"
         y="84.389343"
         style="font-size:13.33333365px;fill:#ffffff;fill-opacity:1;stroke-width:0.80135232">Dołącz do nas</tspan></text>
</g></svg>