<?xml version="1.0" encoding="UTF-8" standalone="no"?>
<svg
   xmlns:dc="http://purl.org/dc/elements/1.1/"
   xmlns:cc="http://creativecommons.org/ns#"
   xmlns:rdf="http://www.w3.org/1999/02/22-rdf-syntax-ns#"
   xmlns:svg="http://www.w3.org/2000/svg"
   xmlns="http://www.w3.org/2000/svg"
   xmlns:sodipodi="http://sodipodi.sourceforge.net/DTD/sodipodi-0.dtd"
   xmlns:inkscape="http://www.inkscape.org/namespaces/inkscape"
   enable-background="new 0 0 91 91"
   height="91px"
   id="Layer_1"
   version="1.1"
   viewBox="0 0 91 91"
   width="91px"
   xml:space="preserve"
   sodipodi:docname="members.svg"
   inkscape:version="0.92.4 (5da689c313, 2019-01-14)"><metadata
     id="metadata15"><rdf:RDF><cc:Work
         rdf:about=""><dc:format>image/svg+xml</dc:format><dc:type
           rdf:resource="http://purl.org/dc/dcmitype/StillImage" /></cc:Work></rdf:RDF></metadata><defs
     id="defs13" /><sodipodi:namedview
     pagecolor="#ffffff"
     bordercolor="#666666"
     borderopacity="1"
     objecttolerance="10"
     gridtolerance="10"
     guidetolerance="10"
     inkscape:pageopacity="0"
     inkscape:pageshadow="2"
     inkscape:window-width="2498"
     inkscape:window-height="1417"
     id="namedview11"
     showgrid="false"
     inkscape:zoom="10.373626"
     inkscape:cx="14.968654"
     inkscape:cy="41.037134"
     inkscape:window-x="54"
     inkscape:window-y="-8"
     inkscape:window-maximized="1"
     inkscape:current-layer="layer3" /><g
     inkscape:groupmode="layer"
     id="layer1"
     inkscape:label="Background"
     style="display:inline"><rect
       style="display:inline;fill:#eff2f5;fill-opacity:0.29411765;stroke:none;stroke-width:3.83391452;stroke-miterlimit:4;stroke-dasharray:none;stroke-opacity:1"
       id="rect4561"
       width="91.363281"
       height="91.226944"
       x="0.10755444"
       y="0.079324722" /></g><g
     inkscape:groupmode="layer"
     id="layer2"
     inkscape:label="Icon"><g
       style="fill:#ffffff;fill-opacity:1"
       id="g8"
       transform="matrix(1.0487638,0,0,1.0881387,-2.7595453,-10.457547)"><path
         d="m 46.252,22.97 c -6.738,0 -12.219,5.484 -12.219,12.223 0,2.725 0.907,5.236 2.42,7.27 -2.98,2.084 -4.777,5.191 -4.777,8.521 v 17.369 h 3.4 v -17.37 c 0,-2.371 1.436,-4.619 3.804,-6.068 2.052,1.561 4.601,2.498 7.372,2.498 2.806,0 5.385,-0.959 7.451,-2.557 2.427,1.449 3.897,3.719 3.897,6.127 V 68.352 H 61 V 50.983 C 61,47.6 59.161,44.467 56.11,42.385 57.589,40.364 58.473,37.881 58.473,35.192 58.474,28.454 52.991,22.97 46.252,22.97 Z m 0,21.045 c -4.863,0 -8.818,-3.959 -8.818,-8.822 0,-4.865 3.955,-8.822 8.818,-8.822 4.864,0 8.822,3.957 8.822,8.822 0,4.863 -3.958,8.822 -8.822,8.822 z"
         id="path2"
         style="fill:#ffffff;fill-opacity:1"
         inkscape:connector-curvature="0" /><path
         d="m 18.976,48.233 c 0,-1.043 0.596,-2.037 1.579,-2.768 1.26,0.838 2.768,1.33 4.391,1.33 4.394,0 7.969,-3.572 7.969,-7.965 0,-4.395 -3.575,-7.969 -7.969,-7.969 -4.393,0 -7.965,3.574 -7.965,7.969 0,1.529 0.453,2.943 1.202,4.156 -1.642,1.359 -2.607,3.242 -2.607,5.246 v 10.084 h 3.4 z m 5.969,-13.97 c 2.52,0 4.568,2.049 4.568,4.568 0,2.516 -2.049,4.564 -4.568,4.564 -2.518,0 -4.565,-2.049 -4.565,-4.564 0,-2.519 2.048,-4.568 4.565,-4.568 z"
         id="path4"
         style="fill:#ffffff;fill-opacity:1"
         inkscape:connector-curvature="0" /><path
         d="m 74.422,42.931 c 0.729,-1.201 1.172,-2.596 1.172,-4.1 0,-4.395 -3.574,-7.969 -7.966,-7.969 -4.394,0 -7.969,3.574 -7.969,7.969 0,4.393 3.575,7.965 7.969,7.965 1.646,0 3.178,-0.502 4.448,-1.361 1.01,0.73 1.621,1.738 1.621,2.799 v 10.084 h 3.4 V 48.233 c 0.001,-2.039 -0.991,-3.945 -2.675,-5.302 z m -6.794,0.465 c -2.52,0 -4.569,-2.049 -4.569,-4.564 0,-2.52 2.05,-4.568 4.569,-4.568 2.518,0 4.565,2.049 4.565,4.568 0,2.515 -2.047,4.564 -4.565,4.564 z"
         id="path6"
         style="fill:#ffffff;fill-opacity:1"
         inkscape:connector-curvature="0" /></g></g><g
     inkscape:groupmode="layer"
     id="layer3"
     inkscape:label="Text"><text
       xml:space="preserve"
       style="font-style:normal;font-weight:normal;font-size:16px;line-height:1.25;font-family:sans-serif;letter-spacing:0px;word-spacing:0px;fill:#ffffff;fill-opacity:1;stroke:none;stroke-width:0.80135232"
       x="5.4977083"
       y="84.420647"
       id="text4583"><tspan
         sodipodi:role="line"
         id="tspan4581"
         x="5.4977083"
         y="84.420647"
         style="font-size:14.66666698px;line-height:1.25;fill:#ffffff;fill-opacity:1;stroke-width:0.80135232">Nasz zespół</tspan></text>
</g></svg>