<?xml version="1.0" encoding="UTF-8" standalone="no"?>
<svg
   xmlns:dc="http://purl.org/dc/elements/1.1/"
   xmlns:cc="http://creativecommons.org/ns#"
   xmlns:rdf="http://www.w3.org/1999/02/22-rdf-syntax-ns#"
   xmlns:svg="http://www.w3.org/2000/svg"
   xmlns="http://www.w3.org/2000/svg"
   xmlns:sodipodi="http://sodipodi.sourceforge.net/DTD/sodipodi-0.dtd"
   xmlns:inkscape="http://www.inkscape.org/namespaces/inkscape"
   enable-background="new 0 0 91 91"
   height="91px"
   id="Layer_1"
   version="1.1"
   viewBox="0 0 91 91"
   width="91px"
   xml:space="preserve"
   sodipodi:docname="news.svg"
   inkscape:version="0.92.4 (5da689c313, 2019-01-14)"><metadata
     id="metadata25"><rdf:RDF><cc:Work
         rdf:about=""><dc:format>image/svg+xml</dc:format><dc:type
           rdf:resource="http://purl.org/dc/dcmitype/StillImage" /></cc:Work></rdf:RDF></metadata><defs
     id="defs23" /><sodipodi:namedview
     pagecolor="#ffffff"
     bordercolor="#666666"
     borderopacity="1"
     objecttolerance="10"
     gridtolerance="10"
     guidetolerance="10"
     inkscape:pageopacity="0"
     inkscape:pageshadow="2"
     inkscape:window-width="2498"
     inkscape:window-height="1417"
     id="namedview21"
     showgrid="false"
     inkscape:zoom="5.1868132"
     inkscape:cx="68.429331"
     inkscape:cy="37.170018"
     inkscape:window-x="54"
     inkscape:window-y="-8"
     inkscape:window-maximized="1"
     inkscape:current-layer="layer3" /><g
     inkscape:groupmode="layer"
     id="layer1"
     inkscape:label="Background"><rect
       style="display:inline;fill:#eff2f5;fill-opacity:0.29411765;stroke:none;stroke-width:3.83391452;stroke-miterlimit:4;stroke-dasharray:none;stroke-opacity:1"
       id="rect4561"
       width="91.363281"
       height="91.226944"
       x="0.011155879"
       y="0.079325192" /></g><g
     inkscape:groupmode="layer"
     id="layer2"
     inkscape:label="Icon"><g
       style="fill:#ffffff;fill-opacity:1"
       id="g18"
       transform="translate(0,-9.857)"><rect
         height="3.4000001"
         transform="matrix(-0.9664,-0.257,0.257,-0.9664,56.1055,94.5026)"
         width="13.779"
         x="27.34"
         y="41.883999"
         id="rect2"
         style="fill:#ffffff;fill-opacity:1" /><rect
         height="3.3989999"
         transform="matrix(-0.9664,-0.257,0.257,-0.9664,53.5641,113.9443)"
         width="13.779"
         x="27.34"
         y="51.771999"
         id="rect4"
         style="fill:#ffffff;fill-opacity:1" /><rect
         height="13.781"
         transform="matrix(-0.2568,-0.9665,0.9665,-0.2568,39.0773,100.8443)"
         width="3.4000001"
         x="56.612999"
         y="28.507"
         id="rect6"
         style="fill:#ffffff;fill-opacity:1" /><rect
         height="13.781"
         transform="matrix(-0.2568,-0.9665,0.9665,-0.2568,30.6195,111.8472)"
         width="3.3989999"
         x="56.612999"
         y="37.261002"
         id="rect8"
         style="fill:#ffffff;fill-opacity:1" /><rect
         height="13.782"
         transform="matrix(-0.2568,-0.9665,0.9665,-0.2568,22.1599,122.8486)"
         width="3.3989999"
         x="56.612999"
         y="46.014"
         id="rect10"
         style="fill:#ffffff;fill-opacity:1" /><rect
         height="5.1009998"
         transform="matrix(-0.2568,-0.9665,0.9665,-0.2568,20.044,136.4991)"
         width="3.4000001"
         x="60.806999"
         y="57.992001"
         id="rect12"
         style="fill:#ffffff;fill-opacity:1" /><rect
         height="5.099"
         transform="matrix(-0.2568,-0.9665,0.9665,-0.2568,7.3481,131.1992)"
         width="3.3989999"
         x="52.417999"
         y="60.224998"
         id="rect14"
         style="fill:#ffffff;fill-opacity:1" /><path
         d="m 20.891,66.916 24.934,6.801 c 0.146,0.039 0.297,0.06 0.447,0.06 0.148,0 0.299,-0.021 0.445,-0.06 l 24.934,-6.801 c 0.74,-0.201 1.254,-0.873 1.254,-1.64 V 22.492 c 0,-0.529 -0.248,-1.029 -0.668,-1.351 -0.42,-0.32 -0.971,-0.427 -1.479,-0.289 L 46.271,27.53 21.783,20.852 c -0.504,-0.138 -1.057,-0.031 -1.479,0.289 -0.42,0.322 -0.668,0.822 -0.668,1.351 v 42.784 c 0.001,0.767 0.514,1.439 1.255,1.64 z M 47.971,30.59 69.504,24.717 V 63.978 L 47.971,69.85 Z M 23.037,24.718 44.57,30.59 V 69.85 L 23.037,63.978 Z"
         id="path16"
         style="fill:#ffffff;fill-opacity:1"
         inkscape:connector-curvature="0" /></g></g><g
     inkscape:groupmode="layer"
     id="layer3"
     inkscape:label="Text"><text
       xml:space="preserve"
       style="font-style:normal;font-weight:normal;font-size:16px;line-height:1.25;font-family:sans-serif;letter-spacing:0px;word-spacing:0px;fill:#ffffff;fill-opacity:1;stroke:none;stroke-width:0.80135232"
       x="7.4977083"
       y="84.420479"
       id="text4583"><tspan
         sodipodi:role="line"
         id="tspan4581"
         x="7.4977083"
         y="84.420479"
         style="font-size:14.66666698px;line-height:1.25;fill:#ffffff;fill-opacity:1;stroke-width:0.80135232">Aktualności</tspan></text>
</g></svg>