<?xml version="1.0" encoding="UTF-8" standalone="no"?>
<!DOCTYPE svg PUBLIC "-//W3C//DTD SVG 1.1//EN" "http://www.w3.org/Graphics/SVG/1.1/DTD/svg11.dtd">
<svg width="100%" height="100%" viewBox="0 0 540 530" version="1.1" xmlns="http://www.w3.org/2000/svg" xmlns:xlink="http://www.w3.org/1999/xlink" xml:space="preserve" xmlns:serif="http://www.serif.com/" style="fill-rule:evenodd;clip-rule:evenodd;stroke-linecap:round;stroke-miterlimit:1.5;">
    <g transform="matrix(1,0,0,1,-800,-100)">
        <g id="project-icon" transform="matrix(1,0,0,1,670,2.84217e-13)">
            <g transform="matrix(1.25581,0,0,1.10417,-108.605,-43.5417)">
                <path d="M620,167.737C620,146.909 605.132,130 586.82,130L223.18,130C204.868,130 190,146.909 190,167.737L190,572.263C190,593.091 204.868,610 223.18,610L586.82,610C605.132,610 620,593.091 620,572.263L620,167.737Z" style="fill:rgb(191,191,191);fill-opacity:0.51;"/>
            </g>
            <g transform="matrix(0.92428,0,0,0.992441,20.4294,-14.057)">
                <rect x="194.281" y="175.383" width="275.719" height="349.793" style="fill:white;stroke:black;stroke-width:15.64px;"/>
            </g>
            <g transform="matrix(1,0,0,1,-670,-2.84217e-13)">
                <path d="M1104.75,370.702C1109.57,370.145 1124.5,372.615 1133.66,369.623C1162.03,360.363 1166.09,357.907 1182.67,357.058C1200.31,356.155 1214.7,355.578 1239.52,364.205C1241.23,364.799 1245.38,364.998 1245.89,374.415C1246.03,377.039 1274.97,420.565 1279.71,517.359C1281.29,549.675 1277.14,570.061 1251.28,572.495C1232.92,574.223 1223.12,570.36 1192.47,537.78C1163.24,506.704 1162.28,497.351 1104.75,494.917C1047.22,497.351 1046.26,506.704 1017.02,537.78C986.373,570.36 976.579,574.223 958.214,572.495C932.36,570.061 928.21,549.675 929.79,517.359C934.522,420.565 963.462,377.039 963.605,374.415C964.121,364.998 968.266,364.799 969.976,364.205C994.799,355.578 1009.18,356.155 1026.83,357.058C1043.41,357.907 1047.47,360.363 1075.83,369.623C1085,372.615 1099.92,370.145 1104.75,370.702Z"/>
            </g>
            <g transform="matrix(0.970703,-0.0707955,0.0257476,0.383088,-1.5002,235.954)">
                <path d="M369.606,363.109C368.317,358.66 364.359,346.847 359.98,345.338C351.642,342.465 323.173,342.127 319.647,343.215C315.796,344.403 313.239,351.353 312.261,355.177C310.093,363.66 306.847,387.964 306.568,396.768C306.442,400.743 307.504,408 310.588,408L366.412,408C369.496,408 374.136,405.544 373.611,402.478C372.605,396.612 371.919,371.088 369.606,363.109Z" style="fill:white;stroke:black;stroke-width:17.61px;"/>
            </g>
            <g transform="matrix(-0.970703,-0.0707955,-0.0257476,0.383088,870.996,235.954)">
                <path d="M369.606,363.109C368.317,358.66 364.359,346.847 359.98,345.338C351.642,342.465 323.173,342.127 319.647,343.215C315.796,344.403 313.239,351.353 312.261,355.177C310.093,363.66 306.847,387.964 306.568,396.768C306.442,400.743 307.504,408 310.588,408L366.412,408C369.496,408 374.136,405.544 373.611,402.478C372.605,396.612 371.919,371.088 369.606,363.109Z" style="fill:white;stroke:black;stroke-width:17.61px;"/>
            </g>
            <g>
                <g transform="matrix(0.490079,0,0,1.02103,160.794,-23.7847)">
                    <path d="M380,419.6C380,414.301 371.038,410 360,410C348.962,410 340,414.301 340,419.6L340,480.4C340,485.699 348.962,490 360,490C371.038,490 380,485.699 380,480.4L380,419.6Z" style="fill:white;"/>
                </g>
                <g transform="matrix(3.00087e-17,-0.510513,0.980159,6.25198e-17,-103.849,619.462)">
                    <path d="M380,420.417C380,414.668 371.038,410 360,410C348.962,410 340,414.668 340,420.417L340,479.583C340,485.332 348.962,490 360,490C371.038,490 380,485.332 380,479.583L380,420.417Z" style="fill:white;"/>
                </g>
                <g transform="matrix(1.47024,0,0,1.53154,-231.27,-227.99)">
                    <circle cx="490" cy="430" r="10" style="fill:white;"/>
                </g>
                <g transform="matrix(1.47024,0,0,1.53154,-201.865,-258.621)">
                    <circle cx="490" cy="430" r="10" style="fill:white;"/>
                </g>
                <g transform="matrix(1.47024,0,0,1.53154,-172.46,-227.99)">
                    <circle cx="490" cy="430" r="10" style="fill:white;"/>
                </g>
                <g transform="matrix(1.47024,0,0,1.53154,-201.865,-197.359)">
                    <circle cx="490" cy="430" r="10" style="fill:white;"/>
                </g>
            </g>
        </g>
    </g>
</svg>
