<?xml version="1.0" encoding="UTF-8" standalone="no"?>
<!DOCTYPE svg PUBLIC "-//W3C//DTD SVG 1.1//EN" "http://www.w3.org/Graphics/SVG/1.1/DTD/svg11.dtd">
<svg width="100%" height="100%" viewBox="0 0 540 530" version="1.1" xmlns="http://www.w3.org/2000/svg" xmlns:xlink="http://www.w3.org/1999/xlink" xml:space="preserve" xmlns:serif="http://www.serif.com/" style="fill-rule:evenodd;clip-rule:evenodd;stroke-linecap:round;stroke-miterlimit:1.5;">
    <g transform="matrix(1,0,0,1,-800,-100)">
        <g id="project-icon" transform="matrix(1,0,0,1,670,2.84217e-13)">
            <g transform="matrix(1.25581,0,0,1.10417,-108.605,-43.5417)">
                <path d="M620,167.737C620,146.909 605.132,130 586.82,130L223.18,130C204.868,130 190,146.909 190,167.737L190,572.263C190,593.091 204.868,610 223.18,610L586.82,610C605.132,610 620,593.091 620,572.263L620,167.737Z" style="fill:rgb(191,191,191);fill-opacity:0.51;"/>
            </g>
            <g transform="matrix(0.92428,0,0,0.992441,20.4294,-14.057)">
                <rect x="194.281" y="175.383" width="275.719" height="349.793" style="fill:white;stroke:black;stroke-width:15.64px;"/>
            </g>
            <g transform="matrix(1.01117,0,0,1.45861,-14.5179,-277.583)">
                <path d="M444.786,444.505C440.619,443.943 425.104,445.841 415.706,443.714C387.653,437.366 383.638,435.682 367.239,435.1C349.792,434.481 335.567,434.085 311.018,440C309.328,440.407 305.228,440.543 304.718,447C304.576,448.799 275.956,478.64 271.276,545C269.714,567.156 273.818,581.131 299.387,582.8C317.548,583.985 327.234,581.337 357.546,559C386.54,537.635 387.415,531.247 444.786,529.6"/>
            </g>
            <g transform="matrix(0.970703,-0.0707955,0.0257476,0.383088,-1.5002,235.954)">
                <path d="M369.606,363.109C368.317,358.66 364.359,346.847 359.98,345.338C351.642,342.465 323.173,342.127 319.647,343.215C315.796,344.403 313.239,351.353 312.261,355.177C310.093,363.66 306.847,387.964 306.568,396.768C306.442,400.743 307.504,408 310.588,408L366.412,408C369.496,408 374.136,405.544 373.611,402.478C372.605,396.612 371.919,371.088 369.606,363.109Z" style="fill:white;stroke:black;stroke-width:17.61px;"/>
            </g>
            <g transform="matrix(-1.01117,0,0,1.45861,884.014,-277.583)">
                <path d="M444.786,444.505C440.619,443.943 425.104,445.841 415.706,443.714C387.653,437.366 383.638,435.682 367.239,435.1C349.792,434.481 335.567,434.085 311.018,440C309.328,440.407 305.228,440.543 304.718,447C304.576,448.799 275.956,478.64 271.276,545C269.714,567.156 273.818,581.131 299.387,582.8C317.548,583.985 327.234,581.337 357.546,559C386.54,537.635 387.415,531.247 444.786,529.6"/>
            </g>
            <g transform="matrix(-0.970703,-0.0707955,-0.0257476,0.383088,870.996,235.954)">
                <path d="M369.606,363.109C368.317,358.66 364.359,346.847 359.98,345.338C351.642,342.465 323.173,342.127 319.647,343.215C315.796,344.403 313.239,351.353 312.261,355.177C310.093,363.66 306.847,387.964 306.568,396.768C306.442,400.743 307.504,408 310.588,408L366.412,408C369.496,408 374.136,405.544 373.611,402.478C372.605,396.612 371.919,371.088 369.606,363.109Z" style="fill:white;stroke:black;stroke-width:17.61px;"/>
            </g>
            <g>
                <g transform="matrix(0.490079,0,0,1.02103,160.794,-23.7847)">
                    <path d="M380,419.6C380,414.301 371.038,410 360,410C348.962,410 340,414.301 340,419.6L340,480.4C340,485.699 348.962,490 360,490C371.038,490 380,485.699 380,480.4L380,419.6Z" style="fill:white;"/>
                </g>
                <g transform="matrix(3.00087e-17,-0.510513,0.980159,6.25198e-17,-103.849,619.462)">
                    <path d="M380,420.417C380,414.668 371.038,410 360,410C348.962,410 340,414.668 340,420.417L340,479.583C340,485.332 348.962,490 360,490C371.038,490 380,485.332 380,479.583L380,420.417Z" style="fill:white;"/>
                </g>
                <g transform="matrix(1.47024,0,0,1.53154,-231.27,-227.99)">
                    <circle cx="490" cy="430" r="10" style="fill:white;"/>
                </g>
                <g transform="matrix(1.47024,0,0,1.53154,-201.865,-258.621)">
                    <circle cx="490" cy="430" r="10" style="fill:white;"/>
                </g>
                <g transform="matrix(1.47024,0,0,1.53154,-172.46,-227.99)">
                    <circle cx="490" cy="430" r="10" style="fill:white;"/>
                </g>
                <g transform="matrix(1.47024,0,0,1.53154,-201.865,-197.359)">
                    <circle cx="490" cy="430" r="10" style="fill:white;"/>
                </g>
            </g>
        </g>
    </g>
</svg>
