<?xml version="1.0" encoding="UTF-8" standalone="no"?>
<svg
   xmlns:dc="http://purl.org/dc/elements/1.1/"
   xmlns:cc="http://creativecommons.org/ns#"
   xmlns:rdf="http://www.w3.org/1999/02/22-rdf-syntax-ns#"
   xmlns:svg="http://www.w3.org/2000/svg"
   xmlns="http://www.w3.org/2000/svg"
   xmlns:sodipodi="http://sodipodi.sourceforge.net/DTD/sodipodi-0.dtd"
   xmlns:inkscape="http://www.inkscape.org/namespaces/inkscape"
   enable-background="new 0 0 91 91"
   height="91px"
   id="Layer_1"
   version="1.1"
   viewBox="0 0 91 91"
   width="91px"
   xml:space="preserve"
   sodipodi:docname="projects.svg"
   inkscape:version="0.92.4 (5da689c313, 2019-01-14)"><metadata
     id="metadata29"><rdf:RDF><cc:Work
         rdf:about=""><dc:format>image/svg+xml</dc:format><dc:type
           rdf:resource="http://purl.org/dc/dcmitype/StillImage" /></cc:Work></rdf:RDF></metadata><defs
     id="defs27" /><sodipodi:namedview
     pagecolor="#ffffff"
     bordercolor="#666666"
     borderopacity="1"
     objecttolerance="10"
     gridtolerance="10"
     guidetolerance="10"
     inkscape:pageopacity="0"
     inkscape:pageshadow="2"
     inkscape:window-width="2498"
     inkscape:window-height="1417"
     id="namedview25"
     showgrid="false"
     inkscape:zoom="5.1868132"
     inkscape:cx="74.977767"
     inkscape:cy="29.138718"
     inkscape:window-x="54"
     inkscape:window-y="-8"
     inkscape:window-maximized="1"
     inkscape:current-layer="layer3" /><g
     inkscape:groupmode="layer"
     id="layer1"
     inkscape:label="Background"><rect
       style="display:inline;fill:#eff2f5;fill-opacity:0.29411765;stroke:none;stroke-width:3.83391452;stroke-miterlimit:4;stroke-dasharray:none;stroke-opacity:1"
       id="rect4561"
       width="91.363281"
       height="91.226944"
       x="0.011155186"
       y="0.079324611" /></g><g
     inkscape:groupmode="layer"
     id="layer2"
     inkscape:label="Icon"><g
       id="g22"
       transform="translate(0.843,-8.018)"
       style="fill:#ffffff;fill-opacity:1"><path
         d="m 44.137,37.69 c 0,-3.664 -2.979,-6.645 -6.641,-6.645 -3.666,0 -6.648,2.98 -6.648,6.645 0,3.665 2.982,6.646 6.648,6.646 3.662,0.001 6.641,-2.982 6.641,-6.646 z m -9.889,0 c 0,-1.789 1.455,-3.246 3.248,-3.246 1.787,0 3.242,1.457 3.242,3.246 0,1.789 -1.455,3.246 -3.242,3.246 -1.793,10e-4 -3.248,-1.457 -3.248,-3.246 z"
         id="path2"
         inkscape:connector-curvature="0"
         style="fill:#ffffff;fill-opacity:1" /><rect
         height="2.77"
         width="3.4000001"
         x="35.794998"
         y="26.812"
         id="rect4"
         style="fill:#ffffff;fill-opacity:1" /><rect
         height="3.4000001"
         width="2.77"
         x="45.605"
         y="35.991001"
         id="rect6"
         style="fill:#ffffff;fill-opacity:1" /><rect
         height="2.77"
         width="3.4000001"
         x="35.794998"
         y="45.799999"
         id="rect8"
         style="fill:#ffffff;fill-opacity:1" /><rect
         height="3.4000001"
         width="2.7679999"
         x="26.615"
         y="35.991001"
         id="rect10"
         style="fill:#ffffff;fill-opacity:1" /><rect
         height="2.7679999"
         transform="matrix(0.7071,0.7071,-0.7071,0.7071,34.8533,-22.1864)"
         width="3.4000001"
         x="42.507999"
         y="29.594999"
         id="rect12"
         style="fill:#ffffff;fill-opacity:1" /><rect
         height="3.4000001"
         transform="matrix(-0.7071,-0.7071,0.7071,-0.7071,44.0692,107.0627)"
         width="2.7679999"
         x="42.824001"
         y="42.703999"
         id="rect14"
         style="fill:#ffffff;fill-opacity:1" /><rect
         height="2.7679999"
         transform="matrix(-0.7071,-0.7071,0.7071,-0.7071,21.1466,97.5678)"
         width="3.4000001"
         x="29.08"
         y="43.02"
         id="rect16"
         style="fill:#ffffff;fill-opacity:1" /><rect
         height="3.4000001"
         transform="matrix(0.7075,0.7068,-0.7068,0.7075,30.898,-12.6919)"
         width="2.766"
         x="29.396999"
         y="29.277"
         id="rect18"
         style="fill:#ffffff;fill-opacity:1" /><path
         d="M 70.799,20.919 H 20.494 c -0.451,0 -0.883,0.178 -1.203,0.498 -0.318,0.318 -0.498,0.75 -0.498,1.201 v 47.619 c 0,0.941 0.762,1.701 1.701,1.701 H 65.98 c 3.594,0 6.52,-2.924 6.52,-6.518 v -42.8 c 0,-0.939 -0.76,-1.701 -1.701,-1.701 z M 22.193,68.538 V 67.067 L 37.375,54.8 51.219,68.538 Z M 69.1,65.421 c 0,1.719 -1.4,3.117 -3.119,3.117 H 56.045 L 46.174,58.743 59.59,45.067 69.1,54.801 Z m 0,-15.484 -8.289,-8.486 c -0.32,-0.328 -0.758,-0.514 -1.215,-0.514 h -0.002 c -0.457,0 -0.893,0.184 -1.213,0.51 l -14.621,14.9 -5.07,-5.033 c -0.615,-0.611 -1.592,-0.66 -2.268,-0.115 L 22.193,62.692 V 24.317 L 69.1,24.319 Z"
         id="path20"
         inkscape:connector-curvature="0"
         style="fill:#ffffff;fill-opacity:1" /></g></g><g
     inkscape:groupmode="layer"
     id="layer3"
     inkscape:label="Text"><text
       xml:space="preserve"
       style="font-style:normal;font-weight:normal;font-size:16px;line-height:1.25;font-family:sans-serif;letter-spacing:0px;word-spacing:0px;fill:#ffffff;fill-opacity:1;stroke:none;stroke-width:0.80135232"
       x="19.497803"
       y="84.419998"
       id="text4583"><tspan
         sodipodi:role="line"
         x="19.497803"
         y="84.419998"
         style="font-size:14.66666698px;line-height:1.25;fill:#ffffff;fill-opacity:1;stroke-width:0.80135232"
         id="tspan864">Projekty</tspan></text>
</g></svg>