<?xml version="1.0" encoding="UTF-8" standalone="no"?>
<svg
   xmlns:dc="http://purl.org/dc/elements/1.1/"
   xmlns:cc="http://creativecommons.org/ns#"
   xmlns:rdf="http://www.w3.org/1999/02/22-rdf-syntax-ns#"
   xmlns:svg="http://www.w3.org/2000/svg"
   xmlns="http://www.w3.org/2000/svg"
   xmlns:sodipodi="http://sodipodi.sourceforge.net/DTD/sodipodi-0.dtd"
   xmlns:inkscape="http://www.inkscape.org/namespaces/inkscape"
   viewBox="0 0 448 512"
   version="1.1"
   id="svg4"
   sodipodi:docname="book-solid.svg"
   inkscape:version="0.92.4 (5da689c313, 2019-01-14)">
  <metadata
     id="metadata10">
    <rdf:RDF>
      <cc:Work
         rdf:about="">
        <dc:format>image/svg+xml</dc:format>
        <dc:type
           rdf:resource="http://purl.org/dc/dcmitype/StillImage" />
      </cc:Work>
    </rdf:RDF>
  </metadata>
  <defs
     id="defs8" />
  <sodipodi:namedview
     pagecolor="#ffffff"
     bordercolor="#666666"
     borderopacity="1"
     objecttolerance="10"
     gridtolerance="10"
     guidetolerance="10"
     inkscape:pageopacity="0"
     inkscape:pageshadow="2"
     inkscape:window-width="2498"
     inkscape:window-height="1417"
     id="namedview6"
     showgrid="false"
     inkscape:zoom="0.4609375"
     inkscape:cx="-145.89831"
     inkscape:cy="256"
     inkscape:window-x="54"
     inkscape:window-y="-8"
     inkscape:window-maximized="1"
     inkscape:current-layer="svg4" />
  <!--! Font Awesome Pro 6.1.1 by @fontawesome - https://fontawesome.com License - https://fontawesome.com/license (Commercial License) Copyright 2022 Fonticons, Inc. -->
  <path
     d="M 332,298 V 154 c 0,-13.255 -10.75,-24 -24,-24 H 156 c -26.51,0 -48,21.49 -48,48 v 160 c 0,26.51 21.49,48 48,48 h 160 c 8.835,0 16,-7.165 16,-15.55 0,-5.86 -3.3035,-10.76 -8,-13.55 v -40.68 c 4.9,-4.82 8,-11.12 8,-18.22 z M 179.55,194 h 96 c 4.85,0 8.45,3.6 8.45,8 0,4.4 -3.6,8 -8,8 h -96.45 c -3.95,0 -7.55,-3.6 -7.55,-8 0,-4.4 3.6,-8 7.55,-8 z m 0,32 h 96 c 4.85,0 8.45,3.6 8.45,8 0,4.4 -3.6,8 -8,8 h -96.45 c -3.95,0 -7.55,-3.6 -7.55,-8 0,-4.4 3.6,-8 7.55,-8 z M 300,354 H 156 c -8.835,0 -16,-7.165 -16,-16 0,-8.835 7.165,-16 16,-16 h 144 z"
     id="path2"
     style="fill:#ffffff;fill-opacity:1;stroke-width:0.5"
     inkscape:connector-curvature="0" />
</svg>
