<?xml version="1.0" encoding="utf-8"?>
<!-- Generator: Adobe Illustrator 26.0.1, SVG Export Plug-In . SVG Version: 6.00 Build 0)  -->
<svg version="1.1" id="Layer_2" xmlns="http://www.w3.org/2000/svg" xmlns:xlink="http://www.w3.org/1999/xlink" x="0px" y="0px"
	 viewBox="0 0 192 93.1" style="enable-background:new 0 0 192 93.1;" xml:space="preserve">
<style type="text/css">
	.st0{fill:url(#SVGID_1_);}
	.st1{fill:url(#SVGID_00000028282710138745386880000003914237824884893575_);}
	.st2{fill:url(#SVGID_00000063624165284611446140000002478442096263718017_);}
	.st3{fill:url(#SVGID_00000109717375024550170060000004393843715361078924_);}
	.st4{fill:url(#SVGID_00000013181202662810892440000006566815791377782913_);}
</style>
<g>
	
		<linearGradient id="SVGID_1_" gradientUnits="userSpaceOnUse" x1="96.0001" y1="63.9493" x2="96.0001" y2="4.5153" gradientTransform="matrix(1 0 0 -1 0 96)">
		<stop  offset="0" style="stop-color:#51BBEB"/>
		<stop  offset="1" style="stop-color:#9563BF"/>
	</linearGradient>
	<path class="st0" d="M139.1,0.1c-39.9,0-58.2,31.4-76.7,54.1c-8.1,9.4-17.3,22.5-30.8,22.9c-8.7,0-15.8-7.1-15.8-15.8
		s7.1-15.8,15.8-15.8s15.8,7.1,15.8,15.8c0,1.1-0.1,2.2-0.3,3.2c4.3-4.1,8.8-9.6,13.6-15.6c-4.8-11.3-16-19.3-29.1-19.3
		C14.2,29.7,0,43.9,0,61.4S14.2,93,31.6,93c48.3,0,49.9-77.1,107.5-77.1c28,0,40,20.8,35.5,38.3c0.5,2.3,0.7,4.7,0.7,7.2
		c0,12.2-6,23-15.3,29.6l0,0C215.2,64.4,192.9,0.1,139.1,0.1z"/>
	
		<linearGradient id="SVGID_00000011737509293033822720000010878183336340492948_" gradientUnits="userSpaceOnUse" x1="81.6168" y1="50.073" x2="203.6177" y2="36.5427" gradientTransform="matrix(1 0 0 -1 0 96)">
		<stop  offset="0" style="stop-color:#51BBEB;stop-opacity:0"/>
		<stop  offset="2.550000e-02" style="stop-color:#59B8EA;stop-opacity:2.550000e-02"/>
		<stop  offset="0.1902" style="stop-color:#86A6E7;stop-opacity:0.1902"/>
		<stop  offset="0.356" style="stop-color:#AB98E4;stop-opacity:0.356"/>
		<stop  offset="0.5206" style="stop-color:#C88DE2;stop-opacity:0.5206"/>
		<stop  offset="0.6835" style="stop-color:#DC84E0;stop-opacity:0.6835"/>
		<stop  offset="0.8442" style="stop-color:#E980DF;stop-opacity:0.8442"/>
		<stop  offset="1" style="stop-color:#ED7EDF"/>
	</linearGradient>
	<path style="fill:url(#SVGID_00000011737509293033822720000010878183336340492948_);" d="M31.6,93c48.3,0,49.9-77.1,107.5-77.1
		c28,0,40,20.8,35.5,38.3c0.5,2.3,0.7,4.7,0.7,7.2c0,12.2-6,23-15.3,29.6l0,0c55.2-26.5,32.9-90.8-20.9-90.8
		c-39.9,0-58.2,31.4-76.7,54.1c-8.1,9.4-17.3,22.5-30.8,22.9"/>
	
		<linearGradient id="SVGID_00000181089497232040060980000013862267491128611256_" gradientUnits="userSpaceOnUse" x1="139.0897" y1="66.2538" x2="139.0897" y2="3.0203" gradientTransform="matrix(1 0 0 -1 0 96)">
		<stop  offset="0" style="stop-color:#51BBEB"/>
		<stop  offset="1" style="stop-color:#9563BF"/>
	</linearGradient>
	<path style="fill:url(#SVGID_00000181089497232040060980000013862267491128611256_);" d="M139.1,29.7c-17.5,0-31.6,14.2-31.6,31.6
		S121.6,93,139.1,93s31.6-14.2,31.6-31.6S156.6,29.7,139.1,29.7z M139.1,77.2c-8.7,0-15.8-7.1-15.8-15.8s7.1-15.8,15.8-15.8
		c8.7,0,15.8,7.1,15.8,15.8S147.8,77.2,139.1,77.2z"/>
	
		<radialGradient id="SVGID_00000163792413464366428120000009707477500759410604_" cx="139.0897" cy="34.6371" r="21.5313" fx="139.2252" fy="42.3807" gradientTransform="matrix(1 0 0 -1 0 96)" gradientUnits="userSpaceOnUse">
		<stop  offset="0.3211" style="stop-color:#ED7EDF;stop-opacity:0.8"/>
		<stop  offset="0.5118" style="stop-color:#EA7DDE;stop-opacity:0.5736"/>
		<stop  offset="0.6448" style="stop-color:#E17ADB;stop-opacity:0.4157"/>
		<stop  offset="0.7603" style="stop-color:#D276D5;stop-opacity:0.2786"/>
		<stop  offset="0.8657" style="stop-color:#BC6FCD;stop-opacity:0.1535"/>
		<stop  offset="0.9635" style="stop-color:#A066C3;stop-opacity:3.740000e-02"/>
		<stop  offset="0.995" style="stop-color:#9563BF;stop-opacity:0"/>
	</radialGradient>
	<path style="fill:url(#SVGID_00000163792413464366428120000009707477500759410604_);" d="M139.1,39.2c-12.2,0-22.2,9.9-22.2,22.2
		s9.9,22.2,22.2,22.2s22.2-9.9,22.2-22.2S151.3,39.2,139.1,39.2z M139.1,77.2c-8.7,0-15.8-7.1-15.8-15.8s7.1-15.8,15.8-15.8
		c8.7,0,15.8,7.1,15.8,15.8S147.8,77.2,139.1,77.2z"/>
	
		<linearGradient id="SVGID_00000163761187826326534010000013518880004654525349_" gradientUnits="userSpaceOnUse" x1="139.0897" y1="44.2046" x2="139.0897" y2="25.0696" gradientTransform="matrix(1 0 0 -1 0 96)">
		<stop  offset="0" style="stop-color:#EDA4DF"/>
		<stop  offset="0.2656" style="stop-color:#EA9ADF"/>
		<stop  offset="1" style="stop-color:#E380DE"/>
	</linearGradient>
	<circle style="fill:url(#SVGID_00000163761187826326534010000013518880004654525349_);" cx="139.1" cy="61.4" r="9.6"/>
</g>
</svg>
