<?xml version="1.0" encoding="UTF-8" standalone="no"?>
<!-- Created with Inkscape (http://www.inkscape.org/) -->

<svg
   xmlns:dc="http://purl.org/dc/elements/1.1/"
   xmlns:cc="http://creativecommons.org/ns#"
   xmlns:rdf="http://www.w3.org/1999/02/22-rdf-syntax-ns#"
   xmlns:svg="http://www.w3.org/2000/svg"
   xmlns="http://www.w3.org/2000/svg"
   xmlns:xlink="http://www.w3.org/1999/xlink"
   xmlns:sodipodi="http://sodipodi.sourceforge.net/DTD/sodipodi-0.dtd"
   xmlns:inkscape="http://www.inkscape.org/namespaces/inkscape"
   width="192.0002"
   height="93.086998"
   viewBox="0 0 50.800052 24.629268"
   version="1.1"
   id="svg8"
   inkscape:version="0.92.4 (5da689c313, 2019-01-14)"
   sodipodi:docname="fo-icon.svg"
   inkscape:export-filename="C:\Users\frank\Pictures\Flying Octopus\fo-432.png"
   inkscape:export-xdpi="18.014534"
   inkscape:export-ydpi="18.014534">
  <defs
     id="defs2">
    <style
       id="style3713">.cls-1{fill:#fff;}</style>
    <linearGradient
       gradientUnits="userSpaceOnUse"
       y2="153.66771"
       x2="1318.4832"
       y1="358.9697"
       x1="1318.4832"
       data-name="Gradient bez nazwy 16"
       id="Gradient_bez_nazwy_16">
      <stop
         id="stop3772"
         stop-color="#9562bf"
         offset="0" />
      <stop
         id="stop3774"
         stop-color="#78c3e7"
         offset="1" />
    </linearGradient>
    <linearGradient
       xlink:href="#Gradient_bez_nazwy_16"
       y2="153.66771"
       x2="1245.5985"
       y1="358.9697"
       x1="1245.5985"
       id="Gradient_bez_nazwy_16-2" />
    <linearGradient
       xlink:href="#Gradient_bez_nazwy_16"
       y2="153.66771"
       x2="1181.1755"
       y1="358.9697"
       x1="1181.1755"
       id="Gradient_bez_nazwy_16-3" />
    <linearGradient
       xlink:href="#Gradient_bez_nazwy_16"
       y2="153.66771"
       x2="1245.6311"
       y1="358.9697"
       x1="1245.6311"
       id="Gradient_bez_nazwy_16-4" />
    <linearGradient
       xlink:href="#Gradient_bez_nazwy_16"
       y2="145.77518"
       x2="504.61493"
       y1="340.1062"
       x1="504.61493"
       id="Gradient_bez_nazwy_16-5" />
    <linearGradient
       xlink:href="#Gradient_bez_nazwy_16"
       y2="79.095497"
       x2="514.93726"
       y1="79.095497"
       x1="418.758"
       id="Gradient_bez_nazwy_16-6" />
    <linearGradient
       gradientUnits="userSpaceOnUse"
       y2="73.010422"
       x2="114.82565"
       y1="328.85364"
       x1="114.82565"
       data-name="Gradient bez nazwy 508"
       id="Gradient_bez_nazwy_508">
      <stop
         id="stop3782"
         stop-color="#9562bf"
         offset="0" />
      <stop
         id="stop3784"
         stop-color="#73eaff"
         offset="0.86591" />
    </linearGradient>
    <linearGradient
       xlink:href="#Gradient_bez_nazwy_16"
       y2="133.48254"
       x2="112.24831"
       y1="389.32578"
       x1="112.24831"
       id="Gradient_bez_nazwy_16-7" />
    <linearGradient
       xlink:href="#Gradient_bez_nazwy_16"
       y2="118.01382"
       x2="112.24831"
       y1="373.85703"
       x1="112.24831"
       id="Gradient_bez_nazwy_16-8" />
    <linearGradient
       xlink:href="#Gradient_bez_nazwy_508"
       y2="39.856419"
       x2="775.76251"
       y1="297.37442"
       x1="775.76251"
       data-name="Gradient bez nazwy 517"
       id="Gradient_bez_nazwy_517" />
    <linearGradient
       xlink:href="#Gradient_bez_nazwy_16"
       y2="252.44736"
       x2="904.7453"
       y1="252.44736"
       x1="647.22723"
       id="Gradient_bez_nazwy_16-9" />
    <linearGradient
       xlink:href="#Gradient_bez_nazwy_16"
       y2="127.34311"
       x2="775.76105"
       y1="384.86118"
       x1="775.76105"
       id="Gradient_bez_nazwy_16-10" />
    <linearGradient
       xlink:href="#Gradient_bez_nazwy_16"
       y2="192.202"
       x2="971.86035"
       y1="284.89023"
       x1="971.86035"
       id="Gradient_bez_nazwy_16-11" />
    <linearGradient
       xlink:href="#Gradient_bez_nazwy_508"
       y2="80.185989"
       x2="1069.1281"
       y1="287.77951"
       x1="1069.1281"
       id="Gradient_bez_nazwy_508-2" />
    <linearGradient
       gradientUnits="userSpaceOnUse"
       y2="163.73679"
       x2="1047.9254"
       y1="371.33029"
       x1="1047.9254"
       data-name="Gradient bez nazwy 18"
       id="Gradient_bez_nazwy_18">
      <stop
         id="stop3794"
         stop-color="#9562bf"
         offset="0" />
      <stop
         id="stop3796"
         stop-color="#8791d2"
         offset="0.48254" />
      <stop
         id="stop3798"
         stop-color="#78c3e7"
         offset="1" />
    </linearGradient>
    <linearGradient
       xlink:href="#Gradient_bez_nazwy_508"
       y2="84.776932"
       x2="1419.3328"
       y1="278.81055"
       x1="1419.3328"
       id="Gradient_bez_nazwy_508-3" />
    <linearGradient
       xlink:href="#Gradient_bez_nazwy_16"
       y2="145.35841"
       x2="1454.0629"
       y1="339.39203"
       x1="1454.0629"
       id="Gradient_bez_nazwy_16-12" />
    <linearGradient
       gradientUnits="userSpaceOnUse"
       y2="133.24213"
       x2="1381.0132"
       y1="327.27573"
       x1="1381.0132"
       data-name="Gradient bez nazwy 475"
       id="Gradient_bez_nazwy_475">
      <stop
         id="stop3803"
         stop-color="#9562bf"
         offset="0" />
      <stop
         id="stop3805"
         stop-color="#8b82cc"
         offset="1" />
      <stop
         id="stop3807"
         stop-color="#78c3e7"
         offset="1" />
    </linearGradient>
    <linearGradient
       xlink:href="#Gradient_bez_nazwy_16"
       y2="160.82715"
       x2="1414.537"
       y1="354.86075"
       x1="1414.537"
       id="Gradient_bez_nazwy_16-13" />
    <linearGradient
       xlink:href="#Gradient_bez_nazwy_16"
       y2="145.35841"
       x2="1414.537"
       y1="339.39203"
       x1="1414.537"
       id="Gradient_bez_nazwy_16-14" />
    <linearGradient
       xlink:href="#Gradient_bez_nazwy_16"
       y2="138.19897"
       x2="1318.4528"
       y1="343.50098"
       x1="1318.4528"
       id="Gradient_bez_nazwy_16-15" />
    <linearGradient
       xlink:href="#Gradient_bez_nazwy_16"
       y2="138.19897"
       x2="1137.8499"
       y1="343.50098"
       x1="1137.8499"
       id="Gradient_bez_nazwy_16-16" />
    <linearGradient
       xlink:href="#Gradient_bez_nazwy_16"
       y2="138.19897"
       x2="1245.6282"
       y1="343.50098"
       x1="1245.6282"
       id="Gradient_bez_nazwy_16-17" />
    <linearGradient
       xlink:href="#Gradient_bez_nazwy_508"
       y2="83.387154"
       x2="1282.0448"
       y1="288.68915"
       x1="1282.0448"
       id="Gradient_bez_nazwy_508-4" />
    <linearGradient
       xlink:href="#Gradient_bez_nazwy_508"
       y2="82.810188"
       x2="1152.0278"
       y1="288.11218"
       x1="1152.0278"
       id="Gradient_bez_nazwy_508-5" />
    <linearGradient
       xlink:href="#Gradient_bez_nazwy_475"
       y2="251.2197"
       x2="1213.3992"
       y1="315.69577"
       x1="1213.3992"
       id="Gradient_bez_nazwy_475-2" />
    <linearGradient
       xlink:href="#Gradient_bez_nazwy_18"
       y2="163.73679"
       x2="1122.4385"
       y1="371.33029"
       x1="1122.4385"
       id="Gradient_bez_nazwy_18-2" />
    <linearGradient
       xlink:href="#Gradient_bez_nazwy_16"
       y2="138.19897"
       x2="1122.4385"
       y1="343.50098"
       x1="1122.4385"
       id="Gradient_bez_nazwy_16-18" />
    <linearGradient
       gradientUnits="userSpaceOnUse"
       y2="138.19897"
       x2="1217.2715"
       y1="343.50098"
       x1="1217.2715"
       data-name="Gradient bez nazwy 286"
       id="Gradient_bez_nazwy_286">
      <stop
         id="stop3820"
         stop-color="#9562bf"
         offset="0" />
      <stop
         id="stop3822"
         stop-color="#682da6"
         offset="1" />
    </linearGradient>
    <linearGradient
       xlink:href="#Gradient_bez_nazwy_16"
       y2="153.66771"
       x2="1217.2715"
       y1="358.9697"
       x1="1217.2715"
       id="Gradient_bez_nazwy_16-19" />
    <linearGradient
       xlink:href="#Gradient_bez_nazwy_16"
       y2="130.30646"
       x2="504.67297"
       y1="324.63748"
       x1="504.67297"
       id="Gradient_bez_nazwy_16-20" />
    <linearGradient
       xlink:href="#Gradient_bez_nazwy_16"
       y2="130.30646"
       x2="583.46222"
       y1="324.63748"
       x1="583.46222"
       id="Gradient_bez_nazwy_16-21" />
    <linearGradient
       xlink:href="#Gradient_bez_nazwy_16"
       y2="63.37833"
       x2="601.7218"
       y1="257.70935"
       x1="601.7218"
       id="Gradient_bez_nazwy_16-22" />
    <linearGradient
       xlink:href="#Gradient_bez_nazwy_16"
       y2="145.77518"
       x2="544.05487"
       y1="340.1062"
       x1="544.05487"
       id="Gradient_bez_nazwy_16-23" />
    <linearGradient
       xlink:href="#Gradient_bez_nazwy_16"
       y2="130.30646"
       x2="544.05487"
       y1="324.63748"
       x1="544.05487"
       id="Gradient_bez_nazwy_16-24" />
    <linearGradient
       xlink:href="#Gradient_bez_nazwy_16"
       y2="145.77518"
       x2="638.30524"
       y1="340.1062"
       x1="638.30524"
       id="Gradient_bez_nazwy_16-25" />
    <linearGradient
       xlink:href="#Gradient_bez_nazwy_16"
       y2="130.30646"
       x2="638.30524"
       y1="324.63748"
       x1="638.30524"
       id="Gradient_bez_nazwy_16-26" />
    <linearGradient
       xlink:href="#Gradient_bez_nazwy_16"
       y2="86.739487"
       x2="405.56961"
       y1="86.739487"
       x1="314.71652"
       id="Gradient_bez_nazwy_16-27" />
    <linearGradient
       xlink:href="#Gradient_bez_nazwy_16"
       y2="85.470253"
       x2="405.56961"
       y1="85.470253"
       x1="314.71652"
       id="Gradient_bez_nazwy_16-28" />
    <linearGradient
       xlink:href="#Gradient_bez_nazwy_16"
       y2="83.126228"
       x2="504.47708"
       y1="83.126228"
       x1="418.758"
       id="Gradient_bez_nazwy_16-29" />
    <linearGradient
       xlink:href="#Gradient_bez_nazwy_16"
       y2="79.785789"
       x2="253.79306"
       y1="79.785789"
       x1="156.44202"
       id="Gradient_bez_nazwy_16-30" />
    <linearGradient
       xlink:href="#Gradient_bez_nazwy_16"
       y2="79.492844"
       x2="253.79306"
       y1="79.492844"
       x1="156.44202"
       id="Gradient_bez_nazwy_16-31" />
    <linearGradient
       xlink:href="#Gradient_bez_nazwy_16"
       y2="87.023239"
       x2="118.09842"
       y1="87.023239"
       x1="87.043228"
       id="Gradient_bez_nazwy_16-32" />
    <linearGradient
       xlink:href="#Gradient_bez_nazwy_16"
       y2="152.16074"
       x2="457.67358"
       y1="89.498573"
       x1="457.67358"
       id="Gradient_bez_nazwy_16-33" />
    <linearGradient
       xlink:href="#Gradient_bez_nazwy_16"
       y2="151.25476"
       x2="512.02051"
       y1="151.25476"
       x1="403.32663"
       id="Gradient_bez_nazwy_16-34" />
    <linearGradient
       xlink:href="#Gradient_bez_nazwy_16"
       y2="129.10582"
       x2="461.86865"
       y1="237.79973"
       x1="461.86865"
       id="Gradient_bez_nazwy_16-35" />
    <linearGradient
       xlink:href="#Gradient_bez_nazwy_16"
       y2="85.572319"
       x2="296.45001"
       y1="85.572319"
       x1="265.70468"
       id="Gradient_bez_nazwy_16-36" />
    <linearGradient
       gradientUnits="userSpaceOnUse"
       y2="252.90746"
       x2="816.43549"
       y1="252.90746"
       x1="733.61499"
       data-name="Gradient bez nazwy 99"
       id="Gradient_bez_nazwy_99">
      <stop
         id="stop3843"
         stop-color="#feaaff"
         offset="0" />
      <stop
         id="stop3845"
         stop-color="#eaa3f6"
         offset="1" />
    </linearGradient>
    <linearGradient
       gradientUnits="userSpaceOnUse"
       y2="161.40689"
       x2="984.59094"
       y1="161.40689"
       x1="281.15601"
       data-name="Gradient bez nazwy 133"
       id="Gradient_bez_nazwy_133">
      <stop
         id="stop3848"
         stop-color="#9562bf"
         offset="0" />
      <stop
         id="stop3850"
         stop-opacity="0.8"
         stop-color="#9f9fdb"
         offset="1" />
    </linearGradient>
    <linearGradient
       xlink:href="#Gradient_bez_nazwy_508"
       y2="80.091232"
       x2="333.00903"
       y1="303.86679"
       x1="333.00903"
       id="Gradient_bez_nazwy_508-6" />
    <linearGradient
       xlink:href="#Gradient_bez_nazwy_16"
       y2="156.71841"
       x2="599.91821"
       y1="380.49399"
       x1="599.91821"
       id="Gradient_bez_nazwy_16-37" />
    <linearGradient
       gradientUnits="userSpaceOnUse"
       y2="194.47697"
       x2="984.41333"
       y1="194.47697"
       x1="215.4231"
       data-name="Gradient bez nazwy 23"
       id="Gradient_bez_nazwy_23">
      <stop
         id="stop3855"
         stop-opacity="0"
         stop-color="#feaaff"
         offset="0" />
      <stop
         id="stop3857"
         stop-opacity="0.9"
         stop-color="#feaaff"
         offset="1" />
    </linearGradient>
    <linearGradient
       xlink:href="#Gradient_bez_nazwy_16"
       y2="141.24968"
       x2="599.91821"
       y1="365.02524"
       x1="599.91821"
       id="Gradient_bez_nazwy_16-38" />
    <radialGradient
       gradientUnits="userSpaceOnUse"
       r="125.04179"
       cy="252.44736"
       cx="775.76105"
       data-name="Gradient bez nazwy 515"
       id="Gradient_bez_nazwy_515">
      <stop
         id="stop3861"
         stop-color="#f6abff"
         offset="0" />
      <stop
         id="stop3863"
         stop-opacity="0"
         stop-color="#e5a2e7"
         offset="1" />
    </radialGradient>
    <linearGradient
       inkscape:collect="always"
       xlink:href="#Gradient_bez_nazwy_99"
       id="linearGradient4654"
       gradientUnits="userSpaceOnUse"
       x1="733.61499"
       y1="252.90746"
       x2="816.43549"
       y2="252.90746" />
    <linearGradient
       inkscape:collect="always"
       xlink:href="#Gradient_bez_nazwy_99"
       id="linearGradient4656"
       gradientUnits="userSpaceOnUse"
       x1="733.61499"
       y1="252.90746"
       x2="816.43549"
       y2="252.90746" />
    <linearGradient
       inkscape:collect="always"
       xlink:href="#Gradient_bez_nazwy_23"
       id="linearGradient4658"
       gradientUnits="userSpaceOnUse"
       x1="215.4231"
       y1="194.47697"
       x2="984.41333"
       y2="194.47697" />
    <linearGradient
       inkscape:collect="always"
       xlink:href="#Gradient_bez_nazwy_23"
       id="linearGradient4660"
       gradientUnits="userSpaceOnUse"
       x1="215.4231"
       y1="194.47697"
       x2="984.41333"
       y2="194.47697" />
  </defs>
  <sodipodi:namedview
     id="base"
     pagecolor="#ffffff"
     bordercolor="#666666"
     borderopacity="1.0"
     inkscape:pageopacity="0.0"
     inkscape:pageshadow="2"
     inkscape:zoom="5.6568542"
     inkscape:cx="102.82892"
     inkscape:cy="39.683443"
     inkscape:document-units="mm"
     inkscape:current-layer="layer1"
     showgrid="false"
     showguides="false"
     fit-margin-top="0"
     fit-margin-left="0"
     fit-margin-right="0"
     fit-margin-bottom="0"
     inkscape:snap-page="true"
     inkscape:window-width="2498"
     inkscape:window-height="1417"
     inkscape:window-x="54"
     inkscape:window-y="-8"
     inkscape:window-maximized="1"
     units="px" />
  <metadata
     id="metadata5">
    <rdf:RDF>
      <cc:Work
         rdf:about="">
        <dc:format>image/svg+xml</dc:format>
        <dc:type
           rdf:resource="http://purl.org/dc/dcmitype/StillImage" />
        <dc:title></dc:title>
      </cc:Work>
    </rdf:RDF>
  </metadata>
  <g
     inkscape:label="Layer 1"
     inkscape:groupmode="layer"
     id="layer1"
     transform="translate(-80.361481,-79.971264)">
    <g
       data-name="Warstwa 2"
       id="Warstwa_2"
       transform="matrix(0.06602452,0,0,0.06602452,66.154396,79.914181)">
      <g
         data-name="Warstwa 1"
         id="Warstwa_1-2">
        <g
           id="g4004">
          <path
             id="path3870"
             style="fill:none"
             d="m 775.08868,303.81754 a 58.75673,58.75673 0 0 0 58.118,-51.06365 58.6319,58.6319 0 0 0 -116.23648,0.0442 58.56536,58.56536 0 0 0 58.11848,51.01944 z M 733.61519,244.8963 a 41.41051,41.41051 0 1 1 82.81912,0.53577 42.65523,42.65523 0 0 1 -0.712,7.4252 42.50847,42.50847 0 0 1 0.712,8.04352 41.41055,41.41055 0 1 1 -82.81912,-0.53577 41.91008,41.91008 0 0 1 0.71445,-7.54127 43.11291,43.11291 0 0 1 -0.71445,-7.92745 z"
             inkscape:connector-curvature="0" />
          <path
             id="path3892"
             style="fill:url(#Gradient_bez_nazwy_517)"
             d="m 774.97668,131.0325 c 64.56912,0.002 125.25934,48.66346 129.31824,121.376 q 0.19779,-3.40283 0.224,-6.83446 C 904.98815,168.10239 842.07069,115.56617 774.97669,115.56383 713.73283,114.002 647.26287,165.58 647.00419,244.41363 c -0.009,2.71349 0.0727,5.39781 0.223,8.05807 4.24423,-74.63789 68.4464,-122.95149 127.74949,-121.4392 z"
             inkscape:connector-curvature="0" />
          <path
             id="path3894"
             style="fill:#c27be3"
             d="m 775.08868,319.28626 a 58.77693,58.77693 0 0 0 58.64408,-58.5234 58.07414,58.07414 0 0 0 -0.526,-8.009 58.60882,58.60882 0 0 1 -116.23648,0.0442 58.68247,58.68247 0 0 0 58.11845,66.48816 z"
             inkscape:connector-curvature="0" />
          <path
             id="path3896"
             style="fill:url(#Gradient_bez_nazwy_16-9)"
             d="m 773.386,373.89662 c 75.1471,0.0837 127.12341,-56.35271 130.90894,-121.48816 -4.0589,-72.7125 -64.74912,-121.37361 -129.31824,-121.376 -59.30309,-1.51229 -123.50526,46.80131 -127.74946,121.4392 C 651.197,322.73249 709.748,373.82572 773.386,373.89662 Z M 716.4493,245.37918 a 58.67008,58.67008 0 0 1 58.138,-58.95773 c 32.569,-0.20668 59.318,26.41876 59.14545,58.87263 a 59.41481,59.41481 0 0 1 -0.526,7.45981 58.07414,58.07414 0 0 1 0.526,8.009 58.64211,58.64211 0 1 1 -116.76253,-7.96476 59.65307,59.65307 0 0 1 -0.52094,-7.41895 z"
             inkscape:connector-curvature="0" />
          <path
             id="path3898"
             style="fill:url(#Gradient_bez_nazwy_16-10)"
             d="m 773.386,373.89662 c 75.1471,0.0837 127.12341,-56.35271 130.90894,-121.48816 -4.0589,-72.7125 -64.74912,-121.37361 -129.31824,-121.376 -59.30309,-1.51229 -123.50526,46.80131 -127.74946,121.4392 C 651.197,322.73249 709.748,373.82572 773.386,373.89662 Z M 716.4493,245.37918 a 58.67008,58.67008 0 0 1 58.138,-58.95773 c 32.569,-0.20668 59.318,26.41876 59.14545,58.87263 a 59.41481,59.41481 0 0 1 -0.526,7.45981 58.07414,58.07414 0 0 1 0.526,8.009 58.64211,58.64211 0 1 1 -116.76253,-7.96476 59.65307,59.65307 0 0 1 -0.52094,-7.41895 z"
             inkscape:connector-curvature="0" />
          <g
             id="g3982" />
          <path
             id="path3984"
             style="fill:#fe8fff"
             d="m 775.29626,219.14159 a 41.15865,41.15865 0 0 1 40.42607,33.71568 42.65523,42.65523 0 0 0 0.712,-7.4252 41.41051,41.41051 0 1 0 -82.81912,-0.53577 43.11291,43.11291 0 0 0 0.71445,7.92745 41.24381,41.24381 0 0 1 40.9666,-33.68216 z"
             inkscape:connector-curvature="0" />
          <path
             id="path3986"
             style="fill:url(#linearGradient4654)"
             d="m 774.75986,286.67344 a 41.18247,41.18247 0 0 0 40.96247,-33.81617 41.42263,41.42263 0 0 0 -81.39269,-0.0335 41.12473,41.12473 0 0 0 40.43022,33.84969 z"
             inkscape:connector-curvature="0" />
          <path
             id="path3988"
             style="fill:url(#linearGradient4656)"
             d="m 774.75986,286.67344 a 41.18247,41.18247 0 0 0 40.96247,-33.81617 41.42263,41.42263 0 0 0 -81.39269,-0.0335 41.12473,41.12473 0 0 0 40.43022,33.84969 z"
             inkscape:connector-curvature="0" />
          <path
             id="path3990"
             style="fill:url(#Gradient_bez_nazwy_133)"
             d="m 281.92422,271.36726 c 3.977,25.187 24.52661,45.50812 50.02982,49.80839 a 51.583,51.583 0 0 0 34.702,-6.12359 87.81147,87.81147 0 0 0 21.46342,-17.21542 c 3.79814,-4.082 7.40361,-8.35447 10.93418,-12.67357 34.451,-42.14657 69.73156,-83.5702 106.9601,-123.30306 23.6734,-25.2659 48.06478,-49.79218 74.34168,-72.37727 17.8205,-15.31659 36.50911,-29.38983 57.43854,-40.277 a 290.11856,290.11856 0 0 1 111.8691,-31.94945 c 31.17384,-2.49957 61.89031,-0.03972 91.9315,8.81922 48.995,14.44861 88.09743,42.42842 115.59967,85.876 15.97711,25.24039 25.45624,52.81111 27.12239,82.66713 0.0403,0.72136 0.0651,1.43733 0.0967,2.15572 a 174.04115,174.04115 0 0 0 -0.0967,-17.62443 C 982.65047,149.29383 973.17134,121.72311 957.19423,96.4828 929.692,53.03521 890.58959,25.05533 841.59456,10.60679 811.55337,1.74778 780.8369,-0.712 749.66306,1.78757 A 290.11752,290.11752 0 0 0 637.794,33.737 c -20.92943,10.88715 -39.618,24.9604 -57.43854,40.277 -26.2769,22.585 -50.66828,47.11137 -74.34168,72.37727 -37.22854,39.73286 -72.50913,81.15649 -106.9601,123.30307 -3.53057,4.31909 -7.136,8.59157 -10.93418,12.6735 a 87.81007,87.81007 0 0 1 -21.4635,17.2155 51.58343,51.58343 0 0 1 -34.702,6.12359 c -25.50321,-4.30034 -46.05279,-24.62137 -50.02982,-49.80838 -0.10779,-0.6826 -0.19676,-1.36423 -0.28172,-2.04559 a 62.25439,62.25439 0 0 0 0.28176,17.5143 z"
             inkscape:connector-curvature="0" />
          <path
             id="path3992"
             style="fill:url(#Gradient_bez_nazwy_508-6)"
             d="m 324.957,135.9793 a 126.04756,126.04756 0 0 1 121.42761,54.57015 c 5.82519,-6.73563 5.98959,-6.47433 0.18448,-15.20183 A 126.04755,126.04755 0 0 0 324.957,120.51062 C 258.30375,129.34488 211.365,188.7559 215.42313,252.89545 219.09766,194.93165 263.7027,144.098 324.957,135.9793 Z"
             inkscape:connector-curvature="0" />
          <path
             id="path3994"
             style="fill:url(#Gradient_bez_nazwy_16-37)"
             d="m 944.09619,291.76292 c 25.52631,-27.32432 38.68669,-59.17241 40.31712,-94.98851 -0.0316,-0.71839 -0.0564,-1.43436 -0.0967,-2.15572 -1.66615,-29.856 -11.14528,-57.42674 -27.12239,-82.66713 C 929.69199,68.50393 890.58959,40.52412 841.59456,26.07556 811.55337,17.21662 780.8369,14.75677 749.66306,17.25634 A 290.11856,290.11856 0 0 0 637.794,49.20576 c -20.92943,10.88715 -39.618,24.96039 -57.43854,40.277 -26.2769,22.58509 -50.66828,47.11137 -74.34168,72.37727 -37.22854,39.73286 -72.50913,81.15649 -106.9601,123.30306 -3.53057,4.3191 -7.136,8.59157 -10.93418,12.67357 a 87.81147,87.81147 0 0 1 -21.4635,17.2154 51.583,51.583 0 0 1 -34.702,6.12359 c -25.50321,-4.30027 -46.05279,-24.62138 -50.02982,-49.80839 a 62.25439,62.25439 0 0 1 -0.28172,-17.5143 60.48552,60.48552 0 0 1 103.13885,-50.309 60.00761,60.00761 0 0 1 15.68761,28.1827 c 0.63784,2.59522 0.80645,5.3843 2.74115,7.73029 3.40629,-1.33858 4.98072,-4.09655 6.92431,-6.36731 11.79581,-13.78146 23.51017,-27.63265 35.29129,-41.42666 0.3393,-0.39723 0.65115,-0.75777 0.95886,-1.11355 A 126.04756,126.04756 0 0 0 324.957,135.9793 c -61.25426,8.11869 -105.8593,58.95235 -109.53387,116.91611 q 0.19137,3.02462 0.533,6.06159 c 4.632,40.88275 24.52779,72.63326 59.22185,94.43969 29.19384,18.34945 61.06255,23.68713 94.78665,15.478 17.63216,-4.29213 33.20605,-12.88784 47.3986,-24.07367 a 200.6467,200.6467 0 0 0 30.15891,-30.10318 c 14.76612,-17.84747 29.45714,-35.761 44.474,-53.39571 32.941,-38.68324 66.77146,-76.55748 103.34022,-111.889 A 522.043,522.043 0 0 1 639.36322,110.78761 201.35278,201.35278 0 0 1 667.36985,92.51513 220.23414,220.23414 0 0 1 770.1705,66.39255 c 18.76212,-0.19371 37.324,2.00414 55.30488,7.74712 32.56,10.39937 58.73953,29.328 76.75409,58.68029 12.02994,19.60092 18.081,40.6411 16.30262,63.24386 a 98.23341,98.23341 0 0 1 -0.49239,20.263 c 0.0114,0.0617 0.0218,0.123 0.0334,0.18469 a 151.18829,151.18829 0 0 1 2.486,36.10015 144.00452,144.00452 0 0 1 -13.61607,69.21645 c 0.0632,-0.0398 0.12634,-0.0828 0.18978,-0.12172 a 176.68954,176.68954 0 0 0 36.96341,-29.94347 z"
             inkscape:connector-curvature="0" />
          <path
             id="path3996"
             style="fill:url(#linearGradient4658)"
             d="m 944.09619,291.76292 c 25.52631,-27.32432 38.68669,-59.17241 40.31712,-94.98851 -0.0316,-0.71839 -0.0564,-1.43436 -0.0967,-2.15572 -1.66615,-29.856 -11.14528,-57.42674 -27.12239,-82.66713 C 929.69199,68.50393 890.58959,40.52412 841.59456,26.07556 811.55337,17.21662 780.8369,14.75677 749.66306,17.25634 A 290.11856,290.11856 0 0 0 637.794,49.20576 c -20.92943,10.88715 -39.618,24.96039 -57.43854,40.277 -26.2769,22.58509 -50.66828,47.11137 -74.34168,72.37727 -37.22854,39.73286 -72.50913,81.15649 -106.9601,123.30306 -3.53057,4.3191 -7.136,8.59157 -10.93418,12.67357 a 87.81147,87.81147 0 0 1 -21.4635,17.2154 51.583,51.583 0 0 1 -34.702,6.12359 c -25.50321,-4.30027 -46.05279,-24.62138 -50.02982,-49.80839 a 62.25439,62.25439 0 0 1 -0.28172,-17.5143 60.48552,60.48552 0 0 1 103.13885,-50.309 60.00761,60.00761 0 0 1 15.68761,28.1827 c 0.63784,2.59522 0.80645,5.3843 2.74115,7.73029 3.40629,-1.33858 4.98072,-4.09655 6.92431,-6.36731 11.79581,-13.78146 23.51017,-27.63265 35.29129,-41.42666 0.3393,-0.39723 0.65115,-0.75777 0.95886,-1.11355 A 126.04756,126.04756 0 0 0 324.957,135.9793 c -61.25426,8.11869 -105.8593,58.95235 -109.53387,116.91611 q 0.19137,3.02462 0.533,6.06159 c 4.632,40.88275 24.52779,72.63326 59.22185,94.43969 29.19384,18.34945 61.06255,23.68713 94.78665,15.478 17.63216,-4.29213 33.20605,-12.88784 47.3986,-24.07367 a 200.6467,200.6467 0 0 0 30.15891,-30.10318 c 14.76612,-17.84747 29.45714,-35.761 44.474,-53.39571 32.941,-38.68324 66.77146,-76.55748 103.34022,-111.889 A 522.043,522.043 0 0 1 639.36322,110.78761 201.35278,201.35278 0 0 1 667.36985,92.51513 220.23414,220.23414 0 0 1 770.1705,66.39255 c 18.76212,-0.19371 37.324,2.00414 55.30488,7.74712 32.56,10.39937 58.73953,29.328 76.75409,58.68029 12.02994,19.60092 18.081,40.6411 16.30262,63.24386 a 98.23341,98.23341 0 0 1 -0.49239,20.263 c 0.0114,0.0617 0.0218,0.123 0.0334,0.18469 a 151.18829,151.18829 0 0 1 2.486,36.10015 144.00452,144.00452 0 0 1 -13.61607,69.21645 c 0.0632,-0.0398 0.12634,-0.0828 0.18978,-0.12172 a 176.68954,176.68954 0 0 0 36.96341,-29.94347 z"
             inkscape:connector-curvature="0" />
          <path
             id="path3998"
             style="fill:url(#Gradient_bez_nazwy_16-38)"
             d="m 944.09619,291.76292 c 25.52631,-27.32432 38.68669,-59.17241 40.31712,-94.98851 -0.0316,-0.71839 -0.0564,-1.43436 -0.0967,-2.15572 -1.66615,-29.856 -11.14528,-57.42674 -27.12239,-82.66713 C 929.69199,68.50393 890.58959,40.52412 841.59456,26.07556 811.55337,17.21662 780.8369,14.75677 749.66306,17.25634 A 290.11856,290.11856 0 0 0 637.794,49.20576 c -20.92943,10.88715 -39.618,24.96039 -57.43854,40.277 -26.2769,22.58509 -50.66828,47.11137 -74.34168,72.37727 -37.22854,39.73286 -72.50913,81.15649 -106.9601,123.30306 -3.53057,4.3191 -7.136,8.59157 -10.93418,12.67357 a 87.81147,87.81147 0 0 1 -21.4635,17.2154 51.583,51.583 0 0 1 -34.702,6.12359 c -25.50321,-4.30027 -46.05279,-24.62138 -50.02982,-49.80839 a 62.25439,62.25439 0 0 1 -0.28172,-17.5143 60.48552,60.48552 0 0 1 103.13885,-50.309 60.00761,60.00761 0 0 1 15.68761,28.1827 c 0.63784,2.59522 0.80645,5.3843 2.74115,7.73029 3.40629,-1.33858 4.98072,-4.09655 6.92431,-6.36731 11.79581,-13.78146 23.51017,-27.63265 35.29129,-41.42666 0.3393,-0.39723 0.65115,-0.75777 0.95886,-1.11355 A 126.04756,126.04756 0 0 0 324.957,135.9793 c -61.25426,8.11869 -105.8593,58.95235 -109.53387,116.91611 q 0.19137,3.02462 0.533,6.06159 c 4.632,40.88275 24.52779,72.63326 59.22185,94.43969 29.19384,18.34945 61.06255,23.68713 94.78665,15.478 17.63216,-4.29213 33.20605,-12.88784 47.3986,-24.07367 a 200.6467,200.6467 0 0 0 30.15891,-30.10318 c 14.76612,-17.84747 29.45714,-35.761 44.474,-53.39571 32.941,-38.68324 66.77146,-76.55748 103.34022,-111.889 A 522.043,522.043 0 0 1 639.36322,110.78761 201.35278,201.35278 0 0 1 667.36985,92.51513 220.23414,220.23414 0 0 1 770.1705,66.39255 c 18.76212,-0.19371 37.324,2.00414 55.30488,7.74712 32.56,10.39937 58.73953,29.328 76.75409,58.68029 12.02994,19.60092 18.081,40.6411 16.30262,63.24386 a 98.23341,98.23341 0 0 1 -0.49239,20.263 c 0.0114,0.0617 0.0218,0.123 0.0334,0.18469 a 151.18829,151.18829 0 0 1 2.486,36.10015 144.00452,144.00452 0 0 1 -13.61607,69.21645 c 0.0632,-0.0398 0.12634,-0.0828 0.18978,-0.12172 a 176.68954,176.68954 0 0 0 36.96341,-29.94347 z"
             inkscape:connector-curvature="0" />
          <path
             id="path4000"
             style="fill:url(#linearGradient4660)"
             d="m 944.09619,291.76292 c 25.52631,-27.32432 38.68669,-59.17241 40.31712,-94.98851 -0.0316,-0.71839 -0.0564,-1.43436 -0.0967,-2.15572 -1.66615,-29.856 -11.14528,-57.42674 -27.12239,-82.66713 C 929.69199,68.50393 890.58959,40.52412 841.59456,26.07556 811.55337,17.21662 780.8369,14.75677 749.66306,17.25634 A 290.11856,290.11856 0 0 0 637.794,49.20576 c -20.92943,10.88715 -39.618,24.96039 -57.43854,40.277 -26.2769,22.58509 -50.66828,47.11137 -74.34168,72.37727 -37.22854,39.73286 -72.50913,81.15649 -106.9601,123.30306 -3.53057,4.3191 -7.136,8.59157 -10.93418,12.67357 a 87.81147,87.81147 0 0 1 -21.4635,17.2154 51.583,51.583 0 0 1 -34.702,6.12359 c -25.50321,-4.30027 -46.05279,-24.62138 -50.02982,-49.80839 a 62.25439,62.25439 0 0 1 -0.28172,-17.5143 60.48552,60.48552 0 0 1 103.13885,-50.309 60.00761,60.00761 0 0 1 15.68761,28.1827 c 0.63784,2.59522 0.80645,5.3843 2.74115,7.73029 3.40629,-1.33858 4.98072,-4.09655 6.92431,-6.36731 11.79581,-13.78146 23.51017,-27.63265 35.29129,-41.42666 0.3393,-0.39723 0.65115,-0.75777 0.95886,-1.11355 A 126.04756,126.04756 0 0 0 324.957,135.9793 c -61.25426,8.11869 -105.8593,58.95235 -109.53387,116.91611 q 0.19137,3.02462 0.533,6.06159 c 4.632,40.88275 24.52779,72.63326 59.22185,94.43969 29.19384,18.34945 61.06255,23.68713 94.78665,15.478 17.63216,-4.29213 33.20605,-12.88784 47.3986,-24.07367 a 200.6467,200.6467 0 0 0 30.15891,-30.10318 c 14.76612,-17.84747 29.45714,-35.761 44.474,-53.39571 32.941,-38.68324 66.77146,-76.55748 103.34022,-111.889 A 522.043,522.043 0 0 1 639.36322,110.78761 201.35278,201.35278 0 0 1 667.36985,92.51513 220.23414,220.23414 0 0 1 770.1705,66.39255 c 18.76212,-0.19371 37.324,2.00414 55.30488,7.74712 32.56,10.39937 58.73953,29.328 76.75409,58.68029 12.02994,19.60092 18.081,40.6411 16.30262,63.24386 a 98.23341,98.23341 0 0 1 -0.49239,20.263 c 0.0114,0.0617 0.0218,0.123 0.0334,0.18469 a 151.18829,151.18829 0 0 1 2.486,36.10015 144.00452,144.00452 0 0 1 -13.61607,69.21645 c 0.0632,-0.0398 0.12634,-0.0828 0.18978,-0.12172 a 176.68954,176.68954 0 0 0 36.96341,-29.94347 z"
             inkscape:connector-curvature="0" />
          <path
             id="path4002"
             style="fill:url(#Gradient_bez_nazwy_515)"
             d="m 773.386,373.89662 c 75.1471,0.0837 127.12341,-56.35271 130.90894,-121.48816 -4.0589,-72.7125 -64.74912,-121.37361 -129.31824,-121.376 -59.30309,-1.51229 -123.50526,46.80131 -127.74946,121.4392 C 651.197,322.73249 709.748,373.82572 773.386,373.89662 Z M 716.4493,245.37918 a 58.67008,58.67008 0 0 1 58.138,-58.95773 c 32.569,-0.20668 59.318,26.41876 59.14545,58.87263 a 59.41481,59.41481 0 0 1 -0.526,7.45981 58.07414,58.07414 0 0 1 0.526,8.009 58.64211,58.64211 0 1 1 -116.76253,-7.96476 59.65307,59.65307 0 0 1 -0.52094,-7.41895 z"
             inkscape:connector-curvature="0" />
        </g>
      </g>
    </g>
  </g>
</svg>
