<svg xmlns="http://www.w3.org/2000/svg" xml:space="preserve" id="Layer_2" x="0" y="0" version="1.1" viewBox="0 0 192 93.1"><linearGradient id="SVGID_1_" x1="96" x2="96" y1="63.949" y2="4.515" gradientTransform="matrix(1 0 0 -1 0 96)" gradientUnits="userSpaceOnUse"><stop offset="0" stop-color="#51bbeb"/><stop offset="1" stop-color="#9563bf"/></linearGradient><path fill="url(#SVGID_1_)" d="M139.1.1C99.2.1 80.9 31.5 62.4 54.2c-8.1 9.4-17.3 22.5-30.8 22.9-8.7 0-15.8-7.1-15.8-15.8s7.1-15.8 15.8-15.8 15.8 7.1 15.8 15.8c0 1.1-.1 2.2-.3 3.2 4.3-4.1 8.8-9.6 13.6-15.6-4.8-11.3-16-19.3-29.1-19.3C14.2 29.7 0 43.9 0 61.4S14.2 93 31.6 93c48.3 0 49.9-77.1 107.5-77.1 28 0 40 20.8 35.5 38.3.5 2.3.7 4.7.7 7.2 0 12.2-6 23-15.3 29.6C215.2 64.4 192.9.1 139.1.1z"/><linearGradient id="SVGID_00000011737509293033822720000010878183336340492948_" x1="81.617" x2="203.618" y1="50.073" y2="36.543" gradientTransform="matrix(1 0 0 -1 0 96)" gradientUnits="userSpaceOnUse"><stop offset="0" stop-color="#51bbeb" stop-opacity="0"/><stop offset=".025" stop-color="#59b8ea" stop-opacity=".025"/><stop offset=".19" stop-color="#86a6e7" stop-opacity=".19"/><stop offset=".356" stop-color="#ab98e4" stop-opacity=".356"/><stop offset=".521" stop-color="#c88de2" stop-opacity=".521"/><stop offset=".683" stop-color="#dc84e0" stop-opacity=".683"/><stop offset=".844" stop-color="#e980df" stop-opacity=".844"/><stop offset="1" stop-color="#ed7edf"/></linearGradient><path fill="url(#SVGID_00000011737509293033822720000010878183336340492948_)" d="M31.6 93c48.3 0 49.9-77.1 107.5-77.1 28 0 40 20.8 35.5 38.3.5 2.3.7 4.7.7 7.2 0 12.2-6 23-15.3 29.6C215.2 64.5 192.9.2 139.1.2 99.2.2 80.9 31.6 62.4 54.3c-8.1 9.4-17.3 22.5-30.8 22.9"/><linearGradient id="SVGID_00000181089497232040060980000013862267491128611256_" x1="139.09" x2="139.09" y1="66.254" y2="3.02" gradientTransform="matrix(1 0 0 -1 0 96)" gradientUnits="userSpaceOnUse"><stop offset="0" stop-color="#51bbeb"/><stop offset="1" stop-color="#9563bf"/></linearGradient><path fill="url(#SVGID_00000181089497232040060980000013862267491128611256_)" d="M139.1 29.7c-17.5 0-31.6 14.2-31.6 31.6S121.6 93 139.1 93s31.6-14.2 31.6-31.6-14.1-31.7-31.6-31.7zm0 47.5c-8.7 0-15.8-7.1-15.8-15.8s7.1-15.8 15.8-15.8c8.7 0 15.8 7.1 15.8 15.8s-7.1 15.8-15.8 15.8z"/><radialGradient id="SVGID_00000163792413464366428120000009707477500759410604_" cx="139.09" cy="34.637" r="21.531" fx="139.225" fy="42.381" gradientTransform="matrix(1 0 0 -1 0 96)" gradientUnits="userSpaceOnUse"><stop offset=".321" stop-color="#ed7edf" stop-opacity=".8"/><stop offset=".512" stop-color="#ea7dde" stop-opacity=".574"/><stop offset=".645" stop-color="#e17adb" stop-opacity=".416"/><stop offset=".76" stop-color="#d276d5" stop-opacity=".279"/><stop offset=".866" stop-color="#bc6fcd" stop-opacity=".153"/><stop offset=".964" stop-color="#a066c3" stop-opacity=".037"/><stop offset=".995" stop-color="#9563bf" stop-opacity="0"/></radialGradient><path fill="url(#SVGID_00000163792413464366428120000009707477500759410604_)" d="M139.1 39.2c-12.2 0-22.2 9.9-22.2 22.2s9.9 22.2 22.2 22.2 22.2-9.9 22.2-22.2-10-22.2-22.2-22.2zm0 38c-8.7 0-15.8-7.1-15.8-15.8s7.1-15.8 15.8-15.8c8.7 0 15.8 7.1 15.8 15.8s-7.1 15.8-15.8 15.8z"/><linearGradient id="SVGID_00000163761187826326534010000013518880004654525349_" x1="139.09" x2="139.09" y1="44.205" y2="25.07" gradientTransform="matrix(1 0 0 -1 0 96)" gradientUnits="userSpaceOnUse"><stop offset="0" stop-color="#eda4df"/><stop offset=".266" stop-color="#ea9adf"/><stop offset="1" stop-color="#e380de"/></linearGradient><circle cx="139.1" cy="61.4" r="9.6" fill="url(#SVGID_00000163761187826326534010000013518880004654525349_)"/></svg>