<?xml version="1.0" encoding="utf-8"?>
<!-- Generator: Adobe Illustrator 26.0.1, SVG Export Plug-In . SVG Version: 6.00 Build 0)  -->
<svg version="1.1" id="Layer_2" xmlns="http://www.w3.org/2000/svg" xmlns:xlink="http://www.w3.org/1999/xlink" x="0px" y="0px"
	 viewBox="0 0 1510.1 373.9" style="enable-background:new 0 0 1510.1 373.9;" xml:space="preserve">
<style type="text/css">
	.st0{fill:url(#SVGID_1_);}
	.st1{fill:url(#SVGID_00000147942869951042059630000001210233663440639655_);}
	.st2{fill:url(#SVGID_00000169544603046274825200000016579832899342083231_);}
	.st3{fill:url(#SVGID_00000078046660262182739130000007466800254226191248_);}
	.st4{fill:url(#SVGID_00000180344824314748039250000014106631695797565337_);}
	.st5{fill:url(#SVGID_00000048480934827679585490000011671989480069432989_);}
	.st6{fill:url(#SVGID_00000064317171662124449330000011247897318152503429_);}
	.st7{fill:url(#SVGID_00000116231159571879743080000001186121223126314929_);}
	.st8{fill:url(#SVGID_00000000936614998180254400000008182051849959606657_);}
	.st9{fill:url(#SVGID_00000139991141828759078770000001096528091036912822_);}
	.st10{fill:url(#SVGID_00000037678051746139939130000017807413421913045901_);}
	.st11{fill:url(#SVGID_00000048468551106344068880000015670742525440917687_);}
	.st12{fill:url(#SVGID_00000002382596828282408190000003972421307523918734_);}
	.st13{fill:url(#SVGID_00000168091598397569607100000014624551245952862116_);}
	.st14{fill:url(#SVGID_00000082336843896772740830000006315845930573831050_);}
	.st15{fill:url(#SVGID_00000103968567127657756600000001593102487937946507_);}
	.st16{fill:url(#SVGID_00000068650878390879332870000001773473759330146194_);}
	.st17{fill:url(#SVGID_00000017482388258557320150000009869200566377407389_);}
</style>
<g>
	
		<linearGradient id="SVGID_1_" gradientUnits="userSpaceOnUse" x1="770.8443" y1="168.3503" x2="770.8443" y2="91.9596" gradientTransform="matrix(1 0 0 -1 0 376)">
		<stop  offset="0" style="stop-color:#EDA4DF"/>
		<stop  offset="0.2656" style="stop-color:#EA9ADF"/>
		<stop  offset="1" style="stop-color:#E380DE"/>
	</linearGradient>
	<circle class="st0" cx="770.8" cy="245.8" r="38.2"/>
	<g>
		<g>
			
				<linearGradient id="SVGID_00000098185665462293418240000003136132327905478529_" gradientUnits="userSpaceOnUse" x1="280.7442" y1="367.6344" x2="280.7442" y2="282.8185" gradientTransform="matrix(1 0 0 -1 0 376)">
				<stop  offset="0" style="stop-color:#51BBEB"/>
				<stop  offset="1" style="stop-color:#9563BF"/>
			</linearGradient>
			
				<rect x="268.4" y="8.4" style="fill:url(#SVGID_00000098185665462293418240000003136132327905478529_);" width="24.7" height="84.8"/>
			
				<linearGradient id="SVGID_00000047035193625088990650000003261521124438961075_" gradientUnits="userSpaceOnUse" x1="120.3735" y1="367.6344" x2="120.3735" y2="282.8185" gradientTransform="matrix(1 0 0 -1 0 376)">
				<stop  offset="0" style="stop-color:#51BBEB"/>
				<stop  offset="1" style="stop-color:#9563BF"/>
			</linearGradient>
			<polygon style="fill:url(#SVGID_00000047035193625088990650000003261521124438961075_);" points="114.6,69.8 114.6,8.4 90,8.4 
				90,93.2 150.8,93.2 150.8,69.8 			"/>
			
				<linearGradient id="SVGID_00000081610979046752910720000001885009685012508339_" gradientUnits="userSpaceOnUse" x1="366.5807" y1="367.6344" x2="366.5807" y2="282.8185" gradientTransform="matrix(1 0 0 -1 0 376)">
				<stop  offset="0" style="stop-color:#51BBEB"/>
				<stop  offset="1" style="stop-color:#9563BF"/>
			</linearGradient>
			<polygon style="fill:url(#SVGID_00000081610979046752910720000001885009685012508339_);" points="384.7,8.4 384.7,51.4 
				348.5,8.4 323.8,8.4 323.8,93.2 348.5,93.2 348.5,50.8 384.7,93.2 409.3,93.2 409.3,8.4 			"/>
			
				<linearGradient id="SVGID_00000129186685786928191410000002659693542898473907_" gradientUnits="userSpaceOnUse" x1="201.9596" y1="367.6344" x2="201.9596" y2="282.8185" gradientTransform="matrix(1 0 0 -1 0 376)">
				<stop  offset="0" style="stop-color:#51BBEB"/>
				<stop  offset="1" style="stop-color:#9563BF"/>
			</linearGradient>
			<polygon style="fill:url(#SVGID_00000129186685786928191410000002659693542898473907_);" points="243,8.4 216.6,8.4 202,36.6 
				187.3,8.4 160.9,8.4 189.6,60.6 189.6,93.2 214.3,93.2 214.3,60.6 			"/>
			
				<linearGradient id="SVGID_00000014620592088673447160000011041707003586354570_" gradientUnits="userSpaceOnUse" x1="31.2274" y1="367.6344" x2="31.2274" y2="282.8185" gradientTransform="matrix(1 0 0 -1 0 376)">
				<stop  offset="0" style="stop-color:#51BBEB"/>
				<stop  offset="1" style="stop-color:#9563BF"/>
			</linearGradient>
			<polygon style="fill:url(#SVGID_00000014620592088673447160000011041707003586354570_);" points="62.5,31.8 62.5,8.4 0,8.4 
				0,93.2 24.7,93.2 24.7,63 56.2,63 56.2,43.8 24.7,43.8 24.7,31.8 			"/>
			
				<linearGradient id="SVGID_00000031165296176118271390000010559933411106810505_" gradientUnits="userSpaceOnUse" x1="476.8685" y1="372.5706" x2="476.8685" y2="280.6858" gradientTransform="matrix(1 0 0 -1 0 376)">
				<stop  offset="0" style="stop-color:#51BBEB"/>
				<stop  offset="1" style="stop-color:#9563BF"/>
			</linearGradient>
			<path style="fill:url(#SVGID_00000031165296176118271390000010559933411106810505_);" d="M477.5,65.1c0,0,16.4,0,20.5,0
				c-0.8,8.7-15.2,13-28,9.2c-4.4-1.3-9.7-5.9-11.1-11.6c-1.4-5.7-1.1-11.7-0.8-17.6c0.4-9.4,3.6-17.2,12.9-19.5
				c9.5-2.4,21.5-1,26,6.9c1,1.8,1.7,4.6,2.3,6.5c0,0,17.2,0.1,21.6,0.1c0-1.8-0.2-6.7-2.2-12.4c-2.1-6-6.4-12.4-14.2-16.8
				c-13.8-7.8-33.4-8.8-48.4-1.6c-11.9,5.7-18,14.2-20.9,24.3c-3.7,12.8-3.4,26,1.4,38.4c2.3,6,6.3,11.5,11.7,16
				c15.4,13,43.7,9.3,58.8-1.4l3.4,6.8h9.8v-44h-42.8L477.5,65.1L477.5,65.1z"/>
		</g>
	</g>
	
		<linearGradient id="SVGID_00000043442994593054398670000000537437343053653143_" gradientUnits="userSpaceOnUse" x1="598.8224" y1="247.1747" x2="598.8224" y2="9.903" gradientTransform="matrix(1 0 0 -1 0 376)">
		<stop  offset="0" style="stop-color:#51BBEB"/>
		<stop  offset="1" style="stop-color:#9563BF"/>
	</linearGradient>
	<path style="fill:url(#SVGID_00000043442994593054398670000000537437343053653143_);" d="M770.8,1.3
		c-159.2,0-232.2,125.5-306,216.2c-32.4,37.4-69,89.6-123,91.6c-34.9,0-63.2-28.3-63.2-63.2s28.3-63.2,63.2-63.2S405,211,405,245.8
		c0,4.4-0.5,8.8-1.3,13c17.4-16.5,35.2-38.2,54.4-62.1c-19.2-45.3-64-77-116.3-77c-69.7,0-126.2,56.5-126.2,126.2
		s56.5,126.2,126.2,126.2c192.7,0,199.3-307.7,429.1-307.7c111.9,0,159.7,83,141.8,152.8c1.9,9.3,2.9,18.9,2.9,28.7
		c0,48.8-24.1,91.9-61.1,118.1l0,0C1074.8,258.1,985.6,1.3,770.8,1.3z"/>
	<g>
		<g>
			
				<linearGradient id="SVGID_00000000187085591108799710000017467217631153035163_" gradientUnits="userSpaceOnUse" x1="111.2132" y1="256.3749" x2="111.2132" y2="3.9349" gradientTransform="matrix(1 0 0 -1 0 376)">
				<stop  offset="0" style="stop-color:#51BBEB"/>
				<stop  offset="1" style="stop-color:#9563BF"/>
			</linearGradient>
			<path style="fill:url(#SVGID_00000000187085591108799710000017467217631153035163_);" d="M126.2,119.6
				C56.5,119.6,0,176.1,0,245.8s56.5,126.2,126.2,126.2c38.5,0,73.1-17.3,96.2-44.5c-15.9-23.2-25.3-51.4-25.3-81.7
				s9.3-58.4,25.3-81.7C199.3,136.9,164.8,119.6,126.2,119.6z"/>
			
				<linearGradient id="SVGID_00000098186649015439953820000000510134085496821666_" gradientUnits="userSpaceOnUse" x1="770.8442" y1="256.3749" x2="770.8442" y2="3.9349" gradientTransform="matrix(1 0 0 -1 0 376)">
				<stop  offset="0" style="stop-color:#51BBEB"/>
				<stop  offset="1" style="stop-color:#9563BF"/>
			</linearGradient>
			<path style="fill:url(#SVGID_00000098186649015439953820000000510134085496821666_);" d="M770.8,119.6
				c-69.7,0-126.2,56.5-126.2,126.2s56.5,126.2,126.2,126.2c69.7,0,126.2-56.5,126.2-126.2S840.6,119.6,770.8,119.6z M770.8,309
				c-34.9,0-63.2-28.3-63.2-63.2s28.3-63.2,63.2-63.2S834,211,834,245.8S805.7,309,770.8,309z"/>
			
				<linearGradient id="SVGID_00000064325100553478289970000015016940652452246204_" gradientUnits="userSpaceOnUse" x1="1424.1794" y1="201.011" x2="1424.1794" y2="200.9558" gradientTransform="matrix(1 0 0 -1 0 376)">
				<stop  offset="0" style="stop-color:#51BBEB"/>
				<stop  offset="1" style="stop-color:#9563BF"/>
			</linearGradient>
			<path style="fill:url(#SVGID_00000064325100553478289970000015016940652452246204_);" d="M1424.2,175
				C1422.4,174.9,1426,175.1,1424.2,175L1424.2,175z"/>
			
				<linearGradient id="SVGID_00000178165445103756814750000000906224037963752619_" gradientUnits="userSpaceOnUse" x1="1416.6882" y1="256.3833" x2="1416.6882" y2="3.9264" gradientTransform="matrix(1 0 0 -1 0 376)">
				<stop  offset="0" style="stop-color:#51BBEB"/>
				<stop  offset="1" style="stop-color:#9563BF"/>
			</linearGradient>
			<path style="fill:url(#SVGID_00000178165445103756814750000000906224037963752619_);" d="M1509.7,297
				c-0.6-26.2-15.2-50-37.8-63.2c-12.9-7.5-32.2-14.5-48.8-21.6c-33.1-14.2-24.1-38.9,2.8-37.2c24.4,1,46.8,16.7,50.6,20.5
				l31.7-41.5c-20.4-22.5-55.3-34.3-84.6-34.3c-39.5,0-86.1,21.4-86.1,71.5l0,0c0,21.5,8.5,40,26.2,55.7
				c23.1,19,48.1,25.9,66.7,34.2c7,3.1,20.7,7.6,20.7,18.8c0,16.3-19.5,17.2-27.5,16.8c-24.5-1.4-66.5-31.2-86.8-49.5v2
				c0,20.1-4.7,39-13.1,55.8c25.7,22.9,64.9,47.3,99.9,47.3c49.7,0,86.1-28.9,86.1-72.8l0,0C1509.7,298.5,1509.7,297.8,1509.7,297z"
				/>
			
				<linearGradient id="SVGID_00000072994383226874849970000005285696267661324195_" gradientUnits="userSpaceOnUse" x1="466.7142" y1="256.3749" x2="466.7142" y2="4.164" gradientTransform="matrix(1 0 0 -1 0 376)">
				<stop  offset="0" style="stop-color:#51BBEB"/>
				<stop  offset="1" style="stop-color:#9563BF"/>
			</linearGradient>
			<path style="fill:url(#SVGID_00000072994383226874849970000005285696267661324195_);" d="M412.4,119.6
				c25.2,14.1,45.7,35.6,58.7,61.5c16.1-20.6,32.6-41.3,49.9-61.5H412.4z"/>
			
				<linearGradient id="SVGID_00000019651852931758760780000016015541850444005806_" gradientUnits="userSpaceOnUse" x1="610.5073" y1="256.3749" x2="610.5073" y2="3.9265" gradientTransform="matrix(1 0 0 -1 0 376)">
				<stop  offset="0" style="stop-color:#51BBEB"/>
				<stop  offset="1" style="stop-color:#9563BF"/>
			</linearGradient>
			<path style="fill:url(#SVGID_00000019651852931758760780000016015541850444005806_);" d="M700.2,119.6h-51.9
				c-48.7,44.7-88.7,100.2-127.5,155.3v97.2h71V191.3l45.3-0.7l0,0C649.6,160.5,672,135.5,700.2,119.6z"/>
			
				<linearGradient id="SVGID_00000132783247278778239680000001406197124194413727_" gradientUnits="userSpaceOnUse" x1="1043.3522" y1="255.5433" x2="1043.3522" y2="3.1033" gradientTransform="matrix(1 0 0 -1 0 376)">
				<stop  offset="0" style="stop-color:#51BBEB"/>
				<stop  offset="1" style="stop-color:#9563BF"/>
			</linearGradient>
			<path style="fill:url(#SVGID_00000132783247278778239680000001406197124194413727_);" d="M1138,210.5L1138,210.5
				c0-49.7-40.3-90.1-90.1-90.1h-61.3c25.8,62,17.1,135.6-37.8,194.3v58.1h71v-72.3h28.2C1097.6,300.6,1138,260.3,1138,210.5z"/>
			
				<linearGradient id="SVGID_00000062182411423025576250000002395409006727998607_" gradientUnits="userSpaceOnUse" x1="1212.442" y1="256.3749" x2="1212.442" y2="3.9349" gradientTransform="matrix(1 0 0 -1 0 376)">
				<stop  offset="0" style="stop-color:#51BBEB"/>
				<stop  offset="1" style="stop-color:#9563BF"/>
			</linearGradient>
			<path style="fill:url(#SVGID_00000062182411423025576250000002395409006727998607_);" d="M1247.9,263.5
				c0,19.6-15.9,35.5-35.5,35.5s-35.5-15.9-35.5-35.5V119.6H1106c29.9,18.2,49.8,51.1,49.8,88.7l0,0c0,35.9-18.2,67.6-45.9,86.2
				c12.6,44.7,53.7,77.5,102.5,77.5l0,0c58.8,0,106.5-47.7,106.5-106.5V119.6h-71L1247.9,263.5L1247.9,263.5z"/>
		</g>
	</g>
	
		<radialGradient id="SVGID_00000085215980599028960180000000069471801405855159_" cx="770.8442" cy="130.1549" r="85.9569" fx="771.3851" fy="161.0688" gradientTransform="matrix(1 0 0 -1 0 376)" gradientUnits="userSpaceOnUse">
		<stop  offset="0.3211" style="stop-color:#ED7EDF;stop-opacity:0.8"/>
		<stop  offset="0.5118" style="stop-color:#EA7DDE;stop-opacity:0.5736"/>
		<stop  offset="0.6448" style="stop-color:#E17ADB;stop-opacity:0.4157"/>
		<stop  offset="0.7603" style="stop-color:#D276D5;stop-opacity:0.2786"/>
		<stop  offset="0.8657" style="stop-color:#BC6FCD;stop-opacity:0.1535"/>
		<stop  offset="0.9635" style="stop-color:#A066C3;stop-opacity:3.740000e-02"/>
		<stop  offset="0.995" style="stop-color:#9563BF;stop-opacity:0"/>
	</radialGradient>
	<path style="fill:url(#SVGID_00000085215980599028960180000000069471801405855159_);" d="M770.8,157.4c-48.8,0-88.4,39.6-88.4,88.4
		s39.6,88.4,88.4,88.4s88.4-39.6,88.4-88.4C859.3,197,819.7,157.4,770.8,157.4z M770.8,309c-34.9,0-63.2-28.3-63.2-63.2
		s28.3-63.2,63.2-63.2S834,211,834,245.8S805.7,309,770.8,309z"/>
	
		<linearGradient id="SVGID_00000096778181503345451710000016659063341700618412_" gradientUnits="userSpaceOnUse" x1="541.4014" y1="191.7781" x2="1028.4521" y2="137.7624" gradientTransform="matrix(1 0 0 -1 0 376)">
		<stop  offset="0" style="stop-color:#51BBEB;stop-opacity:0"/>
		<stop  offset="2.550000e-02" style="stop-color:#59B8EA;stop-opacity:2.550000e-02"/>
		<stop  offset="0.1902" style="stop-color:#86A6E7;stop-opacity:0.1902"/>
		<stop  offset="0.356" style="stop-color:#AB98E4;stop-opacity:0.356"/>
		<stop  offset="0.5206" style="stop-color:#C88DE2;stop-opacity:0.5206"/>
		<stop  offset="0.6835" style="stop-color:#DC84E0;stop-opacity:0.6835"/>
		<stop  offset="0.8442" style="stop-color:#E980DF;stop-opacity:0.8442"/>
		<stop  offset="1" style="stop-color:#ED7EDF"/>
	</linearGradient>
	<path style="fill:url(#SVGID_00000096778181503345451710000016659063341700618412_);" d="M341.8,372.1
		c192.7,0,199.3-307.7,429.1-307.7c111.9,0,159.7,83,141.8,152.8c1.9,9.3,2.9,18.9,2.9,28.7c0,48.8-24.1,91.9-61.1,118.1l0,0
		C1074.8,258.1,985.6,1.3,770.8,1.3c-159.2,0-232.2,125.5-306,216.2c-32.4,37.4-69,89.6-123,91.6"/>
</g>
</svg>
