<?xml version="1.0" encoding="UTF-8" standalone="no"?>
<svg
   xmlns:dc="http://purl.org/dc/elements/1.1/"
   xmlns:cc="http://creativecommons.org/ns#"
   xmlns:rdf="http://www.w3.org/1999/02/22-rdf-syntax-ns#"
   xmlns:svg="http://www.w3.org/2000/svg"
   xmlns="http://www.w3.org/2000/svg"
   xmlns:xlink="http://www.w3.org/1999/xlink"
   xmlns:sodipodi="http://sodipodi.sourceforge.net/DTD/sodipodi-0.dtd"
   xmlns:inkscape="http://www.inkscape.org/namespaces/inkscape"
   width="1510.0639"
   height="373.89671"
   viewBox="0 0 1510.0639 373.89671"
   version="1.1"
   id="svg238"
   sodipodi:docname="fo-title.svg"
   inkscape:version="0.92.4 (5da689c313, 2019-01-14)">
  <metadata
     id="metadata242">
    <rdf:RDF>
      <cc:Work
         rdf:about="">
        <dc:format>image/svg+xml</dc:format>
        <dc:type
           rdf:resource="http://purl.org/dc/dcmitype/StillImage" />
      </cc:Work>
    </rdf:RDF>
  </metadata>
  <sodipodi:namedview
     pagecolor="#ffffff"
     bordercolor="#666666"
     borderopacity="1"
     objecttolerance="10"
     gridtolerance="10"
     guidetolerance="10"
     inkscape:pageopacity="0"
     inkscape:pageshadow="2"
     inkscape:window-width="2498"
     inkscape:window-height="1417"
     id="namedview240"
     showgrid="false"
     inkscape:zoom="0.45428543"
     inkscape:cx="800.71268"
     inkscape:cy="-267.4681"
     inkscape:window-x="54"
     inkscape:window-y="-8"
     inkscape:window-maximized="1"
     inkscape:current-layer="svg238" />
  <defs
     id="defs96">
    <linearGradient
       id="Gradient_bez_nazwy_16"
       data-name="Gradient bez nazwy 16"
       x1="1318.48312"
       y1="358.96971"
       x2="1318.48312"
       y2="153.66771"
       gradientUnits="userSpaceOnUse">
      <stop
         offset="0"
         stop-color="#9562bf"
         id="stop2" />
      <stop
         offset="1"
         stop-color="#78c3e7"
         id="stop4" />
    </linearGradient>
    <linearGradient
       id="Gradient_bez_nazwy_16-2"
       x1="1245.59857"
       y1="358.96971"
       x2="1245.59857"
       y2="153.66771"
       xlink:href="#Gradient_bez_nazwy_16" />
    <linearGradient
       id="Gradient_bez_nazwy_16-3"
       x1="1181.17555"
       y1="358.96971"
       x2="1181.17555"
       y2="153.66771"
       xlink:href="#Gradient_bez_nazwy_16" />
    <linearGradient
       id="Gradient_bez_nazwy_16-4"
       x1="1245.63106"
       y1="358.96971"
       x2="1245.63106"
       y2="153.66771"
       xlink:href="#Gradient_bez_nazwy_16" />
    <linearGradient
       id="Gradient_bez_nazwy_16-5"
       x1="504.61492"
       y1="340.10621"
       x2="504.61492"
       y2="145.77518"
       xlink:href="#Gradient_bez_nazwy_16" />
    <linearGradient
       id="Gradient_bez_nazwy_16-6"
       x1="418.75799"
       y1="79.0955"
       x2="514.93723"
       y2="79.0955"
       xlink:href="#Gradient_bez_nazwy_16" />
    <linearGradient
       id="Gradient_bez_nazwy_508"
       data-name="Gradient bez nazwy 508"
       x1="114.82565"
       y1="328.85364"
       x2="114.82565"
       y2="73.01042"
       gradientUnits="userSpaceOnUse">
      <stop
         offset="0"
         stop-color="#9562bf"
         id="stop12" />
      <stop
         offset="0.86591"
         stop-color="#73eaff"
         id="stop14" />
    </linearGradient>
    <linearGradient
       id="Gradient_bez_nazwy_16-7"
       x1="112.24831"
       y1="389.32577"
       x2="112.24831"
       y2="133.48255"
       xlink:href="#Gradient_bez_nazwy_16" />
    <linearGradient
       id="Gradient_bez_nazwy_16-8"
       x1="112.24831"
       y1="373.85704"
       x2="112.24831"
       y2="118.01382"
       xlink:href="#Gradient_bez_nazwy_16" />
    <linearGradient
       id="Gradient_bez_nazwy_517"
       data-name="Gradient bez nazwy 517"
       x1="775.76253"
       y1="297.37441"
       x2="775.76253"
       y2="39.85642"
       xlink:href="#Gradient_bez_nazwy_508" />
    <linearGradient
       id="Gradient_bez_nazwy_16-9"
       x1="647.22722"
       y1="252.44735"
       x2="904.74527"
       y2="252.44735"
       xlink:href="#Gradient_bez_nazwy_16" />
    <linearGradient
       id="Gradient_bez_nazwy_16-10"
       x1="775.76107"
       y1="384.86117"
       x2="775.76107"
       y2="127.34311"
       xlink:href="#Gradient_bez_nazwy_16" />
    <linearGradient
       id="Gradient_bez_nazwy_16-11"
       x1="971.86033"
       y1="284.89023"
       x2="971.86033"
       y2="192.202"
       xlink:href="#Gradient_bez_nazwy_16" />
    <linearGradient
       id="Gradient_bez_nazwy_508-2"
       x1="1069.12805"
       y1="287.77952"
       x2="1069.12805"
       y2="80.18599"
       xlink:href="#Gradient_bez_nazwy_508" />
    <linearGradient
       id="Gradient_bez_nazwy_18"
       data-name="Gradient bez nazwy 18"
       x1="1047.92543"
       y1="371.3303"
       x2="1047.92543"
       y2="163.73678"
       gradientUnits="userSpaceOnUse">
      <stop
         offset="0"
         stop-color="#9562bf"
         id="stop24" />
      <stop
         offset="0.48254"
         stop-color="#8791d2"
         id="stop26" />
      <stop
         offset="1"
         stop-color="#78c3e7"
         id="stop28" />
    </linearGradient>
    <linearGradient
       id="Gradient_bez_nazwy_508-3"
       x1="1419.33274"
       y1="278.81054"
       x2="1419.33274"
       y2="84.77693"
       xlink:href="#Gradient_bez_nazwy_508" />
    <linearGradient
       id="Gradient_bez_nazwy_16-12"
       x1="1454.0629"
       y1="339.39202"
       x2="1454.0629"
       y2="145.35842"
       xlink:href="#Gradient_bez_nazwy_16" />
    <linearGradient
       id="Gradient_bez_nazwy_475"
       data-name="Gradient bez nazwy 475"
       x1="1381.01314"
       y1="327.27573"
       x2="1381.01314"
       y2="133.24212"
       gradientUnits="userSpaceOnUse">
      <stop
         offset="0"
         stop-color="#9562bf"
         id="stop33" />
      <stop
         offset="1"
         stop-color="#8b82cc"
         id="stop35" />
      <stop
         offset="1"
         stop-color="#78c3e7"
         id="stop37" />
    </linearGradient>
    <linearGradient
       id="Gradient_bez_nazwy_16-13"
       x1="1414.53701"
       y1="354.86076"
       x2="1414.53701"
       y2="160.82715"
       xlink:href="#Gradient_bez_nazwy_16" />
    <linearGradient
       id="Gradient_bez_nazwy_16-14"
       x1="1414.53701"
       y1="339.39202"
       x2="1414.53701"
       y2="145.35842"
       xlink:href="#Gradient_bez_nazwy_16" />
    <linearGradient
       id="Gradient_bez_nazwy_16-15"
       x1="1318.45277"
       y1="343.50097"
       x2="1318.45277"
       y2="138.19897"
       xlink:href="#Gradient_bez_nazwy_16" />
    <linearGradient
       id="Gradient_bez_nazwy_16-16"
       x1="1137.84981"
       y1="343.50097"
       x2="1137.84981"
       y2="138.19897"
       xlink:href="#Gradient_bez_nazwy_16" />
    <linearGradient
       id="Gradient_bez_nazwy_16-17"
       x1="1245.6282"
       y1="343.50097"
       x2="1245.6282"
       y2="138.19897"
       xlink:href="#Gradient_bez_nazwy_16" />
    <linearGradient
       id="Gradient_bez_nazwy_508-4"
       x1="1282.04485"
       y1="288.68915"
       x2="1282.04485"
       y2="83.38715"
       xlink:href="#Gradient_bez_nazwy_508" />
    <linearGradient
       id="Gradient_bez_nazwy_508-5"
       x1="1152.02784"
       y1="288.11218"
       x2="1152.02784"
       y2="82.81019"
       xlink:href="#Gradient_bez_nazwy_508" />
    <linearGradient
       id="Gradient_bez_nazwy_475-2"
       x1="1213.39919"
       y1="315.69578"
       x2="1213.39919"
       y2="251.21969"
       xlink:href="#Gradient_bez_nazwy_475" />
    <linearGradient
       id="Gradient_bez_nazwy_18-2"
       x1="1122.43849"
       y1="371.3303"
       x2="1122.43849"
       y2="163.73678"
       xlink:href="#Gradient_bez_nazwy_18" />
    <linearGradient
       id="Gradient_bez_nazwy_16-18"
       x1="1122.43849"
       y1="343.50097"
       x2="1122.43849"
       y2="138.19897"
       xlink:href="#Gradient_bez_nazwy_16" />
    <linearGradient
       id="Gradient_bez_nazwy_286"
       data-name="Gradient bez nazwy 286"
       x1="1217.27149"
       y1="343.50097"
       x2="1217.27149"
       y2="138.19897"
       gradientUnits="userSpaceOnUse">
      <stop
         offset="0"
         stop-color="#9562bf"
         id="stop50" />
      <stop
         offset="1"
         stop-color="#682da6"
         id="stop52" />
    </linearGradient>
    <linearGradient
       id="Gradient_bez_nazwy_16-19"
       x1="1217.27149"
       y1="358.96971"
       x2="1217.27149"
       y2="153.66771"
       xlink:href="#Gradient_bez_nazwy_16" />
    <linearGradient
       id="Gradient_bez_nazwy_16-20"
       x1="504.67298"
       y1="324.63748"
       x2="504.67298"
       y2="130.30645"
       xlink:href="#Gradient_bez_nazwy_16" />
    <linearGradient
       id="Gradient_bez_nazwy_16-21"
       x1="583.4622"
       y1="324.63748"
       x2="583.4622"
       y2="130.30645"
       xlink:href="#Gradient_bez_nazwy_16" />
    <linearGradient
       id="Gradient_bez_nazwy_16-22"
       x1="601.7218"
       y1="257.70936"
       x2="601.7218"
       y2="63.37833"
       xlink:href="#Gradient_bez_nazwy_16" />
    <linearGradient
       id="Gradient_bez_nazwy_16-23"
       x1="544.05485"
       y1="340.10621"
       x2="544.05485"
       y2="145.77518"
       xlink:href="#Gradient_bez_nazwy_16" />
    <linearGradient
       id="Gradient_bez_nazwy_16-24"
       x1="544.05485"
       y1="324.63748"
       x2="544.05485"
       y2="130.30645"
       xlink:href="#Gradient_bez_nazwy_16" />
    <linearGradient
       id="Gradient_bez_nazwy_16-25"
       x1="638.30521"
       y1="340.10621"
       x2="638.30521"
       y2="145.77518"
       xlink:href="#Gradient_bez_nazwy_16" />
    <linearGradient
       id="Gradient_bez_nazwy_16-26"
       x1="638.30521"
       y1="324.63748"
       x2="638.30521"
       y2="130.30645"
       xlink:href="#Gradient_bez_nazwy_16" />
    <linearGradient
       id="Gradient_bez_nazwy_16-27"
       x1="314.71652"
       y1="86.73949"
       x2="405.56962"
       y2="86.73949"
       xlink:href="#Gradient_bez_nazwy_16" />
    <linearGradient
       id="Gradient_bez_nazwy_16-28"
       x1="314.71652"
       y1="85.47025"
       x2="405.56962"
       y2="85.47025"
       xlink:href="#Gradient_bez_nazwy_16" />
    <linearGradient
       id="Gradient_bez_nazwy_16-29"
       x1="418.75799"
       y1="83.12623"
       x2="504.47707"
       y2="83.12623"
       xlink:href="#Gradient_bez_nazwy_16" />
    <linearGradient
       id="Gradient_bez_nazwy_16-30"
       x1="156.44201"
       y1="79.78579"
       x2="253.79306"
       y2="79.78579"
       xlink:href="#Gradient_bez_nazwy_16" />
    <linearGradient
       id="Gradient_bez_nazwy_16-31"
       x1="156.44201"
       y1="79.49284"
       x2="253.79306"
       y2="79.49284"
       xlink:href="#Gradient_bez_nazwy_16" />
    <linearGradient
       id="Gradient_bez_nazwy_16-32"
       x1="87.04323"
       y1="87.02324"
       x2="118.09842"
       y2="87.02324"
       xlink:href="#Gradient_bez_nazwy_16" />
    <linearGradient
       id="Gradient_bez_nazwy_16-33"
       x1="457.67357"
       y1="89.49857"
       x2="457.67357"
       y2="152.16074"
       xlink:href="#Gradient_bez_nazwy_16" />
    <linearGradient
       id="Gradient_bez_nazwy_16-34"
       x1="403.32662"
       y1="151.25476"
       x2="512.02053"
       y2="151.25476"
       xlink:href="#Gradient_bez_nazwy_16" />
    <linearGradient
       id="Gradient_bez_nazwy_16-35"
       x1="461.86864"
       y1="237.79973"
       x2="461.86864"
       y2="129.10582"
       xlink:href="#Gradient_bez_nazwy_16" />
    <linearGradient
       id="Gradient_bez_nazwy_16-36"
       x1="265.70469"
       y1="85.57232"
       x2="296.45"
       y2="85.57232"
       xlink:href="#Gradient_bez_nazwy_16" />
    <linearGradient
       id="Gradient_bez_nazwy_99"
       data-name="Gradient bez nazwy 99"
       x1="733.61498"
       y1="252.90745"
       x2="816.43546"
       y2="252.90745"
       gradientUnits="userSpaceOnUse">
      <stop
         offset="0"
         stop-color="#feaaff"
         id="stop73" />
      <stop
         offset="1"
         stop-color="#eaa3f6"
         id="stop75" />
    </linearGradient>
    <linearGradient
       id="Gradient_bez_nazwy_133"
       data-name="Gradient bez nazwy 133"
       x1="281.15602"
       y1="161.40689"
       x2="984.59097"
       y2="161.40689"
       gradientUnits="userSpaceOnUse">
      <stop
         offset="0"
         stop-color="#9562bf"
         id="stop78" />
      <stop
         offset="1"
         stop-color="#9f9fdb"
         stop-opacity="0.8"
         id="stop80" />
    </linearGradient>
    <linearGradient
       id="Gradient_bez_nazwy_508-6"
       x1="333.00902"
       y1="303.8668"
       x2="333.00902"
       y2="80.09123"
       xlink:href="#Gradient_bez_nazwy_508" />
    <linearGradient
       id="Gradient_bez_nazwy_16-37"
       x1="599.9182"
       y1="380.49399"
       x2="599.9182"
       y2="156.71842"
       xlink:href="#Gradient_bez_nazwy_16" />
    <linearGradient
       id="Gradient_bez_nazwy_23"
       data-name="Gradient bez nazwy 23"
       x1="215.42309"
       y1="194.47697"
       x2="984.41331"
       y2="194.47697"
       gradientUnits="userSpaceOnUse">
      <stop
         offset="0"
         stop-color="#feaaff"
         stop-opacity="0"
         id="stop85" />
      <stop
         offset="1"
         stop-color="#feaaff"
         stop-opacity="0.9"
         id="stop87" />
    </linearGradient>
    <linearGradient
       id="Gradient_bez_nazwy_16-38"
       x1="599.9182"
       y1="365.02525"
       x2="599.9182"
       y2="141.24968"
       xlink:href="#Gradient_bez_nazwy_16" />
    <radialGradient
       id="Gradient_bez_nazwy_515"
       data-name="Gradient bez nazwy 515"
       cx="775.76107"
       cy="252.44735"
       r="125.04179"
       gradientUnits="userSpaceOnUse">
      <stop
         offset="0"
         stop-color="#f6abff"
         id="stop91" />
      <stop
         offset="1"
         stop-color="#e5a2e7"
         stop-opacity="0"
         id="stop93" />
    </radialGradient>
  </defs>
  <title
     id="title98">FO</title>
  <g
     id="Warstwa_2"
     data-name="Warstwa 2">
    <g
       id="Warstwa_1-2"
       data-name="Warstwa 1">
      <g
         id="g234">
        <path
           d="M775.08868,303.81754a58.75673,58.75673,0,0,0,58.118-51.06365,58.6319,58.6319,0,0,0-116.23648.04421A58.56536,58.56536,0,0,0,775.08868,303.81754ZM733.61519,244.8963a41.41051,41.41051,0,1,1,82.81912.53577,42.65523,42.65523,0,0,1-.712,7.4252,42.50847,42.50847,0,0,1,.712,8.04352,41.41055,41.41055,0,1,1-82.81912-.53577,41.91008,41.91008,0,0,1,.71445-7.54127A43.11291,43.11291,0,0,1,733.61519,244.8963Z"
           style="fill: none"
           id="path100" />
        <path
           d="M583.63227,194.46373c-.0771,1.00328-.11455,2.01-.13945,3.01762q3.675-3.81276,7.39562-7.58077c-1.94987.05551-3.91208.13868-5.94339.20558A22.63927,22.63927,0,0,0,583.63227,194.46373Z"
           style="fill: none"
           id="path102" />
        <path
           d="M1318.44544,140.542q.0029,2.44989.00414,4.89977A43.99933,43.99933,0,0,0,1318.44544,140.542Z"
           style="fill: url(#Gradient_bez_nazwy_16)"
           id="path104" />
        <path
           d="M1245.628,146.33716q0-2.75019.00055-5.5003C1245.49646,142.71052,1245.6228,144.53715,1245.628,146.33716Z"
           style="fill: url(#Gradient_bez_nazwy_16-2)"
           id="path106" />
        <path
           d="M1181.16347,198.00651q.00786-23.15415.01517-46.30836c-.00028-2.37792.023-4.7575-.00248-7.13493Q1181.17119,171.28476,1181.16347,198.00651Z"
           style="fill: url(#Gradient_bez_nazwy_16-3)"
           id="path108" />
        <path
           d="M1245.62777,162.94418q.00083,15.60309.00634,31.20611Q1245.63576,178.54731,1245.62777,162.94418Z"
           style="fill: url(#Gradient_bez_nazwy_16-4)"
           id="path110" />
        <path
           d="M504.61688,289.43707c-.03193.44405-.06324.88838-.06021,1.35636q.13758,21.14452.116,42.29009Q504.67764,311.26008,504.61688,289.43707Z"
           style="fill: url(#Gradient_bez_nazwy_16-5)"
           id="path112" />
        <path
           d="M514.93073,82.38794q.00074-3.2944-.10834-6.58488C514.81943,77.98816,514.91308,80.18319,514.93073,82.38794Z"
           style="fill: url(#Gradient_bez_nazwy_16-6)"
           id="path114" />
        <path
           d="M105.62736,135.98075c44.47746-8.43268,83.14987,4.71991,115.61622,36.00305,1.72519-3.04679,3.53747-6.09482,5.47568-9.14479-1.87-2.23806-3.149-4.073-4.72157-5.60622-32.62034-31.80658-71.54957-45.21861-116.37033-36.72083-43.62073,8.27041-74.223,34.52076-92.64555,74.65878-8.39537,18.29152-10.78632,37.74783-9.86387,57.67688.7326-14.51937,3.65588-28.68234,9.86387-42.20816C31.40436,170.50151,62.00663,144.25109,105.62736,135.98075Z"
           style="fill: url(#Gradient_bez_nazwy_508)"
           id="path116" />
        <path
           d="M200.43574,253.87055q-2.42507-40.76532,20.80784-81.88675c-32.46635-31.28314-71.13876-44.43573-115.61622-36.003-43.62073,8.27034-74.223,34.52076-92.64555,74.65871-6.208,13.52582-9.13127,27.68879-9.86387,42.20816.08331,1.79931.18344,3.60112.319,5.40767,4.248,56.62988,46.38685,96.508,85.26567,109.14858A130.24415,130.24415,0,0,0,149.0261,372.353c27.92581-4.17751,52.02458-16.10793,71.92825-36.2589.13807-.13979.28254-.2771.42433-.4153Q198.04372,294.93657,200.43574,253.87055Z"
           style="fill: url(#Gradient_bez_nazwy_16-7)"
           id="path118" />
        <path
           d="M200.43574,253.87055q-2.42507-40.76532,20.80784-81.88675c-32.46635-31.28314-71.13876-44.43573-115.61622-36.003-43.62073,8.27034-74.223,34.52076-92.64555,74.65871-6.208,13.52582-9.13127,27.68879-9.86387,42.20816.08331,1.79931.18344,3.60112.319,5.40767,4.248,56.62988,46.38685,96.508,85.26567,109.14858A130.24415,130.24415,0,0,0,149.0261,372.353c27.92581-4.17751,52.02458-16.10793,71.92825-36.2589.13807-.13979.28254-.2771.42433-.4153Q198.04372,294.93657,200.43574,253.87055Z"
           style="fill: url(#Gradient_bez_nazwy_16-8)"
           id="path120" />
        <path
           d="M774.97668,131.0325c64.56912.00235,125.25934,48.66346,129.31824,121.376q.19779-3.40283.224-6.83446c.46923-77.47165-62.44823-130.00787-129.54223-130.01021C713.73283,114.002,647.26287,165.58,647.00419,244.41363c-.0089,2.71349.07269,5.39781.223,8.05807C651.47142,177.83381,715.67359,129.52021,774.97668,131.0325Z"
           style="fill: url(#Gradient_bez_nazwy_517)"
           id="path122" />
        <path
           d="M775.08868,319.28626a58.77693,58.77693,0,0,0,58.64408-58.5234,58.07414,58.07414,0,0,0-.526-8.009,58.60882,58.60882,0,0,1-116.23648.04421,58.68247,58.68247,0,0,0,58.11845,66.48816Z"
           style="fill: #c27be3"
           id="path124" />
        <path
           d="M773.386,373.89662c75.1471.08372,127.12341-56.35271,130.90894-121.48816-4.0589-72.7125-64.74912-121.37361-129.31824-121.376-59.30309-1.51229-123.50526,46.80131-127.74946,121.4392C651.197,322.73249,709.748,373.82572,773.386,373.89662Zm-56.9367-128.51744a58.67008,58.67008,0,0,1,58.138-58.95773c32.569-.20668,59.318,26.41876,59.14545,58.87263a59.41481,59.41481,0,0,1-.526,7.45981,58.07414,58.07414,0,0,1,.526,8.009,58.64211,58.64211,0,1,1-116.76253-7.96476A59.65307,59.65307,0,0,1,716.44928,245.37918Z"
           style="fill: url(#Gradient_bez_nazwy_16-9)"
           id="path126" />
        <path
           d="M773.386,373.89662c75.1471.08372,127.12341-56.35271,130.90894-121.48816-4.0589-72.7125-64.74912-121.37361-129.31824-121.376-59.30309-1.51229-123.50526,46.80131-127.74946,121.4392C651.197,322.73249,709.748,373.82572,773.386,373.89662Zm-56.9367-128.51744a58.67008,58.67008,0,0,1,58.138-58.95773c32.569-.20668,59.318,26.41876,59.14545,58.87263a59.41481,59.41481,0,0,1-.526,7.45981,58.07414,58.07414,0,0,1,.526,8.009,58.64211,58.64211,0,1,1-116.76253-7.96476A59.65307,59.65307,0,0,1,716.44928,245.37918Z"
           style="fill: url(#Gradient_bez_nazwy_16-10)"
           id="path128" />
        <path
           d="M982.04939,278.908A162.70072,162.70072,0,0,0,999.315,197.4848a161.5805,161.5805,0,0,1-17.26562,65.95446A165.70415,165.70415,0,0,1,948.75355,308.253c-2.73411,2.64536-4.56357,5.30348-4.51392,9.36672.05655,4.63825.07476,9.277.08345,13.9158.37695-3.21672,2.06159-5.52174,4.43047-7.81373A165.70512,165.70512,0,0,0,982.04939,278.908Z"
           style="fill: url(#Gradient_bez_nazwy_16-11)"
           id="path130" />
        <path
           d="M1018.79725,133.4229q20.50275-.11679,41.00619-.00586c9.78243.047,19.55437.66943,29.06385,3.032a116.94974,116.94974,0,0,1,18.25579,5.9229c17.17363,7.43465,29.58507,19.97512,36.47808,37.34922a114.2544,114.2544,0,0,1,7.92662,33.91781,110.472,110.472,0,0,0-7.92662-49.38653,68.14073,68.14073,0,0,0-10.41717-17.93815c-1.72394-1.56884-3.52085-3.08665-5.40768-4.5415-1.539-1.18651-2.98472-2.49578-4.44261-3.78339-.1553-.13717-.14151-.48274-.40578-1.74146a71.45732,71.45732,0,0,0-15.80484-9.34478,116.94109,116.94109,0,0,0-18.25579-5.92284c-9.50948-2.36254-19.28142-2.98493-29.06385-3.032q-20.50275-.09849-41.00619.00586c-8.64371.04917-17.28687.26909-25.92864.47826-2.16489.05241-4.53957-.30937-6.43344,2.50453.72508,2.22317,1.53526,4.86011,2.44212,7.4634q.96246,2.76373,1.8416,5.54506c.723-.05241,1.4474-.02724,2.14972-.04428C1001.51038,133.692,1010.15354,133.47207,1018.79725,133.4229Z"
           style="fill: url(#Gradient_bez_nazwy_508-2)"
           id="path132" />
        <path
           d="M944.369,360.33515a49.5971,49.5971,0,0,0,.92507,6.84011c3.429,2.14689,6.57647,1.55919,9.57995,1.562q30.96351.02865,61.92728-.09807c9.46451-.03593,9.63526-.22344,9.65816-10.02594.03917-16.75164-.00207-33.50341.02524-50.25512.005-3.04052.17668-6.0809.30633-10.23938,3.35106-.28233,5.79222-.63218,8.23752-.66611,6.41482-.08883,12.83253.02779,19.24735-.05924,15.7567-.21386,31.13356-2.574,45.73431-8.75915,23.46251-9.93905,39.58059-26.98212,47.03909-51.34213a108.19515,108.19515,0,0,0,4.47847-23.6532,114.2544,114.2544,0,0,0-7.92662-33.91781c-6.893-17.3741-19.30445-29.91457-36.47808-37.34922a116.94974,116.94974,0,0,0-18.25579-5.9229c-9.50948-2.36254-19.28142-2.98493-29.06385-3.032q-20.50275-.09847-41.00619.00586c-8.64371.04917-17.28687.2691-25.92864.47826-.70232.017-1.42671-.00813-2.14972.04428a185.431,185.431,0,0,1,8.16855,40.98709,177.59446,177.59446,0,0,1,.42757,22.55227A162.70072,162.70072,0,0,1,982.04939,278.908a165.70512,165.70512,0,0,1-33.29584,44.81373c-2.36888,2.292-4.05352,4.597-4.43047,7.81373C944.34087,341.13524,944.302,350.73561,944.369,360.33515Z"
           style="fill: url(#Gradient_bez_nazwy_18)"
           id="path134" />
        <path
           d="M1357.92824,156.7326c13.00866-11.79229,28.41062-18.69468,45.54714-21.47879,34.478-5.60161,65.24152,3.02672,92.18791,25.22638,1.06549.87777,2.13552,1.76408,3.17052,2.70053a29.37306,29.37306,0,0,0,5.3805-8.78839c-2.09013-4.085-5.3565-6.74908-8.551-9.38085-26.94639-22.19966-57.7099-30.828-92.18791-25.22639-17.13652,2.78411-32.53848,9.6865-45.54714,21.47872a71.5904,71.5904,0,0,0-23.0657,60.94242A71.11567,71.11567,0,0,1,1357.92824,156.7326Z"
           style="fill: url(#Gradient_bez_nazwy_508-3)"
           id="path136" />
        <path
           d="M1403.1587,215.61212a94.586,94.586,0,0,0,13.92519,7.55533c14.54557,6.41185,29.29087,12.37227,43.80031,18.86253a128.38394,128.38394,0,0,1,19.14431,10.22862c18.31966,12.28627,27.818,28.947,29.6841,48.92565.00635-.0731.01531-.14447.02152-.21771,2.2453-26.815-6.90129-48.88269-29.70562-64.17666a128.37652,128.37652,0,0,0-19.14431-10.22861c-14.50944-6.49027-29.25474-12.45069-43.80031-18.86254a94.58547,94.58547,0,0,1-13.92519-7.5554,11.385,11.385,0,0,1-2.2893-2.007C1396.59382,203.34453,1397.08222,211.5995,1403.1587,215.61212Z"
           style="fill: url(#Gradient_bez_nazwy_16-12)"
           id="path138" />
        <path
           d="M1328.06139,282.46558c.21075-1.8387.79583-3.63443,1.43581-6.44309,4.49323,2.35212,6.897,5.08975,9.48437,7.56415,7.86456,7.522,15.61188,15.168,23.53065,22.63179a96.46978,96.46978,0,0,0,35.586,21.38451,68.46552,68.46552,0,0,0,28.88343,3.26189,35.3984,35.3984,0,0,0,11.23824-2.91721,12.91217,12.91217,0,0,0,5.20272-19.60451,13.6123,13.6123,0,0,1-5.20272,4.1358,35.39893,35.39893,0,0,1-11.23824,2.91721,68.467,68.467,0,0,1-28.88343-3.26189,96.47074,96.47074,0,0,1-35.586-21.38452c-7.91877-7.46382-15.66609-15.10983-23.53065-22.63178-2.58736-2.4744-4.99114-5.212-9.48437-7.56416-.64,2.80859-1.22506,4.60433-1.43581,6.44309-.66784,5.82242-1.06341,11.678-1.80629,17.48975-1.45484,11.38-3.70235,22.57475-8.1222,33.24888-2.84873,6.88011-3.11576,7.641,1.22851,12.29434a134.74222,134.74222,0,0,0,6.89369-30.0745C1326.998,294.14366,1327.39355,288.28807,1328.06139,282.46558Z"
           style="fill: url(#Gradient_bez_nazwy_475)"
           id="path140" />
        <path
           d="M1423.62711,373.64421c15.17728-.4684,29.91-3.723,43.52805-10.79736,25.06053-13.01852,40.10815-33.23728,42.55745-61.6626-1.86614-19.97863-11.36444-36.63938-29.6841-48.92565A128.38394,128.38394,0,0,0,1460.8842,242.03c-14.50944-6.49026-29.25474-12.45068-43.80031-18.86253a94.586,94.586,0,0,1-13.92519-7.55533c-6.07648-4.01262-6.56488-12.26759-2.2893-17.47575-4.94686-5.63747-3.22513-15.17032,4.11366-18.71571a27.13162,27.13162,0,0,1,10.32585-2.96611,109.24606,109.24606,0,0,1,19.15108.83914c10.99742,1.51561,20.63558,6.56282,29.69389,12.82274,2.70722,1.87056,5.0259,4.50226,8.87611,4.976,4.94825-3.164,7.54113-8.6073,11.21438-13.07,3.545-4.3071,6.93425-8.75481,10.18048-13.29238,1.36851-1.91311,2.91715-3.71139,4.409-5.54933-1.035-.93645-2.105-1.82276-3.17052-2.70053-26.94639-22.19966-57.7099-30.828-92.18791-25.22638-17.13652,2.78411-32.53848,9.6865-45.54714,21.47879a71.11567,71.11567,0,0,0-23.0657,45.47363,67.92855,67.92855,0,0,0,18.61206,40.47635,91.4643,91.4643,0,0,0,28.92095,19.59279q21.06859,9.2553,42.09705,18.60157c3.81767,1.702,7.62485,3.4763,11.24817,5.54809a26.4446,26.4446,0,0,1,6.58116,5.066c4.60743,5.14348,4.74646,12.039,1.10065,16.852a12.91217,12.91217,0,0,1-5.20272,19.60451,35.3984,35.3984,0,0,1-11.23824,2.91721,68.46552,68.46552,0,0,1-28.88343-3.26189,96.46978,96.46978,0,0,1-35.586-21.38451c-7.91877-7.46382-15.66609-15.10983-23.53065-22.63179-2.58736-2.4744-4.99114-5.212-9.48437-7.56415-.64,2.80866-1.22506,4.60439-1.43581,6.44309-.66784,5.82249-1.06341,11.67808-1.80629,17.48975a134.74222,134.74222,0,0,1-6.89369,30.0745c.44439.476.92079.979,1.46422,1.54753C1348.83475,360.87878,1383.21166,374.89162,1423.62711,373.64421Z"
           style="fill: url(#Gradient_bez_nazwy_16-13)"
           id="path142" />
        <path
           d="M1423.62711,373.64421c15.17728-.4684,29.91-3.723,43.52805-10.79736,25.06053-13.01852,40.10815-33.23728,42.55745-61.6626-1.86614-19.97863-11.36444-36.63938-29.6841-48.92565A128.38394,128.38394,0,0,0,1460.8842,242.03c-14.50944-6.49026-29.25474-12.45068-43.80031-18.86253a94.586,94.586,0,0,1-13.92519-7.55533c-6.07648-4.01262-6.56488-12.26759-2.2893-17.47575-4.94686-5.63747-3.22513-15.17032,4.11366-18.71571a27.13162,27.13162,0,0,1,10.32585-2.96611,109.24606,109.24606,0,0,1,19.15108.83914c10.99742,1.51561,20.63558,6.56282,29.69389,12.82274,2.70722,1.87056,5.0259,4.50226,8.87611,4.976,4.94825-3.164,7.54113-8.6073,11.21438-13.07,3.545-4.3071,6.93425-8.75481,10.18048-13.29238,1.36851-1.91311,2.91715-3.71139,4.409-5.54933-1.035-.93645-2.105-1.82276-3.17052-2.70053-26.94639-22.19966-57.7099-30.828-92.18791-25.22638-17.13652,2.78411-32.53848,9.6865-45.54714,21.47879a71.11567,71.11567,0,0,0-23.0657,45.47363,67.92855,67.92855,0,0,0,18.61206,40.47635,91.4643,91.4643,0,0,0,28.92095,19.59279q21.06859,9.2553,42.09705,18.60157c3.81767,1.702,7.62485,3.4763,11.24817,5.54809a26.4446,26.4446,0,0,1,6.58116,5.066c4.60743,5.14348,4.74646,12.039,1.10065,16.852a12.91217,12.91217,0,0,1-5.20272,19.60451,35.3984,35.3984,0,0,1-11.23824,2.91721,68.46552,68.46552,0,0,1-28.88343-3.26189,96.46978,96.46978,0,0,1-35.586-21.38451c-7.91877-7.46382-15.66609-15.10983-23.53065-22.63179-2.58736-2.4744-4.99114-5.212-9.48437-7.56415-.64,2.80866-1.22506,4.60439-1.43581,6.44309-.66784,5.82249-1.06341,11.67808-1.80629,17.48975a134.74222,134.74222,0,0,1-6.89369,30.0745c.44439.476.92079.979,1.46422,1.54753C1348.83475,360.87878,1383.21166,374.89162,1423.62711,373.64421Z"
           style="fill: url(#Gradient_bez_nazwy_16-14)"
           id="path144" />
        <path
           d="M1318.46751,182.093q.00537-18.32565-.01793-36.65124c-.005.23923-.01269.47929-.01242.717Q1318.4622,164.12577,1318.46751,182.093Z"
           style="fill: url(#Gradient_bez_nazwy_16-15)"
           id="path146" />
        <path
           d="M1137.55046,290.95108a93.7544,93.7544,0,0,0,24.09146-54.16244,141.4292,141.4292,0,0,0,.60495-23.01032q-.20917,3.76435-.60495,7.54161a93.75446,93.75446,0,0,1-24.09146,54.16244q-2.822,3.12609-5.90793,5.93407a78.554,78.554,0,0,1-18.40807,15.8214,19.75568,19.75568,0,0,0,.984,5.2061q.8499,2.99979,1.857,5.94055c.63446-.43357,1.37071-.89369,2.23716-1.42774A87.98626,87.98626,0,0,0,1137.55046,290.95108Z"
           style="fill: url(#Gradient_bez_nazwy_16-16)"
           id="path148" />
        <path
           d="M1245.628,146.33716q-.00021,8.3035-.00027,16.607-.00021-8.2371.00193-16.4742C1245.62984,146.42584,1245.628,146.38129,1245.628,146.33716Z"
           style="fill: url(#Gradient_bez_nazwy_16-17)"
           id="path150" />
        <path
           d="M1252.15941,135.17126q30.12145-.10417,60.24361.00889a25.13313,25.13313,0,0,1,4.72453.90156,10.71536,10.71536,0,0,1,1.31789,4.46026q-.00621-4.926-.00828-9.852c-.00469-3.26913.6157-6.68212-1.30961-10.077a25.12764,25.12764,0,0,0-4.72453-.90162q-30.12188-.10138-60.24361-.00883a30.28656,30.28656,0,0,0-5.46492.9899c-1.5434,3.61615-1.06176,7.004-1.06479,10.30882q-.00414,4.91777-.00111,9.8356a14.18428,14.18428,0,0,1,1.0659-4.6757A30.29179,30.29179,0,0,1,1252.15941,135.17126Z"
           style="fill: url(#Gradient_bez_nazwy_508-4)"
           id="path152" />
        <path
           d="M1180.15854,136.37618a25.754,25.754,0,0,1,.92576,4.43778c.05545,1.24858.07862,2.49875.09186,3.74926q.00083-4.167.00248-8.33386c-.00055-3.6287.06648-7.26182-.09434-10.88418a25.75358,25.75358,0,0,0-.92576-4.43778c-7.06018-1.67077-21.69416-2.01807-50.5205-1.24479-2.13344.05724-4.25668.50081-6.77439.81315.336,1.52077.30261,1.89683.47,2.04489,1.45789,1.28761,2.90363,2.59681,4.44261,3.78332a84.91054,84.91054,0,0,1,9.61278,8.6393C1161.14594,134.43494,1173.76151,134.86223,1180.15854,136.37618Z"
           style="fill: url(#Gradient_bez_nazwy_508-5)"
           id="path154" />
        <path
           d="M1181.25091,263.07851a219.03629,219.03629,0,0,0,1.52257,23.37321,50.93323,50.93323,0,0,0,3.18707,12.94584c4.028,10.18227,11.68512,16.04007,22.62075,17.48182,18.69274,2.46447,32.78013-8.12311,35.25646-27.28777a237.65353,237.65353,0,0,0,1.69429-29.22894q.16177-33.10573.10206-66.21238-.00247,25.372-.10206,50.7436a237.65542,237.65542,0,0,1-1.69429,29.229c-2.47633,19.1646-16.56372,29.75224-35.25646,27.2877-10.93563-1.44174-18.59275-7.29948-22.62075-17.48175a50.93385,50.93385,0,0,1-3.18707-12.94584,219.03641,219.03641,0,0,1-1.52257-23.37328q-.10095-24.80139-.08744-49.60321Q1181.15209,230.54279,1181.25091,263.07851Z"
           style="fill: url(#Gradient_bez_nazwy_475-2)"
           id="path156" />
        <path
           d="M1131.64253,281.41644a88.33846,88.33846,0,0,1-13.3299,10.07152c-3.503,2.15945-5.04948,3.16465-5.07817,5.74988A78.554,78.554,0,0,0,1131.64253,281.41644Z"
           style="fill: url(#Gradient_bez_nazwy_18-2)"
           id="path158" />
        <path
           d="M1131.64253,281.41644a88.33846,88.33846,0,0,1-13.3299,10.07152c-3.503,2.15945-5.04948,3.16465-5.07817,5.74988A78.554,78.554,0,0,0,1131.64253,281.41644Z"
           style="fill: url(#Gradient_bez_nazwy_16-18)"
           id="path160" />
        <path
           d="M1185.73049,371.13678a135.87209,135.87209,0,0,0,49.90975.81252c17.12094-2.85845,32.7222-9.28023,45.79707-20.9666a99.39,99.39,0,0,0,31.78017-54.795c2.83921-13.42595,3.93173-27.06653,4.5124-40.73462.47363-11.15038.64577-22.31958.68094-33.48134q.06268-19.93929.05669-39.87872-.00807-17.96712-.03035-35.93423c-.00027-.23772.00745-.47778.01242-.717q-.00291-2.44989-.00414-4.89977a10.71536,10.71536,0,0,0-1.31789-4.46026,25.13313,25.13313,0,0,0-4.72453-.90156q-30.12188-.10147-60.24361-.00889a30.29179,30.29179,0,0,0-5.46492.9899,14.18428,14.18428,0,0,0-1.0659,4.6757q-.00082,2.75018-.00055,5.5003c0,.04413.0018.08868.00166.13282q-.007,8.2371-.00193,16.4742.007,15.6032.00634,31.20611.01325,33.10647-.10206,66.21238a237.65353,237.65353,0,0,1-1.69429,29.22894c-2.47633,19.16466-16.56372,29.75224-35.25646,27.28777-10.93563-1.44175-18.59275-7.29955-22.62075-17.48182a50.93323,50.93323,0,0,1-3.18707-12.94584,219.03629,219.03629,0,0,1-1.52257-23.37321q-.13262-32.53566-.08744-65.072-.00456-26.72143.01269-53.44329c-.01324-1.25051-.03641-2.50068-.09186-3.74926a25.754,25.754,0,0,0-.92576-4.43778c-6.397-1.51395-19.0126-1.94124-42.76945-1.43291a83.74691,83.74691,0,0,1,18.87784,31.79478,125.32448,125.32448,0,0,1,5.97994,47.04027,141.4292,141.4292,0,0,1-.60495,23.01032,93.7544,93.7544,0,0,1-24.09146,54.16244,87.98626,87.98626,0,0,1-19.23783,16.00567c-.86645.534-1.6027.99417-2.23716,1.42774a103.09587,103.09587,0,0,0,7.27175,16.50172C1137.10951,349.799,1157.74219,365.43042,1185.73049,371.13678Z"
           style="fill: url(#Gradient_bez_nazwy_286)"
           id="path162" />
        <path
           d="M1185.73049,371.13678a135.87209,135.87209,0,0,0,49.90975.81252c17.12094-2.85845,32.7222-9.28023,45.79707-20.9666a99.39,99.39,0,0,0,31.78017-54.795c2.83921-13.42595,3.93173-27.06653,4.5124-40.73462.47363-11.15038.64577-22.31958.68094-33.48134q.06268-19.93929.05669-39.87872-.00807-17.96712-.03035-35.93423c-.00027-.23772.00745-.47778.01242-.717q-.00291-2.44989-.00414-4.89977a10.71536,10.71536,0,0,0-1.31789-4.46026,25.13313,25.13313,0,0,0-4.72453-.90156q-30.12188-.10147-60.24361-.00889a30.29179,30.29179,0,0,0-5.46492.9899,14.18428,14.18428,0,0,0-1.0659,4.6757q-.00082,2.75018-.00055,5.5003c0,.04413.0018.08868.00166.13282q-.007,8.2371-.00193,16.4742.007,15.6032.00634,31.20611.01325,33.10647-.10206,66.21238a237.65353,237.65353,0,0,1-1.69429,29.22894c-2.47633,19.16466-16.56372,29.75224-35.25646,27.28777-10.93563-1.44175-18.59275-7.29955-22.62075-17.48182a50.93323,50.93323,0,0,1-3.18707-12.94584,219.03629,219.03629,0,0,1-1.52257-23.37321q-.13262-32.53566-.08744-65.072-.00456-26.72143.01269-53.44329c-.01324-1.25051-.03641-2.50068-.09186-3.74926a25.754,25.754,0,0,0-.92576-4.43778c-6.397-1.51395-19.0126-1.94124-42.76945-1.43291a83.74691,83.74691,0,0,1,18.87784,31.79478,125.32448,125.32448,0,0,1,5.97994,47.04027,141.4292,141.4292,0,0,1-.60495,23.01032,93.7544,93.7544,0,0,1-24.09146,54.16244,87.98626,87.98626,0,0,1-19.23783,16.00567c-.86645.534-1.6027.99417-2.23716,1.42774a103.09587,103.09587,0,0,0,7.27175,16.50172C1137.10951,349.799,1157.74219,365.43042,1185.73049,371.13678Z"
           style="fill: url(#Gradient_bez_nazwy_16-19)"
           id="path164" />
        <path
           d="M504.67267,333.08352q-.00135,5.494.00055,10.98811Q504.67425,338.57757,504.67267,333.08352Z"
           style="fill: url(#Gradient_bez_nazwy_16-20)"
           id="path166" />
        <path
           d="M583.45834,218.298q-.00062,70.17332.006,140.34676l.00069-.083q.00828-71.54169-.00614-143.08329C583.45669,216.41857,583.45834,217.35875,583.45834,218.298Z"
           style="fill: url(#Gradient_bez_nazwy_16-21)"
           id="path168" />
        <path
           d="M570.61216,211.116q6.37158-6.88229,12.88066-13.63465c.0249-1.00762.06235-2.01434.13945-3.01762a22.63927,22.63927,0,0,1,1.31278-4.35757c2.03131-.0669,3.99352-.15007,5.94339-.20558,11.75318-11.88567,23.87788-23.40149,36.49848-34.38842,8.19779-7.1368,16.84074-13.7603,25.24542-20.661a16.77627,16.77627,0,0,1,11.56678-3.87635c7.17135.15944,14.34759.08641,21.52286.08151q3.48609-2.80242,7.15-5.45512a51.40119,51.40119,0,0,0,4.64068-3.56057c1.62946-1.48526,1.86731-3.33334.4064-5.80532a59.08075,59.08075,0,0,0-6.11538-.631c-9.20142-.07676-18.407.1062-27.60459-.09821a16.77621,16.77621,0,0,0-11.56678,3.87628c-8.40468,6.90074-17.04763,13.52424-25.24542,20.661a738.74973,738.74973,0,0,0-56.77476,55.60384c-20.65323,22.30855-40.70131,45.17778-61.05021,67.76943-3.08121,3.421-5.03741,6.96942-5.00528,11.90794q.04593,7.05606.06021,14.11242c.305-4.24241,2.15585-7.45486,4.94507-10.55165C529.91085,256.29384,549.95893,233.42462,570.61216,211.116Z"
           style="fill: url(#Gradient_bez_nazwy_16-22)"
           id="path170" />
        <path
           d="M583.49282,197.48135q-6.50822,6.75226-12.88066,13.63465c-20.65323,22.30862-40.70131,45.17784-61.05021,67.76942-2.78922,3.09679-4.64012,6.30924-4.94507,10.55165q.07882,21.82281.05579,43.64645.00134,5.49394.00055,10.98811.0001,9.583.01138,19.166a70.45608,70.45608,0,0,0,.73963,7.02107,28.47168,28.47168,0,0,0,4.19344.772q34.29774.06249,68.59506-.01055c1.537-.0051,3.07114-.83562,5.04921-1.411.07344-3.82463.20006-7.39541.2024-10.96446q.00331-70.17331-.006-140.34676c0-.93921-.00165-1.87939.00055-2.81949q-.00019-6.32461-.00055-12.64923C583.45834,201.04744,583.4489,199.26247,583.49282,197.48135Z"
           style="fill: url(#Gradient_bez_nazwy_16-23)"
           id="path172" />
        <path
           d="M583.49282,197.48135q-6.50822,6.75226-12.88066,13.63465c-20.65323,22.30862-40.70131,45.17784-61.05021,67.76942-2.78922,3.09679-4.64012,6.30924-4.94507,10.55165q.07882,21.82281.05579,43.64645.00134,5.49394.00055,10.98811.0001,9.583.01138,19.166a70.45608,70.45608,0,0,0,.73963,7.02107,28.47168,28.47168,0,0,0,4.19344.772q34.29774.06249,68.59506-.01055c1.537-.0051,3.07114-.83562,5.04921-1.411.07344-3.82463.20006-7.39541.2024-10.96446q.00331-70.17331-.006-140.34676c0-.93921-.00165-1.87939.00055-2.81949q-.00019-6.32461-.00055-12.64923C583.45834,201.04744,583.4489,199.26247,583.49282,197.48135Z"
           style="fill: url(#Gradient_bez_nazwy_16-24)"
           id="path174" />
        <path
           d="M664.19912,130.97485a16.77627,16.77627,0,0,0-11.56678,3.87635c-8.40468,6.90066-17.04763,13.52416-25.24542,20.661-12.6206,10.98693-24.7453,22.50275-36.49848,34.38842.80831-.023,1.61946-.05593,2.42467-.05779,12.82715-.03028,25.65444.00551,38.48139-.03718,3.01934-.01006,6.038-.23295,8.94776-.3535,1.23155-2.19455,2.29172-3.83091,3.11017-5.58064A147.06687,147.06687,0,0,1,685.722,131.05636C678.54671,131.06126,671.37047,131.13429,664.19912,130.97485Z"
           style="fill: url(#Gradient_bez_nazwy_16-25)"
           id="path176" />
        <path
           d="M664.19912,130.97485a16.77627,16.77627,0,0,0-11.56678,3.87635c-8.40468,6.90066-17.04763,13.52416-25.24542,20.661-12.6206,10.98693-24.7453,22.50275-36.49848,34.38842.80831-.023,1.61946-.05593,2.42467-.05779,12.82715-.03028,25.65444.00551,38.48139-.03718,3.01934-.01006,6.038-.23295,8.94776-.3535,1.23155-2.19455,2.29172-3.83091,3.11017-5.58064A147.06687,147.06687,0,0,1,685.722,131.05636C678.54671,131.06126,671.37047,131.13429,664.19912,130.97485Z"
           style="fill: url(#Gradient_bez_nazwy_16-26)"
           id="path178" />
        <path
           d="M314.78228,88.28616q-.00291-1.54671-.00621-3.09335A20.36073,20.36073,0,0,0,314.78228,88.28616Z"
           style="fill: url(#Gradient_bez_nazwy_16-27)"
           id="path180" />
        <path
           d="M343.0518,83.37c.00234,1.40023-.00634,2.80032-.00352,4.20055A36.07131,36.07131,0,0,0,343.0518,83.37Z"
           style="fill: url(#Gradient_bez_nazwy_16-28)"
           id="path182" />
        <path
           d="M514.93073,82.38794c-.00013.49219-.00655.98432-.00951,1.47657C514.92825,83.37191,514.93467,82.87958,514.93073,82.38794Z"
           style="fill: url(#Gradient_bez_nazwy_16-29)"
           id="path184" />
        <path
           d="M220.79725,82.85951q.02546-3.07333.04373-6.14744a21.09575,21.09575,0,0,0-.11338,2.84225C220.76174,80.65566,220.77808,81.75762,220.79725,82.85951Z"
           style="fill: url(#Gradient_bez_nazwy_16-30)"
           id="path186" />
        <path
           d="M189.98,76.9393q.02668,2.55373.05428,5.10707c.01855-.71342.0242-1.42733.0522-2.14034A20.88567,20.88567,0,0,0,189.98,76.9393Z"
           style="fill: url(#Gradient_bez_nazwy_16-31)"
           id="path188" />
        <path
           d="M87.08309,87.3666c-.00027-.22889-.00131-.45784-.00158-.68673Q87.07644,87.02331,87.08309,87.3666Z"
           style="fill: url(#Gradient_bez_nazwy_16-32)"
           id="path190" />
        <path
           d="M403.32658,117.675c4.7035,4.39661,11.16687,6.49785,16.35586,10.47331,1.271.97376,2.55523,1.933,3.84077,2.891q38.34543-.01376,76.69085.0009c3.436-3.64064,6.91535-7.24134,10.27145-10.95418.76983-.8517.875-2.30544,1.53505-4.189-3.80622-.1311-6.82784-.32351-9.84974-.32558q-44.2424-.03082-88.48472-.0011c-2.50323.001-5.01032.0222-7.50782.16744C405.15087,115.79743,403.88222,115.71881,403.32658,117.675Z"
           style="fill: url(#Gradient_bez_nazwy_16-33)"
           id="path192" />
        <path
           d="M435.46439,140.4608a159.5949,159.5949,0,0,1,13.96346,14.33945c4.35061,4.99817,8.209,10.42537,13.07259,16.67936,2.74881-2.77273,4.73032-4.65336,6.57937-6.65667,9.4403-10.22779,18.82612-20.50592,28.27324-30.7273q1.42051-1.537,2.861-3.05548-38.34543-.025-76.69085-.0009C427.59652,134.07468,431.689,137.09064,435.46439,140.4608Z"
           style="fill: url(#Gradient_bez_nazwy_16-34)"
           id="path194" />
        <path
           d="M435.46439,140.4608a159.5949,159.5949,0,0,1,13.96346,14.33945c4.35061,4.99817,8.209,10.42537,13.07259,16.67936,2.74881-2.77273,4.73032-4.65336,6.57937-6.65667,9.4403-10.22779,18.82612-20.50592,28.27324-30.7273q1.42051-1.537,2.861-3.05548-38.34543-.025-76.69085-.0009C427.59652,134.07468,431.689,137.09064,435.46439,140.4608Z"
           style="fill: url(#Gradient_bez_nazwy_16-35)"
           id="path196" />
        <path
           d="M265.726,86.62015q-.00084-1.0479-.00007-2.09566C265.7247,85.21385,265.709,85.91245,265.726,86.62015Z"
           style="fill: url(#Gradient_bez_nazwy_16-36)"
           id="path198" />
        <g
           id="g212">
          <path
             d="M404.43089,2.29371c-8.21932-1.00365-15.98458-.59808-23.7347-.3016-.9933.038-1.95779.82584-3.36968,1.4618-.08878,4.2163-.20814,8.3662-.2544,12.517-.0436,3.90922.08626,7.82243-.03739,11.72819-.0402,1.27059.00227,2.55345.03709,3.84618-.01228,1.18107-.00907,2.36253-.00212,3.544a18.44373,18.44373,0,0,1-.86989,5.11706c-1.2771-.46116-2.188-.52671-2.68006-1.015-1.77841-1.76538-3.46576-3.63015-5.09817-5.53423-7.44955-8.6894-15.05827-17.25259-22.21731-26.17648-3.49688-4.35888-7.43737-6.28308-12.95586-5.82069-4.15716.34831-8.367.01983-12.54945.137a30.94542,30.94542,0,0,0-4.41.69529c-2.05145,3.03474-1.46565,5.90385-1.49056,8.63047-.0365,3.99005-.04291,7.9804-.0433,11.97075q-.01887.65453-.00341,1.29934.00244,5.95386.01159,11.90792-.00762,6.44724-.00246,12.8946-.003,6.59936.00054,13.19852-.005,11.39961.0147,22.799.00207,1.54677.00621,3.09338a5.31948,5.31948,0,0,0,1.72578,3.54946c9.23382,1.44015,19.99219,1.14615,25.55162-.72365a8.94641,8.94641,0,0,0,.98861-3.54147c-.00286-1.4002.00587-2.80031.0035-4.20051-.01139-.40533-.019-.80992-.01583-1.21268.05924-7.53952-.02949-15.08011.02156-22.61973.0107-1.58269-.26309-3.38581,2.057-4.72968a56.09261,56.09261,0,0,1,4.51336,4.18532c6.99865,7.97142,13.90995,16.01964,20.86307,24.03132,2.01229,2.31862,3.94719,4.72268,6.14,6.85882,1.141,1.11132,2.72919,2.37036,4.1794,2.45431a161.17561,161.17561,0,0,0,24.0325-.14634c.27922-2.51508.60011-4.25605.69574-5.874.01845-.31122.03147-.61968.03107-.92631q-.05135-38.11977-.23753-76.23933A56.498,56.498,0,0,0,404.43089,2.29371Z"
             style="fill: #818ce3"
             id="path200" />
          <path
             d="M514.83026,74.51428c.13021-5.302.16453-10.61751-.06171-15.914-.22126-5.17985.73549-10.48226-.69608-15.41427-.0802-.27625-.16375-.552-.25963-.8259-5.20747-1.39862-21.59728-2.06062-35.88015-1.60577-2.42215.07709-4.78566.18535-7.02163.32858a25.61223,25.61223,0,0,0-4.81462,1.28425c-.58767,5.33634-1.36878,10.44334-.02431,15.68489a21.25569,21.25569,0,0,0,.93692,2.84135c4.37861.1125,8.546.10362,12.69322.38861,1.46684.10086,2.8843.91842,4.29136,1.39749-.53741,3.78472-2.98354,5.1648-5.50064,6.40372A21.53813,21.53813,0,0,1,465.5322,70.685c-.32094-.0472-.64183-.08749-.96282-.14362-7.35421-1.28612-12.097-5.6636-13.582-12.99448-.18452-.91113-.34151-1.82482-.47773-2.74019a52.185,52.185,0,0,1,.45908-18.07889c1.45382-7.18927,6.48457-11.65967,13.72391-12.83561,10.33064-1.67808,16.08258,1.05865,21.46637,10.20379a10.07365,10.07365,0,0,0,.83759.98106c10.23393,1.06452,18.22656,1.01328,23.85707-.14436a25.45848,25.45848,0,0,0,3.10255-.824c1.34057-6.44171-1.16952-11.96-4.66774-17.11154-4.22892-6.2277-10.28369-10.23753-17.23677-12.73505a68.09056,68.09056,0,0,0-45.97015-.51941c-13.73589,4.6637-22.23333,14.45866-25.53672,28.63307a67.15437,67.15437,0,0,0-1.332,23.14308,69.95942,69.95942,0,0,0,1.92321,10.03338c3.88159,14.48075,13.203,23.72646,27.90936,27.01856,14.59271,3.26649,28.82542,2.455,42.29053-4.79568a25.66278,25.66278,0,0,1,3.66167-1.33688c1.785,2.22329,3.31784,4.13255,5.00283,6.2315,4.72313-.61071,9.49139,1.11186,14.05841-1.3791a31.38538,31.38538,0,0,0,.8623-7.42612c.003-.49223.00937-.98437.00951-1.47655-.01765-2.20475-.11132-4.39977-.10831-6.58489C514.823,75.37327,514.8197,74.94323,514.83026,74.51428Z"
             style="fill: #818ce3"
             id="path202" />
          <path
             d="M69.61694,1.85652q-32.20711-.06482-64.41413.00394a18.07774,18.07774,0,0,0-4.1,1.04016C.83924,5.11518.466,7.00554.41039,8.90528.068,20.6057-.05077,35.63165.01926,49.74609c.09712,19.55.55744,37.34762,1.295,42.10582,8.63925,1.45766,16.96422.64957,25.24667.61894,1.25914-.00479,2.51537-.8146,4.14719-1.38215.10846-2.95059.26846-5.71061.299-8.4721.0586-5.30226-.06885-10.60941.12173-15.90591.06491-1.80375.85342-3.58142,1.32291-5.41659,11.83-1.26462,23.27536.3707,34.37543-1.03359.27675-.92213.51409-1.8481.71823-2.776a35.31238,35.31238,0,0,0-.45924-17.2417c-.127-.45036-.23763-.90427-.38333-1.35024-2.52588-.13026-5.26813-.3677-8.01246-.39409-6.69211-.06416-13.386.03645-20.07752-.05509-6.916-.09455-7.73413-.95186-7.489-7.73409a28.88942,28.88942,0,0,1,.87221-4.59735c2.9392-1.662,5.773-1.24548,8.51347-1.26457,8.64433-.06042,17.28949-.00158,25.93362-.07551,2.44327-.02091,5.05536.37159,7.39934-1.98778q.0492-.65149.1021-1.30728c.48809-6.11657,1.0837-12.48577-.75966-18.8671A19.17638,19.17638,0,0,0,69.61694,1.85652Z"
             style="fill: #818ce3"
             id="path204" />
          <path
             d="M229.087,1.67639c-4.43844-.22737-7.32768,1.33012-9.43541,5.299-3.2659,6.15-6.87859,12.11886-10.46391,18.0926A28.33469,28.33469,0,0,1,205.76,28.89885c-6.92132-8.3806-10.32828-18.38873-16.64071-26.26289-8.86953-1.476-26.52179-1.22753-32.66115.49775-.21248,2.96164,1.72361,5.10163,3.18127,7.363q2.25219,3.49407,4.50241,6.98953c7.25256,11.261,14.50956,22.51955,21.91289,33.68073a21.56431,21.56431,0,0,1,4.03173,13.27028c-.1636,4.16219-.15009,8.33188-.10648,12.502a20.883,20.883,0,0,1,.10648,2.96672c-.028.71305-.03364,1.42694-.05218,2.14038.00947.82077.02081,1.64178.02747,2.46235.02022,2.47567-.32,5.068,2.12184,7.79205a244.246,244.246,0,0,0,26.71774.06826c2.4113-3.44031,1.86994-6.30523,1.89214-9.04729l.0038-.46225c-.01914-1.1019-.03552-2.20385-.06965-3.30521a21.09037,21.09037,0,0,1,.11339-2.84223c.02319-4.21043.01687-8.42061-.11339-12.62649a20.4853,20.4853,0,0,1,3.75948-12.52134c4.81851-7.16831,9.33015-14.54338,13.96637-21.83431q3.97732-6.25476,7.95534-12.50911,2.97346-4.68385,5.92363-9.38213c.98693-1.57826,2.376-3.2339.62195-5.609C245.18353,1.1956,237.11,2.08744,229.087,1.67639Z"
             style="fill: #818ce3"
             id="path206" />
          <path
             d="M152.89762,68.1431c-9.207-.07186-18.41512.00237-27.62216-.071-2.43507-.01938-5.09906.45026-7.39149-2.52386-.07414-2.43577-.235-5.47489-.24775-8.51466q-.06843-16.27464-.10486-32.54943a20.32529,20.32529,0,0,0-.00957-2.35848c-.01435-3.723-.02081-7.446-.04513-11.16892-.01775-2.721.62171-5.61921-1.29993-8.0207-6.04505-1.49737-18.91287-1.69-27.63237-.37179-1.9856,3.03715-1.42432,5.901-1.43793,8.63032-.019,3.78517-.0185,7.57044-.02387,11.35571a25.66153,25.66153,0,0,0-.00563,2.64933q-.00732,8.79361-.00444,17.5874-.00361,8.29194.00045,16.58389-.00164,4.414.00148,8.8281-.00237,9.24041.0071,18.48086c.00025.2289.00128.45786.00158.68676a5.666,5.666,0,0,0,2.06467,4.71894,17.82514,17.82514,0,0,0,3.01885.477q33.06288.04187,66.1256-.02387a16.7179,16.7179,0,0,0,3.7284-.82694c.27324-1.13968.49731-2.31586.6835-3.50837,1.03463-6.62627.73934-13.828-.809-18.97192C159.0579,67.66286,155.92787,68.16678,152.89762,68.1431Z"
             style="fill: #818ce3"
             id="path208" />
          <path
             d="M296.12381,28.08336c-.02994-6.415.06012-12.83211-.08765-19.244a41.45709,41.45709,0,0,0-.99507-6.09995c-7.99924-1.41519-21.33686-1.35477-27.97308.021-1.61456,2.15374-1.3427,4.72386-1.34511,7.19825-.00415,4.22981.0034,8.45957.00064,12.68937-.03591.9057-.00148,1.82373-.00109,2.72983q-.0179,28.70934.0034,57.41883.0006.86389.0001,1.72785.00068,1.04783,0,2.09564a8.74646,8.74646,0,0,0,1.88031,5.6308,226.16976,226.16976,0,0,0,26.80647.12316,10.41353,10.41353,0,0,0,1.915-4.76875,35.78151,35.78151,0,0,0,.03749-5.13358C296.33979,64.3422,296.20815,46.2128,296.12381,28.08336Z"
             style="fill: #818ce3"
             id="path210" />
        </g>
        <path
           d="M775.29626,219.14159a41.15865,41.15865,0,0,1,40.42607,33.71568,42.65523,42.65523,0,0,0,.712-7.4252,41.41051,41.41051,0,1,0-82.81912-.53577,43.11291,43.11291,0,0,0,.71445,7.92745A41.24381,41.24381,0,0,1,775.29626,219.14159Z"
           style="fill: #fe8fff"
           id="path214" />
        <path
           d="M774.75986,286.67344a41.18247,41.18247,0,0,0,40.96247-33.81617,41.42263,41.42263,0,0,0-81.39269-.03352A41.12473,41.12473,0,0,0,774.75986,286.67344Z"
           style="fill: url(#Gradient_bez_nazwy_99)"
           id="path216" />
        <path
           d="M774.75986,286.67344a41.18247,41.18247,0,0,0,40.96247-33.81617,41.42263,41.42263,0,0,0-81.39269-.03352A41.12473,41.12473,0,0,0,774.75986,286.67344Z"
           style="fill: url(#Gradient_bez_nazwy_99)"
           id="path218" />
        <path
           d="M281.92422,271.36726c3.977,25.187,24.52661,45.50812,50.02982,49.80839a51.583,51.583,0,0,0,34.702-6.12359,87.81147,87.81147,0,0,0,21.46342-17.21542c3.79814-4.082,7.40361-8.35447,10.93418-12.67357,34.451-42.14657,69.73156-83.5702,106.9601-123.30306,23.6734-25.2659,48.06478-49.79218,74.34168-72.37727,17.8205-15.31659,36.50911-29.38983,57.43854-40.277A290.11856,290.11856,0,0,1,749.66306,17.25629c31.17384-2.49957,61.89031-.03972,91.9315,8.81922,48.995,14.44861,88.09743,42.42842,115.59967,85.876,15.97711,25.24039,25.45624,52.81111,27.12239,82.66713.04028.72136.0651,1.43733.09669,2.15572a174.04115,174.04115,0,0,0-.09669-17.62443c-1.66615-29.8561-11.14528-57.42682-27.12239-82.66713C929.692,53.03521,890.58959,25.05533,841.59456,10.60679,811.55337,1.74778,780.8369-.712,749.66306,1.78757A290.11752,290.11752,0,0,0,637.794,33.737c-20.92943,10.88715-39.618,24.9604-57.43854,40.277-26.2769,22.585-50.66828,47.11137-74.34168,72.37727-37.22854,39.73286-72.50913,81.15649-106.9601,123.30307-3.53057,4.31909-7.136,8.59157-10.93418,12.6735A87.81007,87.81007,0,0,1,366.656,299.58334a51.58343,51.58343,0,0,1-34.702,6.12359c-25.50321-4.30034-46.05279-24.62137-50.02982-49.80838-.10779-.6826-.19676-1.36423-.28172-2.04559A62.25439,62.25439,0,0,0,281.92422,271.36726Z"
           style="fill: url(#Gradient_bez_nazwy_133)"
           id="path220" />
        <path
           d="M324.957,135.9793a126.04756,126.04756,0,0,1,121.42761,54.57015c5.82519-6.73563,5.98959-6.47433.18448-15.20183a126.04755,126.04755,0,0,0-121.61209-54.837c-66.65325,8.83426-113.592,68.24528-109.53387,132.38483C219.09766,194.93165,263.7027,144.098,324.957,135.9793Z"
           style="fill: url(#Gradient_bez_nazwy_508-6)"
           id="path222" />
        <path
           d="M944.09619,291.76292c25.52631-27.32432,38.68669-59.17241,40.31712-94.98851-.03159-.71839-.05641-1.43436-.09669-2.15572-1.66615-29.856-11.14528-57.42674-27.12239-82.66713-27.50224-43.44763-66.60464-71.42744-115.59967-85.876-30.04119-8.85894-60.75766-11.31879-91.9315-8.81922A290.11856,290.11856,0,0,0,637.794,49.20576c-20.92943,10.88715-39.618,24.96039-57.43854,40.277-26.2769,22.58509-50.66828,47.11137-74.34168,72.37727-37.22854,39.73286-72.50913,81.15649-106.9601,123.30306-3.53057,4.3191-7.136,8.59157-10.93418,12.67357A87.81147,87.81147,0,0,1,366.656,315.05206a51.583,51.583,0,0,1-34.702,6.12359c-25.50321-4.30027-46.05279-24.62138-50.02982-49.80839a62.25439,62.25439,0,0,1-.28172-17.5143,60.48552,60.48552,0,0,1,103.13885-50.309,60.00761,60.00761,0,0,1,15.68761,28.1827c.63784,2.59522.80645,5.3843,2.74115,7.73029,3.40629-1.33858,4.98072-4.09655,6.92431-6.36731,11.79581-13.78146,23.51017-27.63265,35.29129-41.42666.3393-.39723.65115-.75777.95886-1.11355A126.04756,126.04756,0,0,0,324.957,135.9793c-61.25426,8.11869-105.8593,58.95235-109.53387,116.91611q.19137,3.02462.533,6.06159c4.632,40.88275,24.52779,72.63326,59.22185,94.43969,29.19384,18.34945,61.06255,23.68713,94.78665,15.478,17.63216-4.29213,33.20605-12.88784,47.3986-24.07367a200.6467,200.6467,0,0,0,30.15891-30.10318c14.76612-17.84747,29.45714-35.761,44.474-53.39571,32.941-38.68324,66.77146-76.55748,103.34022-111.889a522.043,522.043,0,0,1,44.02686-38.62552,201.35278,201.35278,0,0,1,28.00663-18.27248A220.23414,220.23414,0,0,1,770.1705,66.39255c18.76212-.19371,37.324,2.00414,55.30488,7.74712,32.56,10.39937,58.73953,29.328,76.75409,58.68029,12.02994,19.60092,18.081,40.6411,16.30262,63.24386a98.23341,98.23341,0,0,1-.49239,20.263c.01144.06166.02179.123.03337.18469a151.18829,151.18829,0,0,1,2.486,36.10015A144.00452,144.00452,0,0,1,906.943,321.82811c.06317-.0398.12634-.08283.18978-.12172A176.68954,176.68954,0,0,0,944.09619,291.76292Z"
           style="fill: url(#Gradient_bez_nazwy_16-37)"
           id="path224" />
        <path
           d="M944.09619,291.76292c25.52631-27.32432,38.68669-59.17241,40.31712-94.98851-.03159-.71839-.05641-1.43436-.09669-2.15572-1.66615-29.856-11.14528-57.42674-27.12239-82.66713-27.50224-43.44763-66.60464-71.42744-115.59967-85.876-30.04119-8.85894-60.75766-11.31879-91.9315-8.81922A290.11856,290.11856,0,0,0,637.794,49.20576c-20.92943,10.88715-39.618,24.96039-57.43854,40.277-26.2769,22.58509-50.66828,47.11137-74.34168,72.37727-37.22854,39.73286-72.50913,81.15649-106.9601,123.30306-3.53057,4.3191-7.136,8.59157-10.93418,12.67357A87.81147,87.81147,0,0,1,366.656,315.05206a51.583,51.583,0,0,1-34.702,6.12359c-25.50321-4.30027-46.05279-24.62138-50.02982-49.80839a62.25439,62.25439,0,0,1-.28172-17.5143,60.48552,60.48552,0,0,1,103.13885-50.309,60.00761,60.00761,0,0,1,15.68761,28.1827c.63784,2.59522.80645,5.3843,2.74115,7.73029,3.40629-1.33858,4.98072-4.09655,6.92431-6.36731,11.79581-13.78146,23.51017-27.63265,35.29129-41.42666.3393-.39723.65115-.75777.95886-1.11355A126.04756,126.04756,0,0,0,324.957,135.9793c-61.25426,8.11869-105.8593,58.95235-109.53387,116.91611q.19137,3.02462.533,6.06159c4.632,40.88275,24.52779,72.63326,59.22185,94.43969,29.19384,18.34945,61.06255,23.68713,94.78665,15.478,17.63216-4.29213,33.20605-12.88784,47.3986-24.07367a200.6467,200.6467,0,0,0,30.15891-30.10318c14.76612-17.84747,29.45714-35.761,44.474-53.39571,32.941-38.68324,66.77146-76.55748,103.34022-111.889a522.043,522.043,0,0,1,44.02686-38.62552,201.35278,201.35278,0,0,1,28.00663-18.27248A220.23414,220.23414,0,0,1,770.1705,66.39255c18.76212-.19371,37.324,2.00414,55.30488,7.74712,32.56,10.39937,58.73953,29.328,76.75409,58.68029,12.02994,19.60092,18.081,40.6411,16.30262,63.24386a98.23341,98.23341,0,0,1-.49239,20.263c.01144.06166.02179.123.03337.18469a151.18829,151.18829,0,0,1,2.486,36.10015A144.00452,144.00452,0,0,1,906.943,321.82811c.06317-.0398.12634-.08283.18978-.12172A176.68954,176.68954,0,0,0,944.09619,291.76292Z"
           style="fill: url(#Gradient_bez_nazwy_23)"
           id="path226" />
        <path
           d="M944.09619,291.76292c25.52631-27.32432,38.68669-59.17241,40.31712-94.98851-.03159-.71839-.05641-1.43436-.09669-2.15572-1.66615-29.856-11.14528-57.42674-27.12239-82.66713-27.50224-43.44763-66.60464-71.42744-115.59967-85.876-30.04119-8.85894-60.75766-11.31879-91.9315-8.81922A290.11856,290.11856,0,0,0,637.794,49.20576c-20.92943,10.88715-39.618,24.96039-57.43854,40.277-26.2769,22.58509-50.66828,47.11137-74.34168,72.37727-37.22854,39.73286-72.50913,81.15649-106.9601,123.30306-3.53057,4.3191-7.136,8.59157-10.93418,12.67357A87.81147,87.81147,0,0,1,366.656,315.05206a51.583,51.583,0,0,1-34.702,6.12359c-25.50321-4.30027-46.05279-24.62138-50.02982-49.80839a62.25439,62.25439,0,0,1-.28172-17.5143,60.48552,60.48552,0,0,1,103.13885-50.309,60.00761,60.00761,0,0,1,15.68761,28.1827c.63784,2.59522.80645,5.3843,2.74115,7.73029,3.40629-1.33858,4.98072-4.09655,6.92431-6.36731,11.79581-13.78146,23.51017-27.63265,35.29129-41.42666.3393-.39723.65115-.75777.95886-1.11355A126.04756,126.04756,0,0,0,324.957,135.9793c-61.25426,8.11869-105.8593,58.95235-109.53387,116.91611q.19137,3.02462.533,6.06159c4.632,40.88275,24.52779,72.63326,59.22185,94.43969,29.19384,18.34945,61.06255,23.68713,94.78665,15.478,17.63216-4.29213,33.20605-12.88784,47.3986-24.07367a200.6467,200.6467,0,0,0,30.15891-30.10318c14.76612-17.84747,29.45714-35.761,44.474-53.39571,32.941-38.68324,66.77146-76.55748,103.34022-111.889a522.043,522.043,0,0,1,44.02686-38.62552,201.35278,201.35278,0,0,1,28.00663-18.27248A220.23414,220.23414,0,0,1,770.1705,66.39255c18.76212-.19371,37.324,2.00414,55.30488,7.74712,32.56,10.39937,58.73953,29.328,76.75409,58.68029,12.02994,19.60092,18.081,40.6411,16.30262,63.24386a98.23341,98.23341,0,0,1-.49239,20.263c.01144.06166.02179.123.03337.18469a151.18829,151.18829,0,0,1,2.486,36.10015A144.00452,144.00452,0,0,1,906.943,321.82811c.06317-.0398.12634-.08283.18978-.12172A176.68954,176.68954,0,0,0,944.09619,291.76292Z"
           style="fill: url(#Gradient_bez_nazwy_16-38)"
           id="path228" />
        <path
           d="M944.09619,291.76292c25.52631-27.32432,38.68669-59.17241,40.31712-94.98851-.03159-.71839-.05641-1.43436-.09669-2.15572-1.66615-29.856-11.14528-57.42674-27.12239-82.66713-27.50224-43.44763-66.60464-71.42744-115.59967-85.876-30.04119-8.85894-60.75766-11.31879-91.9315-8.81922A290.11856,290.11856,0,0,0,637.794,49.20576c-20.92943,10.88715-39.618,24.96039-57.43854,40.277-26.2769,22.58509-50.66828,47.11137-74.34168,72.37727-37.22854,39.73286-72.50913,81.15649-106.9601,123.30306-3.53057,4.3191-7.136,8.59157-10.93418,12.67357A87.81147,87.81147,0,0,1,366.656,315.05206a51.583,51.583,0,0,1-34.702,6.12359c-25.50321-4.30027-46.05279-24.62138-50.02982-49.80839a62.25439,62.25439,0,0,1-.28172-17.5143,60.48552,60.48552,0,0,1,103.13885-50.309,60.00761,60.00761,0,0,1,15.68761,28.1827c.63784,2.59522.80645,5.3843,2.74115,7.73029,3.40629-1.33858,4.98072-4.09655,6.92431-6.36731,11.79581-13.78146,23.51017-27.63265,35.29129-41.42666.3393-.39723.65115-.75777.95886-1.11355A126.04756,126.04756,0,0,0,324.957,135.9793c-61.25426,8.11869-105.8593,58.95235-109.53387,116.91611q.19137,3.02462.533,6.06159c4.632,40.88275,24.52779,72.63326,59.22185,94.43969,29.19384,18.34945,61.06255,23.68713,94.78665,15.478,17.63216-4.29213,33.20605-12.88784,47.3986-24.07367a200.6467,200.6467,0,0,0,30.15891-30.10318c14.76612-17.84747,29.45714-35.761,44.474-53.39571,32.941-38.68324,66.77146-76.55748,103.34022-111.889a522.043,522.043,0,0,1,44.02686-38.62552,201.35278,201.35278,0,0,1,28.00663-18.27248A220.23414,220.23414,0,0,1,770.1705,66.39255c18.76212-.19371,37.324,2.00414,55.30488,7.74712,32.56,10.39937,58.73953,29.328,76.75409,58.68029,12.02994,19.60092,18.081,40.6411,16.30262,63.24386a98.23341,98.23341,0,0,1-.49239,20.263c.01144.06166.02179.123.03337.18469a151.18829,151.18829,0,0,1,2.486,36.10015A144.00452,144.00452,0,0,1,906.943,321.82811c.06317-.0398.12634-.08283.18978-.12172A176.68954,176.68954,0,0,0,944.09619,291.76292Z"
           style="fill: url(#Gradient_bez_nazwy_23)"
           id="path230" />
        <path
           d="M773.386,373.89662c75.1471.08372,127.12341-56.35271,130.90894-121.48816-4.0589-72.7125-64.74912-121.37361-129.31824-121.376-59.30309-1.51229-123.50526,46.80131-127.74946,121.4392C651.197,322.73249,709.748,373.82572,773.386,373.89662Zm-56.9367-128.51744a58.67008,58.67008,0,0,1,58.138-58.95773c32.569-.20668,59.318,26.41876,59.14545,58.87263a59.41481,59.41481,0,0,1-.526,7.45981,58.07414,58.07414,0,0,1,.526,8.009,58.64211,58.64211,0,1,1-116.76253-7.96476A59.65307,59.65307,0,0,1,716.44928,245.37918Z"
           style="fill: url(#Gradient_bez_nazwy_515)"
           id="path232" />
      </g>
    </g>
  </g>
</svg>
