<svg xmlns="http://www.w3.org/2000/svg" xml:space="preserve" id="Layer_2" x="0" y="0" version="1.1" viewBox="0 0 1510.1 373.9"><linearGradient id="SVGID_1_" x1="770.844" x2="770.844" y1="168.35" y2="91.96" gradientTransform="matrix(1 0 0 -1 0 376)" gradientUnits="userSpaceOnUse"><stop offset="0" stop-color="#eda4df"/><stop offset=".266" stop-color="#ea9adf"/><stop offset="1" stop-color="#e380de"/></linearGradient><circle cx="770.8" cy="245.8" r="38.2" fill="url(#SVGID_1_)"/><linearGradient id="SVGID_00000098185665462293418240000003136132327905478529_" x1="280.744" x2="280.744" y1="367.634" y2="282.818" gradientTransform="matrix(1 0 0 -1 0 376)" gradientUnits="userSpaceOnUse"><stop offset="0" stop-color="#51bbeb"/><stop offset="1" stop-color="#9563bf"/></linearGradient><path fill="url(#SVGID_00000098185665462293418240000003136132327905478529_)" d="M268.4 8.4h24.7v84.8h-24.7z"/><linearGradient id="SVGID_00000047035193625088990650000003261521124438961075_" x1="120.374" x2="120.374" y1="367.634" y2="282.818" gradientTransform="matrix(1 0 0 -1 0 376)" gradientUnits="userSpaceOnUse"><stop offset="0" stop-color="#51bbeb"/><stop offset="1" stop-color="#9563bf"/></linearGradient><path fill="url(#SVGID_00000047035193625088990650000003261521124438961075_)" d="M114.6 69.8V8.4H90v84.8h60.8V69.8z"/><linearGradient id="SVGID_00000081610979046752910720000001885009685012508339_" x1="366.581" x2="366.581" y1="367.634" y2="282.818" gradientTransform="matrix(1 0 0 -1 0 376)" gradientUnits="userSpaceOnUse"><stop offset="0" stop-color="#51bbeb"/><stop offset="1" stop-color="#9563bf"/></linearGradient><path fill="url(#SVGID_00000081610979046752910720000001885009685012508339_)" d="M384.7 8.4v43l-36.2-43h-24.7v84.8h24.7V50.8l36.2 42.4h24.6V8.4z"/><linearGradient id="SVGID_00000129186685786928191410000002659693542898473907_" x1="201.96" x2="201.96" y1="367.634" y2="282.818" gradientTransform="matrix(1 0 0 -1 0 376)" gradientUnits="userSpaceOnUse"><stop offset="0" stop-color="#51bbeb"/><stop offset="1" stop-color="#9563bf"/></linearGradient><path fill="url(#SVGID_00000129186685786928191410000002659693542898473907_)" d="M243 8.4h-26.4L202 36.6 187.3 8.4h-26.4l28.7 52.2v32.6h24.7V60.6z"/><linearGradient id="SVGID_00000014620592088673447160000011041707003586354570_" x1="31.227" x2="31.227" y1="367.634" y2="282.818" gradientTransform="matrix(1 0 0 -1 0 376)" gradientUnits="userSpaceOnUse"><stop offset="0" stop-color="#51bbeb"/><stop offset="1" stop-color="#9563bf"/></linearGradient><path fill="url(#SVGID_00000014620592088673447160000011041707003586354570_)" d="M62.5 31.8V8.4H0v84.8h24.7V63h31.5V43.8H24.7v-12z"/><linearGradient id="SVGID_00000031165296176118271390000010559933411106810505_" x1="476.868" x2="476.868" y1="372.571" y2="280.686" gradientTransform="matrix(1 0 0 -1 0 376)" gradientUnits="userSpaceOnUse"><stop offset="0" stop-color="#51bbeb"/><stop offset="1" stop-color="#9563bf"/></linearGradient><path fill="url(#SVGID_00000031165296176118271390000010559933411106810505_)" d="M477.5 65.1H498c-.8 8.7-15.2 13-28 9.2-4.4-1.3-9.7-5.9-11.1-11.6-1.4-5.7-1.1-11.7-.8-17.6.4-9.4 3.6-17.2 12.9-19.5 9.5-2.4 21.5-1 26 6.9 1 1.8 1.7 4.6 2.3 6.5 0 0 17.2.1 21.6.1 0-1.8-.2-6.7-2.2-12.4-2.1-6-6.4-12.4-14.2-16.8-13.8-7.8-33.4-8.8-48.4-1.6-11.9 5.7-18 14.2-20.9 24.3-3.7 12.8-3.4 26 1.4 38.4 2.3 6 6.3 11.5 11.7 16 15.4 13 43.7 9.3 58.8-1.4l3.4 6.8h9.8v-44h-42.8v16.7z"/><linearGradient id="SVGID_00000043442994593054398670000000537437343053653143_" x1="598.822" x2="598.822" y1="247.175" y2="9.903" gradientTransform="matrix(1 0 0 -1 0 376)" gradientUnits="userSpaceOnUse"><stop offset="0" stop-color="#51bbeb"/><stop offset="1" stop-color="#9563bf"/></linearGradient><path fill="url(#SVGID_00000043442994593054398670000000537437343053653143_)" d="M770.8 1.3c-159.2 0-232.2 125.5-306 216.2-32.4 37.4-69 89.6-123 91.6-34.9 0-63.2-28.3-63.2-63.2s28.3-63.2 63.2-63.2S405 211 405 245.8c0 4.4-.5 8.8-1.3 13 17.4-16.5 35.2-38.2 54.4-62.1-19.2-45.3-64-77-116.3-77-69.7 0-126.2 56.5-126.2 126.2s56.5 126.2 126.2 126.2c192.7 0 199.3-307.7 429.1-307.7 111.9 0 159.7 83 141.8 152.8 1.9 9.3 2.9 18.9 2.9 28.7 0 48.8-24.1 91.9-61.1 118.1C1074.8 258.1 985.6 1.3 770.8 1.3z"/><linearGradient id="SVGID_00000000187085591108799710000017467217631153035163_" x1="111.213" x2="111.213" y1="256.375" y2="3.935" gradientTransform="matrix(1 0 0 -1 0 376)" gradientUnits="userSpaceOnUse"><stop offset="0" stop-color="#51bbeb"/><stop offset="1" stop-color="#9563bf"/></linearGradient><path fill="url(#SVGID_00000000187085591108799710000017467217631153035163_)" d="M126.2 119.6C56.5 119.6 0 176.1 0 245.8S56.5 372 126.2 372c38.5 0 73.1-17.3 96.2-44.5-15.9-23.2-25.3-51.4-25.3-81.7s9.3-58.4 25.3-81.7c-23.1-27.2-57.6-44.5-96.2-44.5z"/><linearGradient id="SVGID_00000098186649015439953820000000510134085496821666_" x1="770.844" x2="770.844" y1="256.375" y2="3.935" gradientTransform="matrix(1 0 0 -1 0 376)" gradientUnits="userSpaceOnUse"><stop offset="0" stop-color="#51bbeb"/><stop offset="1" stop-color="#9563bf"/></linearGradient><path fill="url(#SVGID_00000098186649015439953820000000510134085496821666_)" d="M770.8 119.6c-69.7 0-126.2 56.5-126.2 126.2S701.1 372 770.8 372 897 315.5 897 245.8s-56.4-126.2-126.2-126.2zm0 189.4c-34.9 0-63.2-28.3-63.2-63.2s28.3-63.2 63.2-63.2S834 211 834 245.8 805.7 309 770.8 309z"/><linearGradient id="SVGID_00000064325100553478289970000015016940652452246204_" x1="1424.179" x2="1424.179" y1="201.011" y2="200.956" gradientTransform="matrix(1 0 0 -1 0 376)" gradientUnits="userSpaceOnUse"><stop offset="0" stop-color="#51bbeb"/><stop offset="1" stop-color="#9563bf"/></linearGradient><path fill="url(#SVGID_00000064325100553478289970000015016940652452246204_)" d="M1424.2 175c-1.8-.1 1.8.1 0 0z"/><linearGradient id="SVGID_00000178165445103756814750000000906224037963752619_" x1="1416.688" x2="1416.688" y1="256.383" y2="3.926" gradientTransform="matrix(1 0 0 -1 0 376)" gradientUnits="userSpaceOnUse"><stop offset="0" stop-color="#51bbeb"/><stop offset="1" stop-color="#9563bf"/></linearGradient><path fill="url(#SVGID_00000178165445103756814750000000906224037963752619_)" d="M1509.7 297c-.6-26.2-15.2-50-37.8-63.2-12.9-7.5-32.2-14.5-48.8-21.6-33.1-14.2-24.1-38.9 2.8-37.2 24.4 1 46.8 16.7 50.6 20.5l31.7-41.5c-20.4-22.5-55.3-34.3-84.6-34.3-39.5 0-86.1 21.4-86.1 71.5 0 21.5 8.5 40 26.2 55.7 23.1 19 48.1 25.9 66.7 34.2 7 3.1 20.7 7.6 20.7 18.8 0 16.3-19.5 17.2-27.5 16.8-24.5-1.4-66.5-31.2-86.8-49.5v2c0 20.1-4.7 39-13.1 55.8 25.7 22.9 64.9 47.3 99.9 47.3 49.7 0 86.1-28.9 86.1-72.8V297z"/><linearGradient id="SVGID_00000072994383226874849970000005285696267661324195_" x1="466.714" x2="466.714" y1="256.375" y2="4.164" gradientTransform="matrix(1 0 0 -1 0 376)" gradientUnits="userSpaceOnUse"><stop offset="0" stop-color="#51bbeb"/><stop offset="1" stop-color="#9563bf"/></linearGradient><path fill="url(#SVGID_00000072994383226874849970000005285696267661324195_)" d="M412.4 119.6c25.2 14.1 45.7 35.6 58.7 61.5 16.1-20.6 32.6-41.3 49.9-61.5H412.4z"/><linearGradient id="SVGID_00000019651852931758760780000016015541850444005806_" x1="610.507" x2="610.507" y1="256.375" y2="3.926" gradientTransform="matrix(1 0 0 -1 0 376)" gradientUnits="userSpaceOnUse"><stop offset="0" stop-color="#51bbeb"/><stop offset="1" stop-color="#9563bf"/></linearGradient><path fill="url(#SVGID_00000019651852931758760780000016015541850444005806_)" d="M700.2 119.6h-51.9c-48.7 44.7-88.7 100.2-127.5 155.3v97.2h71V191.3l45.3-.7c12.5-30.1 34.9-55.1 63.1-71z"/><linearGradient id="SVGID_00000132783247278778239680000001406197124194413727_" x1="1043.352" x2="1043.352" y1="255.543" y2="3.103" gradientTransform="matrix(1 0 0 -1 0 376)" gradientUnits="userSpaceOnUse"><stop offset="0" stop-color="#51bbeb"/><stop offset="1" stop-color="#9563bf"/></linearGradient><path fill="url(#SVGID_00000132783247278778239680000001406197124194413727_)" d="M1138 210.5c0-49.7-40.3-90.1-90.1-90.1h-61.3c25.8 62 17.1 135.6-37.8 194.3v58.1h71v-72.3h28.2c49.6.1 90-40.2 90-90z"/><linearGradient id="SVGID_00000062182411423025576250000002395409006727998607_" x1="1212.442" x2="1212.442" y1="256.375" y2="3.935" gradientTransform="matrix(1 0 0 -1 0 376)" gradientUnits="userSpaceOnUse"><stop offset="0" stop-color="#51bbeb"/><stop offset="1" stop-color="#9563bf"/></linearGradient><path fill="url(#SVGID_00000062182411423025576250000002395409006727998607_)" d="M1247.9 263.5c0 19.6-15.9 35.5-35.5 35.5s-35.5-15.9-35.5-35.5V119.6H1106c29.9 18.2 49.8 51.1 49.8 88.7 0 35.9-18.2 67.6-45.9 86.2 12.6 44.7 53.7 77.5 102.5 77.5 58.8 0 106.5-47.7 106.5-106.5V119.6h-71v143.9z"/><radialGradient id="SVGID_00000085215980599028960180000000069471801405855159_" cx="770.844" cy="130.155" r="85.957" fx="771.385" fy="161.069" gradientTransform="matrix(1 0 0 -1 0 376)" gradientUnits="userSpaceOnUse"><stop offset=".321" stop-color="#ed7edf" stop-opacity=".8"/><stop offset=".512" stop-color="#ea7dde" stop-opacity=".574"/><stop offset=".645" stop-color="#e17adb" stop-opacity=".416"/><stop offset=".76" stop-color="#d276d5" stop-opacity=".279"/><stop offset=".866" stop-color="#bc6fcd" stop-opacity=".153"/><stop offset=".964" stop-color="#a066c3" stop-opacity=".037"/><stop offset=".995" stop-color="#9563bf" stop-opacity="0"/></radialGradient><path fill="url(#SVGID_00000085215980599028960180000000069471801405855159_)" d="M770.8 157.4c-48.8 0-88.4 39.6-88.4 88.4s39.6 88.4 88.4 88.4 88.4-39.6 88.4-88.4c.1-48.8-39.5-88.4-88.4-88.4zm0 151.6c-34.9 0-63.2-28.3-63.2-63.2s28.3-63.2 63.2-63.2S834 211 834 245.8 805.7 309 770.8 309z"/><linearGradient id="SVGID_00000096778181503345451710000016659063341700618412_" x1="541.401" x2="1028.452" y1="191.778" y2="137.762" gradientTransform="matrix(1 0 0 -1 0 376)" gradientUnits="userSpaceOnUse"><stop offset="0" stop-color="#51bbeb" stop-opacity="0"/><stop offset=".025" stop-color="#59b8ea" stop-opacity=".025"/><stop offset=".19" stop-color="#86a6e7" stop-opacity=".19"/><stop offset=".356" stop-color="#ab98e4" stop-opacity=".356"/><stop offset=".521" stop-color="#c88de2" stop-opacity=".521"/><stop offset=".683" stop-color="#dc84e0" stop-opacity=".683"/><stop offset=".844" stop-color="#e980df" stop-opacity=".844"/><stop offset="1" stop-color="#ed7edf"/></linearGradient><path fill="url(#SVGID_00000096778181503345451710000016659063341700618412_)" d="M341.8 372.1c192.7 0 199.3-307.7 429.1-307.7 111.9 0 159.7 83 141.8 152.8 1.9 9.3 2.9 18.9 2.9 28.7 0 48.8-24.1 91.9-61.1 118.1C1074.8 258.1 985.6 1.3 770.8 1.3c-159.2 0-232.2 125.5-306 216.2-32.4 37.4-69 89.6-123 91.6"/></svg>