<?xml version="1.0" encoding="UTF-8" standalone="no"?>
<svg
   xmlns:dc="http://purl.org/dc/elements/1.1/"
   xmlns:cc="http://creativecommons.org/ns#"
   xmlns:rdf="http://www.w3.org/1999/02/22-rdf-syntax-ns#"
   xmlns:svg="http://www.w3.org/2000/svg"
   xmlns="http://www.w3.org/2000/svg"
   xmlns:sodipodi="http://sodipodi.sourceforge.net/DTD/sodipodi-0.dtd"
   xmlns:inkscape="http://www.inkscape.org/namespaces/inkscape"
   viewBox="0 0 512 512"
   version="1.1"
   id="svg4"
   sodipodi:docname="itch-io-brands.svg"
   inkscape:version="0.92.4 (5da689c313, 2019-01-14)">
  <metadata
     id="metadata10">
    <rdf:RDF>
      <cc:Work
         rdf:about="">
        <dc:format>image/svg+xml</dc:format>
        <dc:type
           rdf:resource="http://purl.org/dc/dcmitype/StillImage" />
      </cc:Work>
    </rdf:RDF>
  </metadata>
  <defs
     id="defs8" />
  <sodipodi:namedview
     pagecolor="#ffffff"
     bordercolor="#666666"
     borderopacity="1"
     objecttolerance="10"
     gridtolerance="10"
     guidetolerance="10"
     inkscape:pageopacity="0"
     inkscape:pageshadow="2"
     inkscape:window-width="2498"
     inkscape:window-height="1417"
     id="namedview6"
     showgrid="false"
     inkscape:zoom="0.4609375"
     inkscape:cx="-113.89831"
     inkscape:cy="256"
     inkscape:window-x="54"
     inkscape:window-y="-8"
     inkscape:window-maximized="1"
     inkscape:current-layer="svg4" />
  <!-- Font Awesome Pro 5.15.4 by @fontawesome - https://fontawesome.com License - https://fontawesome.com/license (Commercial License) -->
  <path
     d="M 145.11471,107.85484 C 132.02828,116.49291 106.24101,149.41799 106,158.04937 V 172.339 c 0,18.11985 15.23739,34.04335 29.07094,34.04335 16.6111,0 30.45067,-15.30076 30.45067,-33.48087 0,18.16003 13.36359,33.48087 29.98072,33.48087 16.61713,0 29.52281,-15.30076 29.52281,-33.48087 0,18.16003 14.21313,33.48087 30.82424,33.48087 h 0.30124 c 16.61111,0 30.82424,-15.30076 30.82424,-33.48087 0,18.16003 12.93581,33.48087 29.52281,33.48087 16.587,0 29.98072,-15.30076 29.98072,-33.48087 0,18.16003 13.85765,33.48087 30.45067,33.48087 C 390.78671,206.38235 406,190.45885 406,172.339 V 158.04937 C 405.75899,149.4113 379.97172,116.48621 366.88529,107.82805 326.25225,106.26784 298.05495,106 256.02411,106 c -42.03086,0 -99.32922,0.73658 -110.9094,1.85484 z m 79.72366,89.98989 c -13.25514,25.7133 -46.93525,25.92089 -60.16027,0.1674 -7.93501,15.49496 -26.0102,21.47464 -33.74035,18.52163 -2.33171,26.88513 -8.23627,158.78637 10.68243,180.22752 48.20051,12.50175 182.00514,12.13346 228.80784,0 19.06933,-21.60856 12.84543,-155.35124 10.69449,-180.22752 -7.78439,2.97309 -25.83547,-3.08025 -33.74037,-18.52163 -13.25513,25.79366 -46.90511,25.51242 -60.16026,-0.16071 -4.27779,8.36353 -13.88777,19.37874 -31.18573,19.37874 a 34.66822,38.529786 0 0 1 -31.17971,-19.37874 z m -25.05222,36.00533 c 9.92328,0 18.73192,0 29.65537,13.24504 a 263.24108,292.56254 0 0 1 53.12901,0 c 10.94152,-13.19816 19.75618,-13.19816 29.67345,-13.19816 31.52915,0 39.29546,51.91542 50.53221,96.72622 10.39926,41.61673 -3.32584,42.63455 -20.45509,42.67472 -25.39565,-1.0513 -39.45815,-21.54829 -39.45815,-42.04528 -23.64838,4.30564 -61.41348,5.88594 -93.71988,0 0,20.49699 -14.0625,40.99398 -39.45814,42.04528 -17.12323,-0.0402 -30.84832,-1.05799 -20.44907,-42.67472 11.24879,-44.86437 19.0151,-96.72622 50.53825,-96.72622 z m 56.23796,32.04789 c 0,0 -26.73925,27.30029 -31.54122,36.96956 l 17.47268,-0.78344 v 16.95471 c 0,1.0379 12.8575,0.10711 14.05648,0.10711 7.0192,0.36159 14.04443,0.66961 14.04443,-0.10711 v -16.92794 l 17.47268,0.78346 c -4.82005,-9.69606 -31.54121,-36.98965 -31.54121,-36.98965 z"
     id="path2"
     style="fill:#ffffff;fill-opacity:1;stroke-width:0.63517624"
     inkscape:connector-curvature="0" />
</svg>
